<?xml version="1.0" encoding="UTF-8"?><svg id="a" xmlns="http://www.w3.org/2000/svg" viewBox="0 0 700 320"><g id="b"><g id="c" transform="translate(-31.000000, -657.000000)"><g id="d" transform="translate(31.000000, 657.000000)"><path id="e" d="M149.34,235.66c0-38.4-65.99-54.67-65.99-54.67,0,0-31.19-13.83-40.78-39.76-9.59-25.93,19.08-24.77,26.78-44.94s38.93-33.53,38.93-33.53V14.72L251.14,149.44h233.8s83.83-5.97,123.08,20.17c50.37,33.55,50.37,66.04,50.37,66.04,0,0,15.24,72.51-74.45,77.63-137.85-5.11-162.81-98.35-84.12-98.35" fill="none" stroke="#4d4f53" stroke-linecap="round" stroke-width="10"/><g id="f" isolation="isolate"><g isolation="isolate"><path d="M531.47,267.58c-4.31,0-8.18-1.02-11.59-3.07-3.42-2.04-6.12-4.83-8.11-8.36-1.99-3.53-2.98-7.5-2.98-11.93s1.02-8.48,3.07-12.01c2.04-3.53,4.83-6.31,8.36-8.36,3.53-2.04,7.5-3.07,11.93-3.07s8.38,1.02,11.89,3.07c3.5,2.04,6.27,4.83,8.32,8.36,2.04,3.53,3.09,7.53,3.15,12.01l-2.6,2.02c0,4.03-.94,7.66-2.81,10.88-1.88,3.22-4.42,5.77-7.64,7.64-3.22,1.88-6.88,2.81-10.96,2.81Zm.67-5.88c3.25,0,6.14-.76,8.69-2.27,2.55-1.51,4.56-3.6,6.05-6.26,1.48-2.66,2.23-5.64,2.23-8.95s-.74-6.36-2.23-8.99c-1.48-2.63-3.5-4.72-6.05-6.26-2.55-1.54-5.45-2.31-8.69-2.31s-6.08,.77-8.65,2.31c-2.58,1.54-4.62,3.63-6.13,6.26-1.51,2.63-2.27,5.63-2.27,8.99s.76,6.29,2.27,8.95c1.51,2.66,3.56,4.75,6.13,6.26,2.58,1.51,5.46,2.27,8.65,2.27Zm20.08,5.46c-.95,0-1.74-.29-2.35-.88-.62-.59-.92-1.36-.92-2.31v-14.36l1.6-6.64,4.96,1.26v19.74c0,.95-.31,1.72-.92,2.31-.62,.59-1.4,.88-2.35,.88Z" fill="#8c1515"/><path d="M565.16,228.52c-.84,0-1.54-.27-2.1-.8-.56-.53-.84-1.19-.84-1.97,0-.84,.28-1.53,.84-2.06,.56-.53,1.26-.8,2.1-.8h21.42c.84,0,1.54,.27,2.1,.8,.56,.53,.84,1.22,.84,2.06,0,.79-.28,1.44-.84,1.97-.56,.53-1.26,.8-2.1,.8h-21.42Zm20.92,38.64c-2.97,0-5.62-.7-7.94-2.1-2.32-1.4-4.16-3.32-5.5-5.75-1.34-2.44-2.02-5.22-2.02-8.36v-41.08c0-.95,.29-1.74,.88-2.35s1.36-.92,2.31-.92,1.74,.31,2.35,.92c.62,.62,.92,1.4,.92,2.35v41.08c0,2.86,.84,5.19,2.52,7.01,1.68,1.82,3.84,2.73,6.47,2.73h2.27c.9,0,1.62,.31,2.18,.92,.56,.62,.84,1.4,.84,2.35s-.34,1.72-1.01,2.31c-.67,.59-1.51,.88-2.52,.88h-1.76Z" fill="#8c1515"/></g></g><g id="g" isolation="isolate"><g isolation="isolate"><path d="M175.22,267.16c-.95,0-1.74-.31-2.35-.92-.62-.62-.92-1.4-.92-2.35v-59.05c0-.95,.31-1.74,.92-2.35,.62-.62,1.4-.92,2.35-.92h16.8c4.14,0,7.81,.91,11,2.73,3.19,1.82,5.68,4.33,7.48,7.52,1.79,3.19,2.69,6.89,2.69,11.09s-.9,7.71-2.69,10.88c-1.79,3.16-4.28,5.66-7.48,7.48-3.19,1.82-6.86,2.73-11,2.73h-13.52v19.91c0,.95-.31,1.74-.92,2.35-.62,.62-1.4,.92-2.35,.92Zm3.28-29.48h13.52c2.86,0,5.4-.63,7.64-1.89,2.24-1.26,3.99-3.01,5.25-5.25,1.26-2.24,1.89-4.79,1.89-7.64s-.63-5.57-1.89-7.81c-1.26-2.24-3.01-4-5.25-5.29-2.24-1.29-4.79-1.93-7.64-1.93h-13.52v29.82Z" fill="#8c1515"/><path d="M225.78,248.42c-1.01,0-1.81-.31-2.39-.92-.59-.62-.88-1.4-.88-2.35v-40.32c0-1.01,.29-1.81,.88-2.39s1.39-.88,2.39-.88c.95,0,1.72,.29,2.31,.88s.88,1.39,.88,2.39v40.32c0,.95-.29,1.74-.88,2.35-.59,.62-1.36,.92-2.31,.92Zm0,18.73c-1.01,0-1.81-.29-2.39-.88s-.88-1.36-.88-2.31v-39.48c0-1.01,.29-1.81,.88-2.39,.59-.59,1.39-.88,2.39-.88,.95,0,1.72,.29,2.31,.88,.59,.59,.88,1.39,.88,2.39v39.48c0,.95-.29,1.72-.88,2.31s-1.36,.88-2.31,.88Zm36.12,0c-.95,0-1.74-.31-2.35-.92-.62-.62-.92-1.37-.92-2.27v-21.84c0-3.47-.66-6.33-1.97-8.57-1.32-2.24-3.11-3.92-5.38-5.04s-4.83-1.68-7.69-1.68-5.22,.53-7.43,1.6c-2.21,1.06-3.96,2.52-5.25,4.37-1.29,1.85-1.93,3.95-1.93,6.3h-4.62c.11-3.53,1.06-6.68,2.86-9.45,1.79-2.77,4.17-4.96,7.14-6.55,2.97-1.6,6.27-2.39,9.91-2.39,3.98,0,7.53,.83,10.67,2.48,3.14,1.65,5.61,4.07,7.43,7.27,1.82,3.19,2.73,7.08,2.73,11.68v21.84c0,.9-.31,1.65-.92,2.27-.62,.62-1.37,.92-2.27,.92Z" fill="#8c1515"/><path d="M299.62,267.58c-4.31,0-8.18-1.02-11.59-3.07-3.42-2.04-6.12-4.83-8.11-8.36-1.99-3.53-2.98-7.5-2.98-11.93s1.02-8.48,3.07-12.01c2.04-3.53,4.83-6.31,8.36-8.36,3.53-2.04,7.5-3.07,11.93-3.07s8.39,1.02,11.89,3.07c3.5,2.04,6.27,4.83,8.32,8.36,2.04,3.53,3.09,7.53,3.15,12.01l-2.6,2.02c0,4.03-.94,7.66-2.81,10.88-1.88,3.22-4.42,5.77-7.64,7.64-3.22,1.88-6.88,2.81-10.96,2.81Zm.67-5.88c3.25,0,6.15-.76,8.69-2.27,2.55-1.51,4.56-3.6,6.05-6.26,1.48-2.66,2.23-5.64,2.23-8.95s-.74-6.36-2.23-8.99c-1.48-2.63-3.5-4.72-6.05-6.26-2.55-1.54-5.45-2.31-8.69-2.31s-6.08,.77-8.65,2.31c-2.58,1.54-4.62,3.63-6.13,6.26-1.51,2.63-2.27,5.63-2.27,8.99s.76,6.29,2.27,8.95c1.51,2.66,3.56,4.75,6.13,6.26,2.57,1.51,5.46,2.27,8.65,2.27Zm20.08,5.46c-.95,0-1.74-.29-2.35-.88-.62-.59-.92-1.36-.92-2.31v-14.36l1.6-6.64,4.96,1.26v19.74c0,.95-.31,1.72-.92,2.31-.62,.59-1.4,.88-2.35,.88Z" fill="#8c1515"/><path d="M339.43,267.16c-1.01,0-1.79-.28-2.35-.84-.56-.56-.84-1.34-.84-2.35v-39.56c0-1.01,.28-1.79,.84-2.35,.56-.56,1.34-.84,2.35-.84s1.79,.28,2.35,.84c.56,.56,.84,1.34,.84,2.35v39.56c0,1.01-.28,1.79-.84,2.35-.56,.56-1.34,.84-2.35,.84Zm-.5-28.31c.17-3.47,1.08-6.58,2.73-9.32,1.65-2.74,3.81-4.9,6.47-6.47,2.66-1.57,5.61-2.35,8.86-2.35,2.57,0,4.56,.37,5.96,1.09,1.4,.73,1.93,1.79,1.6,3.19-.22,.84-.6,1.4-1.13,1.68-.53,.28-1.18,.39-1.93,.34-.76-.05-1.61-.11-2.56-.17-3.14-.28-5.92,.04-8.36,.97-2.44,.92-4.37,2.34-5.8,4.24-1.43,1.9-2.14,4.17-2.14,6.8h-3.7Z" fill="#8c1515"/><path d="M377.99,267.16c-1.01,0-1.81-.29-2.39-.88s-.88-1.36-.88-2.31v-39.48c0-.95,.29-1.74,.88-2.35,.59-.62,1.39-.92,2.39-.92,.95,0,1.72,.31,2.31,.92,.59,.62,.88,1.4,.88,2.35v39.48c0,.95-.29,1.72-.88,2.31s-1.36,.88-2.31,.88Zm29.48,0c-.95,0-1.74-.29-2.35-.88-.62-.59-.92-1.36-.92-2.31v-24.19c0-3.98-1.04-7.13-3.11-9.45-2.07-2.32-4.73-3.49-7.98-3.49-3.47,0-6.33,1.13-8.57,3.4-2.24,2.27-3.36,5.22-3.36,8.86h-4.62c.11-3.58,.91-6.76,2.39-9.53,1.48-2.77,3.51-4.94,6.09-6.51,2.58-1.57,5.49-2.35,8.74-2.35s6.23,.79,8.78,2.35c2.55,1.57,4.54,3.78,5.96,6.64,1.43,2.86,2.14,6.22,2.14,10.08v24.19c0,.95-.29,1.72-.88,2.31s-1.36,.88-2.31,.88Zm29.32,0c-.95,0-1.74-.29-2.35-.88-.62-.59-.92-1.36-.92-2.31v-24.19c0-3.98-1.04-7.13-3.11-9.45-2.07-2.32-4.73-3.49-7.98-3.49-3.47,0-6.31,1.16-8.53,3.49-2.21,2.32-3.29,5.42-3.23,9.28h-5.8c.05-3.75,.87-7.06,2.44-9.91,1.57-2.86,3.72-5.07,6.47-6.64,2.74-1.57,5.85-2.35,9.32-2.35s6.23,.79,8.78,2.35c2.55,1.57,4.54,3.78,5.96,6.64,1.43,2.86,2.14,6.22,2.14,10.08v24.19c0,.95-.29,1.72-.88,2.31-.59,.59-1.36,.88-2.31,.88Z" fill="#8c1515"/></g></g></g></g></g></svg>