<svg xmlns="http://www.w3.org/2000/svg" viewBox="0 0 700 350"><path d="M149.34,246.66c0-38.41-66-54.67-66-54.67s-31.19-13.83-40.78-39.76,19.08-24.77,26.77-44.95,38.94-33.53,38.94-33.53v-48L251.14,160.44H485s83.83-6,123.08,20.18c50.36,33.55,50.36,66,50.36,66s15.24,72.51-74.45,77.62c-137.85-5.11-162.81-98.34-84.13-98.34" fill="none" stroke="#4d4f53" stroke-linecap="round" stroke-width="10"/><g style="isolation:isolate"><g style="isolation:isolate"><path d="M532.23,278.66a23.82,23.82,0,0,1-12.06-3.06,22.57,22.57,0,0,1-8.4-8.4,25.12,25.12,0,0,1,0-24,22.57,22.57,0,0,1,8.4-8.4,23.82,23.82,0,0,1,12.06-3.06,23.55,23.55,0,0,1,12,3.06,22.61,22.61,0,0,1,8.36,8.4,23.82,23.82,0,0,1,3.06,12.06l-2.1,3.35a19,19,0,0,1-2.81,10.25,20.44,20.44,0,0,1-7.6,7.19A22.23,22.23,0,0,1,532.23,278.66Zm0-4.7a17.9,17.9,0,0,0,16-9.2,20.37,20.37,0,0,0,0-19.15,17.9,17.9,0,0,0-16-9.2,18.18,18.18,0,0,0-16.05,9.2,20.08,20.08,0,0,0,0,19.15,18.18,18.18,0,0,0,16.05,9.2Zm21,4.2a2.52,2.52,0,0,1-1.89-.72,2.41,2.41,0,0,1-.72-1.8V260.27l1.6-5h3.44v20.41a2.49,2.49,0,0,1-.67,1.8A2.29,2.29,0,0,1,553.23,278.16Z" fill="#8c1515"/><path d="M564.65,238.42a2.22,2.22,0,0,1-1.64-.63,2.18,2.18,0,0,1-.63-1.63,2.16,2.16,0,0,1,2.27-2.27h22.77a2.2,2.2,0,0,1,1.63.63,2.22,2.22,0,0,1,.63,1.64,2.16,2.16,0,0,1-2.26,2.26Zm22.43,39.74a17,17,0,0,1-8.23-2.14,14.54,14.54,0,0,1-5.63-5.72,16.85,16.85,0,0,1-2-8.27V220.2a2.52,2.52,0,0,1,.72-1.89,2.41,2.41,0,0,1,1.8-.72,2.47,2.47,0,0,1,2.61,2.61V262a10.81,10.81,0,0,0,3,7.94,10.51,10.51,0,0,0,7.81,3.06H589a2.56,2.56,0,0,1,1.89.72,2.52,2.52,0,0,1,.72,1.89,2.41,2.41,0,0,1-.72,1.8,2.56,2.56,0,0,1-1.89.72Z" fill="#8c1515"/></g></g><g style="isolation:isolate"><g style="isolation:isolate"><path d="M174.46,278.16a2.45,2.45,0,0,1-2.52-2.52V215.07a2.41,2.41,0,0,1,.71-1.84,2.54,2.54,0,0,1,1.81-.68h16.8a21.73,21.73,0,0,1,10.88,2.69,19.36,19.36,0,0,1,7.43,7.43,23.43,23.43,0,0,1,0,21.8,19.22,19.22,0,0,1-7.43,7.48,21.73,21.73,0,0,1-10.88,2.69H177v21a2.49,2.49,0,0,1-.67,1.8A2.42,2.42,0,0,1,174.46,278.16ZM177,249.6h14.28a16.27,16.27,0,0,0,8.27-2.06,15,15,0,0,0,5.63-5.67,16.53,16.53,0,0,0,2.06-8.32,16.29,16.29,0,0,0-2.06-8.27,15.06,15.06,0,0,0-5.63-5.63,16.27,16.27,0,0,0-8.27-2.06H177Z" fill="#8c1515"/><path d="M224.44,258a2.45,2.45,0,0,1-2.52-2.52V215.07a2.41,2.41,0,0,1,.71-1.84,2.54,2.54,0,0,1,1.81-.68,2.51,2.51,0,0,1,1.85.68,2.46,2.46,0,0,1,.67,1.84v40.41a2.49,2.49,0,0,1-.67,1.8A2.42,2.42,0,0,1,224.44,258Zm0,20.16a2.45,2.45,0,0,1-2.52-2.52V234.73a2.45,2.45,0,0,1,.71-1.85,2.53,2.53,0,0,1,1.81-.67,2.32,2.32,0,0,1,2.52,2.52v40.91a2.49,2.49,0,0,1-.67,1.8A2.42,2.42,0,0,1,224.44,278.16Zm37.21,0a2.46,2.46,0,0,1-2.52-2.52V253a17.74,17.74,0,0,0-2.14-9.16,13.68,13.68,0,0,0-5.8-5.41,18.31,18.31,0,0,0-8.27-1.81,18.84,18.84,0,0,0-8.15,1.72,14.23,14.23,0,0,0-5.71,4.75,11.65,11.65,0,0,0-2.1,6.8h-4.2a18.67,18.67,0,0,1,3.11-9.36,19.69,19.69,0,0,1,7.22-6.55,20.4,20.4,0,0,1,9.83-2.4,23.52,23.52,0,0,1,10.88,2.48,18.35,18.35,0,0,1,7.6,7.22A22.9,22.9,0,0,1,264.17,253v22.6a2.45,2.45,0,0,1-2.52,2.52Z" fill="#8c1515"/><path d="M299.45,278.66a23.75,23.75,0,0,1-12.05-3.06,22.43,22.43,0,0,1-8.4-8.4,25,25,0,0,1,0-24,22.43,22.43,0,0,1,8.4-8.4,25.18,25.18,0,0,1,24.06,0,22.54,22.54,0,0,1,8.36,8.4,23.82,23.82,0,0,1,3.07,12.06l-2.1,3.35A19,19,0,0,1,318,268.83a20.36,20.36,0,0,1-7.6,7.19A22.23,22.23,0,0,1,299.45,278.66Zm0-4.7a18.11,18.11,0,0,0,9.45-2.48,17.9,17.9,0,0,0,6.55-6.72,20.3,20.3,0,0,0,0-19.15,17.9,17.9,0,0,0-6.55-6.72,18.52,18.52,0,0,0-25.49,6.72,20,20,0,0,0,0,19.15,18.15,18.15,0,0,0,16,9.2Zm21,4.2a2.56,2.56,0,0,1-1.89-.72,2.4,2.4,0,0,1-.71-1.8V260.27l1.59-5h3.45v20.41a2.5,2.5,0,0,1-.68,1.8A2.28,2.28,0,0,1,320.45,278.16Z" fill="#8c1515"/><path d="M338,278.16a2.43,2.43,0,0,1-1.81-.72,2.4,2.4,0,0,1-.71-1.8V234.73a2.41,2.41,0,0,1,.71-1.85,2.52,2.52,0,0,1,1.81-.67,2.48,2.48,0,0,1,1.84.67,2.51,2.51,0,0,1,.68,1.85v40.91a2.5,2.5,0,0,1-.68,1.8A2.4,2.4,0,0,1,338,278.16Zm-.84-28.06a22.65,22.65,0,0,1,2.94-9.53,18.15,18.15,0,0,1,6.3-6.51,16.11,16.11,0,0,1,8.56-2.35,13.08,13.08,0,0,1,5,.75,2.13,2.13,0,0,1,1.34,2.69,1.72,1.72,0,0,1-1.17,1.51,5.3,5.3,0,0,1-2.23,0,18.27,18.27,0,0,0-2.9-.21,15.44,15.44,0,0,0-7.47,1.77,13,13,0,0,0-5.13,4.83,13.31,13.31,0,0,0-1.84,7Z" fill="#8c1515"/><path d="M374.8,278.16a2.45,2.45,0,0,1-1.81-.72,2.4,2.4,0,0,1-.71-1.8V234.73a2.41,2.41,0,0,1,.71-1.85,2.53,2.53,0,0,1,1.81-.67,2.46,2.46,0,0,1,1.84.67,2.51,2.51,0,0,1,.68,1.85v40.91a2.5,2.5,0,0,1-.68,1.8A2.38,2.38,0,0,1,374.8,278.16Zm30.49,0a2.45,2.45,0,0,1-2.52-2.52V251.36a16.09,16.09,0,0,0-3.4-10.58,11,11,0,0,0-8.87-4.12,12.66,12.66,0,0,0-13.18,13.27h-4.2a21.06,21.06,0,0,1,2.56-9.49,17.45,17.45,0,0,1,6.17-6.47,16.39,16.39,0,0,1,8.65-2.35,16.06,16.06,0,0,1,9,2.52,17.4,17.4,0,0,1,6.09,7,22.57,22.57,0,0,1,2.23,10.25v24.28a2.54,2.54,0,0,1-.67,1.8A2.42,2.42,0,0,1,405.29,278.16Zm30.24,0a2.45,2.45,0,0,1-2.52-2.52V251.36a16,16,0,0,0-3.4-10.58,11,11,0,0,0-8.87-4.12,12.53,12.53,0,0,0-9.45,3.82q-3.65,3.83-3.48,10.29h-5a22,22,0,0,1,2.52-10.08,17.21,17.21,0,0,1,6.38-6.67,17.39,17.39,0,0,1,9.07-2.4,16.06,16.06,0,0,1,9,2.52,17.4,17.4,0,0,1,6.09,7,22.57,22.57,0,0,1,2.23,10.25v24.28a2.54,2.54,0,0,1-.67,1.8A2.42,2.42,0,0,1,435.53,278.16Z" fill="#8c1515"/></g></g></svg>