<svg xmlns="http://www.w3.org/2000/svg" xmlns:xlink="http://www.w3.org/1999/xlink" data-name="Layer 2" viewBox="0 0 750 200">
  <defs>
    <linearGradient id="d" x1="629.597" x2="659.646" y1="69.348" y2="69.348" gradientTransform="rotate(-90 644.621 69.348)" gradientUnits="userSpaceOnUse">
      <stop offset=".198" stop-color="#ee2a7b"/>
      <stop offset=".757" stop-color="#009444"/>
    </linearGradient>
    <linearGradient id="a" x1="388.836" x2="489.47" y1="99.527" y2="99.527" gradientUnits="userSpaceOnUse">
      <stop offset="0" stop-color="#2b3990"/>
      <stop offset="1" stop-color="#92278f"/>
    </linearGradient>
    <linearGradient xlink:href="#a" id="e" x1="388.861" x2="489.452" y1="80.438" y2="80.438"/>
    <linearGradient xlink:href="#a" id="f" x2="489.47" y1="94.835" y2="94.835"/>
    <linearGradient xlink:href="#a" id="g" x1="388.836" x2="489.47" y1="96.868" y2="96.868"/>
    <linearGradient id="b" x1="623.301" x2="523.582" y1="69.111" y2="69.111" gradientUnits="userSpaceOnUse">
      <stop offset="0" stop-color="#ee2a7b"/>
      <stop offset="1" stop-color="#92278f"/>
    </linearGradient>
    <linearGradient xlink:href="#b" id="h" x1="623.301" x2="523.582" y1="81.325" y2="81.325"/>
    <linearGradient xlink:href="#b" id="i" x1="623.301" x2="523.582" y1="98.834" y2="98.834"/>
    <linearGradient xlink:href="#b" id="j" x1="623.301" x2="523.582" y1="69.11" y2="69.11"/>
    <linearGradient id="c" x1="247.828" x2="347.527" y1="99.348" y2="99.348" gradientUnits="userSpaceOnUse">
      <stop offset="0" stop-color="#231f20"/>
      <stop offset="1" stop-color="#2b3990"/>
    </linearGradient>
    <linearGradient xlink:href="#c" id="k" x1="247.828" x2="347.527" y1="81.185" y2="81.185"/>
    <linearGradient xlink:href="#c" id="l" x1="247.828" x2="347.527" y1="98.318" y2="98.318"/>
    <linearGradient xlink:href="#c" id="m" x1="247.828" x2="347.527" y1="100.38" y2="100.38"/>
  </defs>
  <path fill="#f1f2f2" stroke="#d1d3d4" stroke-miterlimit="10" stroke-width="2.339" d="M84.084 3.524h563.591v193.439H84.084z"/>
  <path fill="#d1d3d4" d="M459.247 190.698H421.92c-8.667 0-15.758-4.253-15.758-9.452v-41.019c0-5.199 7.091.836 15.758.836h37.326c8.666 0 15.757-6.035 15.757-.836v41.019c0 5.199-7.09 9.452-15.757 9.452Z"/>
  <rect width="68.841" height="27.886" x="406.346" y="125.67" fill="#92278f" rx="10.204" ry="10.204"/>
  <rect width="115.557" height="93.76" x="101.581" y="15.71" fill="#fff" stroke="#58595b" stroke-miterlimit="10" stroke-width="4" rx="19.779" ry="19.779"/>
  <path fill="#58595b" d="M101.58 35.489c0-10.879 8.901-19.78 19.78-19.78h75.999c10.878 0 19.779 8.901 19.779 19.78"/>
  <path fill="#fff" d="M121.988 21.91h1.227l.92 3.286c.211.741.356 1.383.575 2.127h.04c.22-.744.37-1.385.576-2.127l.907-3.286h1.184l-2.023 6.536h-1.375l-2.031-6.536Zm5.784 3.29c0-2.138 1.339-3.41 2.994-3.41a2.6 2.6 0 0 1 1.883.827l-.62.748c-.335-.336-.728-.567-1.24-.567-1.062 0-1.826.9-1.826 2.366 0 1.491.704 2.395 1.8 2.395.578 0 1.027-.268 1.395-.672l.619.728c-.53.615-1.211.951-2.059.951-1.643 0-2.946-1.203-2.946-3.366Zm6.103-3.29h3.95v.976h-2.79v1.854h2.375v.976h-2.375v2.73h-1.16V21.91Zm7.1 0h2.059c1.45 0 2.526.504 2.526 2.015 0 1.457-1.079 2.119-2.486 2.119h-.94v2.402h-1.159V21.91Zm2.003 3.206c.976 0 1.439-.387 1.439-1.191 0-.812-.507-1.088-1.479-1.088h-.804v2.28h.844Zm3.717-1.579h.943l.088.875h.032c.35-.64.87-.995 1.396-.995.249 0 .407.032.555.1l-.2 1c-.172-.048-.3-.08-.504-.08-.391 0-.863.267-1.159 1.015v2.994h-1.151v-4.909Zm3.306 2.459c0-1.596 1.108-2.579 2.263-2.579 1.327 0 2.027.96 2.027 2.331 0 .22-.024.44-.05.56h-3.116c.095.87.656 1.367 1.447 1.367.42 0 .78-.132 1.14-.356l.391.715a3.043 3.043 0 0 1-1.683.532c-1.355 0-2.419-.95-2.419-2.57Zm3.294-.473c0-.754-.336-1.214-1.007-1.214-.572 0-1.076.427-1.175 1.214h2.182Zm2.1-1.986h.943l.088.524h.033c.414-.356.939-.644 1.479-.644 1.227 0 1.93.983 1.93 2.499 0 1.679-1.003 2.65-2.094 2.65-.437 0-.864-.196-1.264-.54l.036.816v1.548h-1.151v-6.853Zm3.29 2.39c0-.979-.32-1.559-1.067-1.559-.356 0-.692.18-1.072.552v2.287c.352.3.7.408.984.408.655 0 1.155-.576 1.155-1.687Zm2.35-2.39h.943l.088.875h.032c.35-.64.87-.995 1.396-.995.249 0 .407.032.555.1l-.2 1c-.172-.048-.3-.08-.504-.08-.391 0-.863.267-1.159 1.015v2.994h-1.151v-4.909Zm3.305 2.459c0-1.636 1.112-2.579 2.335-2.579s2.335.943 2.335 2.58c0 1.626-1.111 2.57-2.335 2.57s-2.335-.944-2.335-2.57Zm3.487 0c0-.984-.432-1.64-1.152-1.64s-1.151.656-1.151 1.64c0 .983.432 1.631 1.151 1.631s1.152-.648 1.152-1.63Zm2.003 0c0-1.636 1.156-2.579 2.463-2.579a2.1 2.1 0 0 1 1.436.552l-.56.748c-.26-.229-.507-.36-.816-.36-.791 0-1.339.655-1.339 1.64 0 .982.54 1.63 1.304 1.63.384 0 .735-.189 1.015-.424l.467.76a2.424 2.424 0 0 1-1.602.603c-1.34 0-2.367-.943-2.367-2.57Zm4.38 0c0-1.596 1.108-2.579 2.263-2.579 1.327 0 2.027.96 2.027 2.331 0 .22-.024.44-.05.56h-3.116c.096.87.656 1.367 1.448 1.367.419 0 .78-.132 1.138-.356l.392.715a3.038 3.038 0 0 1-1.683.532c-1.355 0-2.419-.95-2.419-2.57Zm3.295-.473c0-.754-.336-1.214-1.007-1.214-.572 0-1.076.427-1.176 1.214h2.183Zm1.612 2.36.536-.732c.435.34.857.547 1.354.547.536 0 .788-.25.788-.587 0-.412-.532-.595-1.055-.796-.644-.242-1.38-.61-1.38-1.431 0-.85.688-1.467 1.788-1.467.684 0 1.23.278 1.63.588l-.527.707c-.344-.251-.69-.428-1.076-.428-.493 0-.727.237-.727.544 0 .388.496.536 1.027.732.664.248 1.407.568 1.407 1.483 0 .844-.667 1.523-1.906 1.523-.672 0-1.38-.288-1.86-.683Zm4.309 0 .536-.732c.436.34.858.547 1.356.547.535 0 .787-.25.787-.587 0-.412-.531-.595-1.055-.796-.644-.242-1.38-.61-1.38-1.431 0-.85.688-1.467 1.788-1.467.683 0 1.231.278 1.63.588l-.527.707c-.344-.251-.69-.428-1.075-.428-.494 0-.728.237-.728.544 0 .388.495.536 1.028.732.663.248 1.407.568 1.407 1.483 0 .844-.668 1.523-1.907 1.523-.672 0-1.38-.288-1.86-.683Zm4.474-1.887c0-1.636 1.112-2.579 2.336-2.579 1.223 0 2.334.943 2.334 2.58 0 1.626-1.111 2.57-2.334 2.57-1.224 0-2.335-.944-2.335-2.57Zm3.487 0c0-.984-.432-1.64-1.151-1.64-.72 0-1.152.656-1.152 1.64 0 .983.432 1.631 1.152 1.631.719 0 1.151-.648 1.151-1.63Zm2.327-2.459h.944l.088.875h.032c.35-.64.869-.995 1.395-.995.25 0 .408.032.556.1l-.2 1c-.172-.048-.3-.08-.504-.08-.392 0-.863.267-1.16 1.015v2.994h-1.15v-4.909Z"/>
  <path fill="url(#d)" d="M638.751 54.323h11.74v30.049h-11.74z" transform="rotate(90 644.621 69.348)"/>
  <rect width="75.711" height="60" x="660.53" y="35.663" fill="#fff" stroke="#009444" stroke-miterlimit="10" stroke-width="3.047" rx="11.511" ry="11.511"/>
  <path fill="#009444" d="M660.53 53.182c0-9.635 5.832-17.519 12.96-17.519h49.792c7.128 0 12.96 7.884 12.96 17.52"/>
  <path fill="#fff" d="M684.513 44.977c0-2.116 1.18-3.363 2.883-3.363s2.882 1.253 2.882 3.363c0 2.114-1.179 3.414-2.882 3.414s-2.883-1.3-2.883-3.414Zm4.573 0c0-1.468-.663-2.355-1.69-2.355s-1.691.887-1.691 2.355c0 1.466.664 2.406 1.691 2.406s1.69-.94 1.69-2.406Zm2.354 1.463v-3.08h1.152v2.931c0 .808.233 1.111.764 1.111.432 0 .716-.2 1.088-.68V43.36h1.151v4.91h-.944l-.088-.724h-.031c-.433.512-.908.844-1.58.844-1.051 0-1.511-.712-1.511-1.952Zm5.789.175v-2.339h-.7v-.863l.76-.052.136-1.34h.955v1.34h1.251v.915h-1.25v2.337c0 .578.223.862.695.862.168 0 .368-.056.511-.112l.197.848c-.268.088-.61.18-1.004.18-1.131 0-1.551-.716-1.551-1.776Zm3.438-3.254h.944l.088.524h.031c.414-.356.94-.644 1.48-.644 1.227 0 1.93.984 1.93 2.5 0 1.678-1.003 2.65-2.095 2.65-.435 0-.863-.197-1.262-.54l.035.815v1.548h-1.151V43.36Zm3.29 2.391c0-.98-.32-1.56-1.067-1.56-.356 0-.692.181-1.072.552v2.287c.352.3.7.408.983.408.657 0 1.157-.576 1.157-1.687Zm2.294.688v-3.08h1.152v2.931c0 .808.231 1.111.764 1.111.431 0 .714-.2 1.086-.68V43.36h1.152v4.91h-.944l-.087-.724h-.033c-.431.512-.907.844-1.579.844-1.052 0-1.51-.712-1.51-1.952Zm5.788.175v-2.339h-.7v-.863l.76-.052.136-1.34h.955v1.34h1.252v.915h-1.252v2.337c0 .578.225.862.696.862.168 0 .367-.056.512-.112l.195.848a3.18 3.18 0 0 1-1.003.18c-1.132 0-1.551-.716-1.551-1.776Z"/>
  <rect width="119.802" height="93.76" x="240.522" y="17.134" fill="#fff" stroke="#2b3990" stroke-miterlimit="10" stroke-width="4.073" rx="20.139" ry="20.139"/>
  <path fill="#2b3990" d="M240.522 36.719c0-10.879 9.227-19.78 20.506-19.78h78.79c11.278 0 20.506 8.901 20.506 19.78"/>
  <path fill="#231f20" d="M195.522 157.876h1.854c1.307 0 2.276.454 2.276 1.814 0 1.314-.972 1.91-2.24 1.91h-.846v2.164h-1.044v-5.888Zm1.804 2.888c.879 0 1.297-.349 1.297-1.074 0-.73-.458-.98-1.333-.98h-.724v2.054h.76Zm3.344-3.36h1.037v1.646l-.043.853c.37-.35.81-.67 1.415-.67.947 0 1.361.641 1.361 1.758v2.773h-1.037v-2.64c0-.728-.21-1-.688-1-.39 0-.644.19-1.008.55v3.09h-1.038v-6.36Zm4.784 5.171c0-.947.785-1.44 2.6-1.635-.014-.475-.206-.87-.803-.87-.44 0-.854.197-1.243.435l-.382-.692c.487-.306 1.114-.58 1.816-.58 1.105 0 1.65.681 1.65 1.913v2.618h-.851l-.08-.49h-.028c-.396.338-.85.598-1.372.598-.774 0-1.307-.526-1.307-1.297Zm2.6.004v-.994c-1.199.151-1.6.465-1.6.911 0 .39.267.562.638.562.36 0 .634-.176.962-.479Zm2.281-3.237h.85l.08.788h.028c.316-.576.784-.897 1.257-.897.225 0 .368.03.5.09l-.18.9a1.5 1.5 0 0 0-.453-.072c-.353 0-.778.243-1.044.915v2.698h-1.038v-4.422Zm3.358 0h.85l.079.602h.028c.375-.39.804-.71 1.358-.71.648 0 1.017.294 1.221.791.423-.45.86-.792 1.422-.792.933 0 1.365.641 1.365 1.758v2.773h-1.037v-2.64c0-.728-.216-1.001-.68-1.001-.282 0-.584.18-.926.55v3.09h-1.038v-2.639c0-.728-.215-1.001-.68-1.001-.274 0-.583.18-.925.55v3.09h-1.037v-4.421Zm7.367 1.498c0-1.927 1.206-3.072 2.697-3.072.739 0 1.326.353 1.696.746l-.558.673c-.303-.303-.655-.511-1.116-.511-.958 0-1.646.81-1.646 2.132 0 1.342.634 2.156 1.62 2.156.523 0 .926-.241 1.257-.605l.558.656c-.477.554-1.09.857-1.855.857-1.48 0-2.653-1.084-2.653-3.032Zm5.165 1.735c0-.947.785-1.44 2.6-1.635-.014-.475-.205-.87-.803-.87-.44 0-.854.197-1.242.435l-.382-.692c.486-.306 1.113-.58 1.815-.58 1.106 0 1.65.681 1.65 1.913v2.618h-.85l-.08-.49h-.028c-.397.338-.85.598-1.372.598-.775 0-1.308-.526-1.308-1.297Zm2.6.004v-.994c-1.199.151-1.599.465-1.599.911 0 .39.267.562.638.562.36 0 .634-.176.962-.479Zm2.293-.307v-2.106h-.63v-.777l.683-.047.123-1.207h.86v1.207h1.128v.824h-1.127v2.105c0 .52.202.776.627.776.151 0 .33-.05.46-.1l.176.763a2.87 2.87 0 0 1-.903.162c-1.02 0-1.397-.644-1.397-1.6Zm2.538-1.155h2.14v.756h-2.14v-.756Zm3.176-1.775h.85l.078.788h.029c.315-.576.783-.897 1.256-.897.226 0 .369.03.501.09l-.18.9a1.51 1.51 0 0 0-.453-.072c-.353 0-.779.243-1.044.915v2.698h-1.037v-4.422Zm2.974 2.215c0-1.438.998-2.324 2.04-2.324 1.195 0 1.824.865 1.824 2.1 0 .198-.021.396-.044.504h-2.807c.086.785.59 1.231 1.303 1.231.379 0 .703-.118 1.026-.32l.353.645c-.421.284-.954.48-1.516.48-1.22 0-2.179-.858-2.179-2.316Zm2.968-.426c0-.68-.303-1.095-.907-1.095-.516 0-.969.386-1.059 1.095h1.966Zm1.541 1.444c0-.947.785-1.44 2.6-1.635-.014-.475-.206-.87-.803-.87-.44 0-.854.197-1.242.435l-.382-.692c.486-.306 1.113-.58 1.815-.58 1.106 0 1.65.681 1.65 1.913v2.618h-.851l-.08-.49h-.027c-.397.338-.851.598-1.372.598-.775 0-1.308-.526-1.308-1.297Zm2.6.004v-.994c-1.199.151-1.6.465-1.6.911 0 .39.268.562.639.562.36 0 .633-.176.962-.479Zm2.012-1.022c0-1.44.904-2.324 1.872-2.324.501 0 .818.188 1.16.487l-.04-.713v-1.603h1.038v6.36h-.85l-.08-.479h-.028c-.329.327-.782.587-1.257.587-1.102 0-1.815-.857-1.815-2.315Zm2.992.96v-2.059c-.302-.27-.601-.367-.9-.367-.561 0-1.026.533-1.026 1.455 0 .96.367 1.469 1.005 1.469.341 0 .63-.152.921-.497Zm2.07 2.971.19-.802c.085.025.213.061.318.061.463 0 .734-.317.881-.76l.083-.277-1.739-4.368h1.052l.763 2.168c.133.392.26.828.39 1.249h.035c.112-.41.223-.846.338-1.25l.66-2.167h1l-1.598 4.624c-.367.995-.832 1.613-1.797 1.613-.241 0-.414-.036-.576-.09Zm-34.855 3.188h1.106l.828 2.96c.191.668.32 1.246.518 1.916h.037c.198-.67.333-1.248.518-1.916l.817-2.96h1.067l-1.822 5.887h-1.24l-1.829-5.887Zm5.206 2.964c0-1.927 1.206-3.073 2.698-3.073.738 0 1.325.354 1.695.746l-.558.673c-.302-.302-.655-.51-1.116-.51-.958 0-1.645.81-1.645 2.131 0 1.343.633 2.157 1.62 2.157.522 0 .925-.242 1.257-.605l.557.655c-.476.555-1.09.858-1.854.858-1.48 0-2.654-1.084-2.654-3.032Zm5.494-2.964h3.558v.879h-2.514v1.67h2.14v.879h-2.14v2.46h-1.044v-5.888Zm119.77-10.8h1.225l1.919 5.888h-1.106l-.896-3.133c-.188-.623-.36-1.295-.534-1.942h-.036a41.938 41.938 0 0 1-.522 1.942l-.903 3.133h-1.067l1.92-5.888Zm-.785 3.474h2.772v.818h-2.772v-.818Zm4.511 1.276v-5.222h1.037v5.276c0 .256.115.345.222.345.047 0 .083 0 .162-.017l.13.773a1.434 1.434 0 0 1-.547.091c-.735 0-1.004-.476-1.004-1.246Zm2.44 0v-5.222h1.036v5.276c0 .256.115.345.223.345.047 0 .083 0 .162-.017l.13.773a1.44 1.44 0 0 1-.548.091c-.734 0-1.004-.476-1.004-1.246Zm2.146-1.069c0-1.438.997-2.324 2.038-2.324 1.195 0 1.826.865 1.826 2.1 0 .198-.023.396-.046.504h-2.807c.087.785.591 1.231 1.304 1.231.378 0 .702-.118 1.026-.32l.353.645c-.421.284-.954.48-1.516.48-1.22 0-2.178-.858-2.178-2.316Zm2.966-.426c0-.68-.301-1.095-.907-1.095-.515 0-.969.386-1.058 1.095h1.965Zm1.888 1.495v-5.222h1.037v5.276c0 .256.115.345.224.345.047 0 .083 0 .162-.017l.129.773a1.438 1.438 0 0 1-.547.091c-.734 0-1.005-.476-1.005-1.246Zm2.147-1.069c0-1.438.998-2.324 2.039-2.324 1.195 0 1.826.865 1.826 2.1 0 .198-.023.396-.046.504h-2.807c.087.785.591 1.231 1.304 1.231.378 0 .702-.118 1.026-.32l.353.645c-.421.284-.954.48-1.516.48-1.22 0-2.179-.858-2.179-2.316Zm2.967-.426c0-.68-.301-1.095-.907-1.095-.515 0-.969.386-1.059 1.095h1.966Zm3.468-.291c0-1.927 1.206-3.072 2.697-3.072a2.34 2.34 0 0 1 1.697.746l-.559.673c-.302-.303-.655-.511-1.116-.511-.958 0-1.646.81-1.646 2.132 0 1.342.634 2.156 1.62 2.156.523 0 .926-.241 1.257-.605l.559.656c-.478.554-1.091.857-1.855.857-1.48 0-2.654-1.084-2.654-3.032Zm5.166 1.735c0-.947.785-1.44 2.6-1.635-.014-.475-.205-.87-.803-.87-.44 0-.854.197-1.242.435l-.382-.692c.486-.306 1.113-.58 1.815-.58 1.106 0 1.65.681 1.65 1.913v2.618h-.85l-.08-.49h-.028c-.397.338-.85.598-1.372.598-.775 0-1.308-.526-1.308-1.297Zm2.6.004v-.994c-1.199.151-1.599.465-1.599.911 0 .39.267.562.638.562.36 0 .634-.176.962-.479Zm2.282.047v-5.222h1.037v5.276c0 .256.115.345.224.345.047 0 .083 0 .162-.017l.129.773c-.126.051-.3.091-.547.091-.735 0-1.005-.476-1.005-1.246Zm2.44 0v-5.222h1.036v5.276c0 .256.116.345.223.345.047 0 .083 0 .162-.017l.13.773a1.44 1.44 0 0 1-.548.091c-.734 0-1.004-.476-1.004-1.246Zm1.998.63.483-.66c.392.307.772.494 1.22.494.484 0 .71-.227.71-.53 0-.37-.479-.536-.95-.715-.58-.219-1.243-.552-1.243-1.29 0-.767.62-1.322 1.61-1.322.616 0 1.109.25 1.47.53l-.476.637c-.31-.226-.621-.385-.97-.385-.443 0-.654.213-.654.49 0 .35.446.482.925.66.598.222 1.268.51 1.268 1.335 0 .76-.602 1.372-1.718 1.372-.605 0-1.242-.26-1.675-.616Zm96.601-.92c0-1.927 1.22-3.072 2.787-3.072.835 0 1.408.367 1.778.746l-.557.673c-.296-.288-.642-.511-1.189-.511-1.044 0-1.746.81-1.746 2.132 0 1.342.622 2.156 1.804 2.156.328 0 .651-.094.839-.259v-1.271h-1.11v-.857h2.046v2.596c-.392.396-1.073.7-1.88.7-1.587 0-2.772-1.085-2.772-3.033Zm5.579.717c0-1.438.998-2.324 2.04-2.324 1.194 0 1.824.865 1.824 2.1 0 .198-.021.397-.045.504h-2.806c.086.785.59 1.231 1.303 1.231.378 0 .703-.118 1.026-.32l.353.645c-.421.284-.954.48-1.516.48-1.22 0-2.179-.858-2.179-2.316Zm2.968-.426c0-.68-.303-1.095-.907-1.095-.516 0-.97.386-1.059 1.095h1.966Zm1.888-1.789h.85l.078.598h.029c.396-.386.846-.707 1.452-.707.946 0 1.36.641 1.36 1.758v2.773h-1.037v-2.64c0-.727-.208-1-.688-1-.388 0-.644.19-1.007.55v3.09h-1.037v-4.422Zm4.748 2.215c0-1.474 1-2.324 2.102-2.324 1.103 0 2.104.85 2.104 2.324 0 1.465-1.001 2.315-2.104 2.315-1.101 0-2.102-.85-2.102-2.315Zm3.14 0c0-.887-.39-1.477-1.038-1.477-.647 0-1.037.59-1.037 1.477 0 .885.39 1.468 1.037 1.468.649 0 1.037-.583 1.037-1.468Zm2.049.716v-2.107h-.63v-.777l.684-.047.123-1.207h.86v1.207h1.127v.824h-1.127v2.106c0 .52.202.775.627.775a1.4 1.4 0 0 0 .461-.1l.176.763a2.87 2.87 0 0 1-.903.162c-1.02 0-1.398-.644-1.398-1.6Zm2.809 3.215.191-.802c.085.025.213.061.317.061.464 0 .735-.317.882-.76l.083-.277-1.739-4.368h1.052l.762 2.168c.134.392.26.828.39 1.249h.036c.112-.41.223-.846.338-1.25l.66-2.167h1l-1.598 4.624c-.368.995-.832 1.613-1.797 1.613-.241 0-.414-.036-.576-.09Zm4.74-6.146h.85l.079.472h.029c.373-.32.847-.58 1.332-.58 1.105 0 1.74.885 1.74 2.25 0 1.513-.904 2.388-1.888 2.388-.392 0-.777-.177-1.137-.486l.032.734v1.394h-1.037v-6.172Zm2.964 2.153c0-.883-.288-1.404-.962-1.404-.32 0-.623.162-.965.497v2.06c.317.27.63.367.886.367.59 0 1.04-.519 1.04-1.52Zm1.82.062c0-1.438.998-2.324 2.04-2.324 1.194 0 1.824.865 1.824 2.1 0 .198-.021.397-.045.504h-2.806c.086.785.59 1.231 1.302 1.231.38 0 .704-.118 1.027-.32l.353.645a2.75 2.75 0 0 1-1.516.48c-1.22 0-2.179-.858-2.179-2.316Zm2.968-.426c0-.68-.303-1.095-.907-1.095-.516 0-.97.386-1.059 1.095h1.966Zm1.448 2.125.482-.66c.393.307.773.494 1.221.494.483 0 .71-.227.71-.53 0-.37-.48-.536-.951-.715-.58-.219-1.242-.552-1.242-1.29 0-.767.619-1.322 1.61-1.322.615 0 1.109.25 1.468.53l-.475.637c-.31-.226-.62-.385-.968-.385-.446 0-.656.213-.656.49 0 .35.447.482.925.66.598.222 1.268.51 1.268 1.335 0 .76-.6 1.372-1.718 1.372-.605 0-1.242-.26-1.674-.616Zm5.715-1.042c0-1.835 2.719-1.982 2.719-3.19 0-.31-.143-.55-.48-.55-.369 0-.628.306-.628.756 0 1.015 1.24 2.384 2.407 3.164.477.32.942.547 1.326.631l-.26.847c-.53-.123-1.114-.398-1.687-.808-1.384-.989-2.656-2.615-2.656-3.827 0-.81.584-1.47 1.484-1.47.806 0 1.303.506 1.303 1.25 0 1.542-2.538 1.953-2.538 3.137 0 .547.432.914 1.016.914.449 0 .9-.258 1.285-.644.472-.49.835-1.13 1.048-1.912h.95c-.263.883-.673 1.69-1.281 2.388-.527.58-1.221.972-2.13.972-1.175 0-1.878-.731-1.878-1.657Zm-41.055 6.462h1.855c1.306 0 2.275.454 2.275 1.814 0 1.314-.972 1.91-2.24 1.91h-.846v2.164h-1.044v-5.888Zm1.804 2.888c.879 0 1.297-.35 1.297-1.074 0-.73-.458-.98-1.333-.98h-.724v2.054h.76Zm3.344-3.36h1.037v1.646l-.043.853c.37-.35.81-.67 1.415-.67.947 0 1.361.642 1.361 1.758v2.773h-1.037v-2.64c0-.728-.209-1.001-.687-1.001-.39 0-.645.19-1.01.55v3.09h-1.036V169.7Zm4.73 4.153c0-1.438.997-2.324 2.038-2.324 1.196 0 1.826.865 1.826 2.1 0 .198-.022.396-.045.504h-2.807c.087.785.59 1.231 1.304 1.231.378 0 .702-.118 1.026-.32l.352.644c-.42.286-.954.48-1.515.48-1.22 0-2.179-.857-2.179-2.315Zm2.967-.426c0-.68-.302-1.095-.907-1.095-.515 0-.969.386-1.059 1.095h1.966Zm1.888-1.789h.85l.078.597h.03c.396-.385.846-.706 1.45-.706.948 0 1.362.642 1.362 1.758v2.773h-1.037v-2.64c0-.728-.209-1.001-.687-1.001-.39 0-.645.19-1.01.55v3.09h-1.036v-4.421Zm4.747 2.215c0-1.474 1.003-2.324 2.104-2.324s2.103.85 2.103 2.324c0 1.464-1.001 2.315-2.103 2.315s-2.103-.85-2.103-2.315Zm3.141 0c0-.887-.388-1.477-1.037-1.477s-1.037.59-1.037 1.477c0 .885.389 1.468 1.037 1.468s1.037-.583 1.037-1.468Zm2.05.715v-2.106h-.63v-.777l.684-.047.122-1.207h.861v1.207h1.127v.824h-1.127v2.105c0 .52.201.776.626.776.152 0 .332-.05.461-.1l.177.763a2.87 2.87 0 0 1-.904.162c-1.019 0-1.397-.645-1.397-1.6Zm2.809 3.216.191-.803c.084.026.212.062.317.062.464 0 .734-.317.882-.76l.082-.277-1.739-4.368h1.052l.764 2.168c.132.392.258.828.388 1.249h.036c.112-.41.224-.846.34-1.25l.657-2.167h1.002l-1.6 4.623c-.366.996-.83 1.613-1.796 1.613a1.71 1.71 0 0 1-.576-.09Zm4.74-6.146h.85l.079.471h.028c.373-.32.847-.58 1.333-.58 1.105 0 1.74.886 1.74 2.251 0 1.513-.905 2.388-1.887 2.388-.393 0-.779-.177-1.14-.486l.034.734v1.394h-1.037v-6.172Zm2.963 2.153c0-.883-.288-1.404-.961-1.404-.32 0-.623.162-.965.497v2.06c.316.269.63.367.886.367.59 0 1.04-.519 1.04-1.52Zm1.821.062c0-1.438.997-2.324 2.038-2.324 1.196 0 1.826.865 1.826 2.1 0 .198-.022.396-.046.504h-2.806c.087.785.59 1.231 1.304 1.231.377 0 .702-.118 1.026-.32l.352.644c-.42.286-.954.48-1.515.48-1.22 0-2.179-.857-2.179-2.315Zm2.967-.426c0-.68-.302-1.095-.907-1.095-.515 0-.97.386-1.059 1.095h1.966Zm1.449 2.125.482-.66c.392.307.772.494 1.22.494.484 0 .71-.227.71-.53 0-.37-.48-.536-.95-.715-.58-.22-1.243-.552-1.243-1.29 0-.767.619-1.322 1.61-1.322.615 0 1.109.25 1.469.53l-.476.637c-.31-.226-.62-.385-.968-.385-.445 0-.656.212-.656.49 0 .348.447.482.926.659.598.223 1.268.51 1.268 1.336 0 .76-.602 1.372-1.718 1.372-.605 0-1.242-.26-1.675-.616ZM12.082 16.82l1.013-1.195c.703.669 1.645 1.12 2.557 1.12 1.103 0 1.71-.502 1.71-1.266 0-.808-.634-1.066-1.525-1.444l-1.34-.582c-.966-.401-1.984-1.167-1.984-2.6 0-1.564 1.381-2.766 3.295-2.766 1.146 0 2.256.474 3.024 1.25l-.895 1.104c-.623-.53-1.289-.842-2.129-.842-.93 0-1.536.434-1.536 1.151 0 .772.747 1.057 1.56 1.39l1.323.554c1.167.487 1.983 1.224 1.983 2.646 0 1.59-1.32 2.916-3.522 2.916a5.053 5.053 0 0 1-3.534-1.437Zm8.565-1.228v-3.51h-1.05v-1.296l1.14-.078.204-2.01h1.434v2.01h1.878v1.374h-1.878v3.507c0 .867.335 1.293 1.044 1.293.252 0 .551-.084.768-.168l.294 1.272c-.402.132-.915.27-1.506.27-1.698 0-2.328-1.073-2.328-2.664Zm4.446.505c0-1.578 1.308-2.4 4.332-2.725-.024-.792-.342-1.451-1.338-1.451-.732 0-1.421.329-2.07.725l-.637-1.152c.81-.51 1.855-.966 3.025-.966 1.843 0 2.748 1.134 2.748 3.187v4.361h-1.416l-.132-.816h-.048c-.66.564-1.416.996-2.286.996-1.29 0-2.178-.876-2.178-2.16Zm4.332.006v-1.657c-1.998.252-2.664.775-2.664 1.518 0 .651.444.936 1.062.936.6 0 1.055-.294 1.602-.797Zm3.804-5.395h1.415l.133 1.314h.048c.524-.96 1.305-1.494 2.093-1.494.375 0 .613.048.834.15l-.3 1.5a2.487 2.487 0 0 0-.755-.12c-.588 0-1.296.402-1.74 1.524v4.494h-1.728v-7.368Zm5.853 4.884v-3.51h-1.05v-1.296l1.14-.078.204-2.01h1.434v2.01h1.877v1.374H40.81v3.507c0 .867.336 1.293 1.043 1.293.252 0 .553-.084.769-.168l.294 1.272c-.403.132-.915.27-1.506.27-1.699 0-2.328-1.073-2.328-2.664Zm671.225 88.823h5.903v1.464h-4.164v2.514h3.529v1.463h-3.529v2.905h4.315v1.464h-6.054v-9.81Zm7.92 2.441h1.415l.133.997h.048c.66-.642 1.41-1.176 2.418-1.176 1.578 0 2.267 1.068 2.267 2.927v4.62h-1.727v-4.397c0-1.212-.349-1.668-1.147-1.668-.647 0-1.074.318-1.68.918v5.148h-1.727v-7.369Zm7.949 3.691c0-2.4 1.506-3.87 3.12-3.87.834 0 1.363.312 1.932.81l-.065-1.188v-2.67h1.727v10.596h-1.416l-.132-.798h-.048c-.545.546-1.301.977-2.093.977-1.836 0-3.025-1.427-3.025-3.857Zm4.987 1.601v-3.431c-.504-.45-1.002-.613-1.5-.613-.937 0-1.71.89-1.71 2.424 0 1.603.611 2.449 1.673 2.449.57 0 1.05-.252 1.537-.829Z"/>
  <g fill="#d1d3d4">
    <rect width="82.54" height="19.764" x="257.964" y="43.885" stroke="#fff" stroke-miterlimit="10" stroke-width="2.8" rx="9.271" ry="9.271"/>
    <rect width="82.54" height="19.764" x="257.964" y="79.032" stroke="#fff" stroke-miterlimit="10" stroke-width="2.706" rx="9.593" ry="9.593"/>
    <circle cx="272.072" cy="79.573" r="5.812"/>
    <circle cx="286.181" cy="64.702" r="5.812"/>
    <circle cx="300.291" cy="79.573" r="5.812"/>
    <circle cx="314.4" cy="64.702" r="5.812"/>
    <circle cx="328.509" cy="79.573" r="5.812"/>
  </g>
  <path fill="#231f20" d="M270.683 50.766h.849l1.999 5.908h-.797l-1.03-3.3a52.571 52.571 0 0 1-.592-1.991h-.036a41.04 41.04 0 0 1-.584 1.991l-1.042 3.3h-.766l2-5.908Zm-.948 3.507h2.72v.601h-2.72v-.6Zm4.525 1.522V50.26h.74v5.589c0 .226.098.316.207.316.043 0 .078 0 .162-.018l.1.566c-.105.038-.232.07-.427.07-.554 0-.783-.355-.783-.988Zm2.294 0V50.26h.74v5.589c0 .226.1.316.207.316.043 0 .079 0 .163-.018l.1.566c-.105.038-.232.07-.427.07-.554 0-.783-.355-.783-.988Zm1.97-1.304c0-1.424.96-2.302 1.968-2.302 1.116 0 1.746.802 1.746 2.054 0 .156-.014.313-.035.421h-2.947c.053.927.62 1.527 1.454 1.527.42 0 .765-.134 1.09-.35l.264.487c-.384.251-.85.454-1.444.454-1.167 0-2.096-.853-2.096-2.29Zm3.06-.357c0-.877-.395-1.355-1.08-1.355-.615 0-1.165.494-1.254 1.355h2.334Zm1.729 1.661V50.26h.74v5.589c0 .226.099.316.207.316.043 0 .078 0 .162-.018l.101.566c-.106.038-.232.07-.427.07-.554 0-.783-.355-.783-.988Zm1.97-1.304c0-1.424.96-2.302 1.967-2.302 1.117 0 1.747.802 1.747 2.054 0 .156-.014.313-.036.421h-2.946c.053.927.62 1.527 1.454 1.527.42 0 .765-.134 1.09-.35l.264.487c-.384.251-.85.454-1.445.454-1.167 0-2.095-.853-2.095-2.29Zm3.06-.357c0-.877-.395-1.355-1.08-1.355-.615 0-1.165.494-1.255 1.355h2.334Zm3.597-3.368h1.48c1.816 0 2.79 1.055 2.79 2.932s-.974 2.976-2.758 2.976h-1.511v-5.908Zm1.423 5.292c1.382 0 2.07-.867 2.07-2.36s-.688-2.316-2.07-2.316h-.67v4.676h.67Zm3.717-1.567c0-1.424.96-2.302 1.968-2.302 1.117 0 1.746.802 1.746 2.054 0 .156-.013.313-.035.421h-2.946c.053.927.62 1.527 1.454 1.527.42 0 .765-.134 1.089-.35l.265.487c-.384.251-.85.454-1.445.454-1.167 0-2.095-.853-2.095-2.29Zm3.06-.357c0-.877-.394-1.355-1.079-1.355-.615 0-1.165.494-1.255 1.355h2.334Zm1.24-1.794.627-.042h1.635v.603h-2.262v-.561Zm.594-.734c0-.89.405-1.454 1.282-1.454.266 0 .529.068.727.15l-.156.566a1.2 1.2 0 0 0-.496-.113c-.414 0-.617.289-.617.854v5.065h-.74v-5.068Zm2.37-.686c0-.291.224-.479.512-.479s.512.188.512.479c0 .28-.224.478-.512.478s-.512-.199-.512-.478Zm.136 1.378h.74v4.376h-.74v-4.376Zm2.214 0h.612l.063.63h.024c.417-.41.867-.739 1.468-.739.922 0 1.336.596 1.336 1.712v2.773h-.74v-2.677c0-.815-.248-1.164-.827-1.164-.447 0-.756.229-1.196.672v3.169h-.74v-4.376Zm4.787-1.378c0-.291.224-.479.512-.479s.511.188.511.479c0 .28-.223.478-.511.478s-.512-.199-.512-.478Zm.136 1.378h.74v4.376h-.74v-4.376Zm2.343 3.023v-2.42h-.65v-.561l.684-.042.089-1.228h.618v1.228h1.185v.603h-1.185v2.433c0 .534.173.845.676.845.156 0 .357-.059.5-.117l.142.558c-.245.083-.538.162-.811.162-.932 0-1.248-.59-1.248-1.46Zm2.777-4.401c0-.291.223-.479.512-.479s.511.188.511.479c0 .28-.223.478-.511.478s-.512-.199-.512-.478Zm.136 1.378h.74v4.376h-.74v-4.376Zm1.888 2.193c0-1.46.955-2.302 2.029-2.302 1.072 0 2.027.842 2.027 2.302 0 1.45-.955 2.291-2.027 2.291-1.074 0-2.029-.842-2.029-2.29Zm3.291 0c0-1.003-.51-1.685-1.262-1.685-.753 0-1.263.682-1.263 1.685s.51 1.674 1.263 1.674c.752 0 1.262-.67 1.262-1.674Zm1.912-2.193h.613l.062.63h.025c.417-.41.867-.739 1.467-.739.922 0 1.336.596 1.336 1.712v2.773h-.74v-2.677c0-.815-.247-1.164-.826-1.164-.447 0-.757.229-1.196.672v3.169h-.74v-4.376Zm4.438 3.877.366-.488c.38.306.766.518 1.291.518.575 0 .86-.307.86-.68 0-.45-.516-.649-1-.829-.614-.224-1.305-.526-1.305-1.264 0-.7.56-1.243 1.509-1.243.544 0 1.021.224 1.36.493l-.354.474c-.301-.222-.61-.39-.998-.39-.551 0-.805.295-.805.628 0 .417.475.575.971.76.631.237 1.334.493 1.334 1.326 0 .71-.563 1.302-1.596 1.302a2.628 2.628 0 0 1-1.633-.607Z"/>
  <path fill="#fff" d="M254.471 23.14h1.192l2.03 3.674.676 1.396h.04c-.056-.676-.148-1.504-.148-2.231V23.14h1.104v6.536h-1.192l-2.03-3.68-.677-1.39h-.04c.056.692.149 1.48.149 2.207v2.863h-1.104V23.14Zm6.196 5.217c0-1.051.872-1.598 2.886-1.814-.015-.528-.227-.968-.89-.968-.489 0-.949.22-1.38.484l-.424-.768c.54-.34 1.235-.644 2.015-.644 1.227 0 1.83.756 1.83 2.124v2.906h-.943l-.088-.544h-.032c-.44.376-.943.664-1.522.664-.86 0-1.452-.584-1.452-1.44Zm2.886.004v-1.103c-1.33.168-1.774.515-1.774 1.012 0 .433.296.624.707.624.4 0 .704-.197 1.067-.533Zm2.537-3.593h.945l.088.67h.03c.417-.435.892-.79 1.509-.79.72 0 1.129.328 1.354.88.47-.5.956-.88 1.58-.88 1.035 0 1.515.711 1.515 1.95v3.079h-1.152v-2.93c0-.809-.24-1.112-.755-1.112-.312 0-.648.2-1.028.612v3.43h-1.151v-2.93c0-.809-.24-1.112-.755-1.112-.305 0-.648.2-1.028.612v3.43h-1.152v-4.91Zm8.107 2.459c0-1.596 1.107-2.58 2.262-2.58 1.329 0 2.028.96 2.028 2.332 0 .22-.025.439-.05.56h-3.116c.096.87.655 1.366 1.447 1.366.419 0 .78-.132 1.139-.355l.392.715a3.043 3.043 0 0 1-1.683.532c-1.356 0-2.42-.951-2.42-2.57Zm3.295-.473c0-.755-.336-1.215-1.008-1.215-.571 0-1.075.428-1.176 1.215h2.184Zm1.798.473c0-1.6 1.004-2.58 2.08-2.58.555 0 .907.208 1.287.54l-.044-.791v-1.78h1.151v7.06h-.943l-.088-.53h-.032c-.364.363-.868.65-1.395.65-1.223 0-2.015-.95-2.015-2.57Zm3.323 1.067v-2.287c-.336-.3-.667-.408-1-.408-.623 0-1.139.591-1.139 1.615 0 1.067.408 1.632 1.115 1.632.38 0 .7-.168 1.024-.552Zm5.997-5.154h1.36l2.13 6.537h-1.227l-.997-3.479c-.207-.691-.399-1.436-.59-2.154h-.04a47.871 47.871 0 0 1-.58 2.154l-1.003 3.479h-1.184l2.13-6.536Zm-.872 3.856h3.079v.91h-3.08v-.91Zm5.012 1.417v-5.797h1.152v5.858c0 .283.128.383.248.383.052 0 .092 0 .18-.02l.143.86c-.14.056-.33.1-.607.1-.816 0-1.115-.528-1.115-1.384Zm2.71 0v-5.797h1.152v5.858c0 .283.128.383.248.383.052 0 .092 0 .18-.02l.143.86c-.14.056-.33.1-.607.1-.816 0-1.116-.528-1.116-1.384Zm2.386-1.186c0-1.596 1.108-2.58 2.263-2.58 1.328 0 2.027.96 2.027 2.332 0 .22-.024.439-.05.56h-3.116c.096.87.655 1.366 1.447 1.366.42 0 .78-.132 1.14-.355l.392.715a3.043 3.043 0 0 1-1.684.532c-1.355 0-2.419-.951-2.419-2.57Zm3.295-.473c0-.755-.336-1.215-1.008-1.215-.571 0-1.075.428-1.175 1.215h2.183Zm2.099 1.659v-5.797h1.151v5.858c0 .283.128.383.248.383.052 0 .092 0 .18-.02l.144.86c-.14.056-.332.1-.607.1-.816 0-1.116-.528-1.116-1.384Zm2.386-1.186c0-1.596 1.108-2.58 2.263-2.58 1.327 0 2.027.96 2.027 2.332 0 .22-.024.439-.05.56h-3.116c.095.87.656 1.366 1.447 1.366.42 0 .78-.132 1.14-.355l.391.715a3.043 3.043 0 0 1-1.683.532c-1.355 0-2.419-.951-2.419-2.57Zm3.294-.473c0-.755-.336-1.215-1.007-1.215-.572 0-1.076.428-1.175 1.215h2.182Zm4.2-3.614h1.311l1.155 3.195c.144.415.277.855.42 1.283h.04c.144-.428.268-.868.412-1.283l1.131-3.194h1.312v6.536h-1.064v-2.99c0-.604.092-1.474.148-2.08h-.04l-.528 1.52-1.075 2.936h-.687l-1.08-2.936-.52-1.52h-.04c.057.606.149 1.476.149 2.08v2.99h-1.044V23.14Zm7.087 5.217c0-1.051.87-1.598 2.885-1.814-.015-.528-.227-.968-.89-.968-.489 0-.949.22-1.38.484l-.424-.768c.54-.34 1.235-.644 2.015-.644 1.227 0 1.83.756 1.83 2.124v2.906h-.943l-.088-.544h-.032c-.44.376-.943.664-1.522.664-.86 0-1.451-.584-1.451-1.44Zm2.885.004v-1.103c-1.33.168-1.774.515-1.774 1.012 0 .433.296.624.707.624.4 0 .704-.197 1.067-.533Zm2.55-.34v-2.338h-.7v-.864l.76-.051.136-1.34h.955v1.34h1.251v.915h-1.25v2.337c0 .578.223.86.695.86.168 0 .368-.055.512-.11l.196.847c-.268.088-.61.18-1.004.18-1.131 0-1.55-.716-1.55-1.776Zm2.954-.794c0-1.636 1.155-2.58 2.463-2.58a2.1 2.1 0 0 1 1.436.552l-.56.748c-.26-.228-.508-.36-.816-.36-.791 0-1.34.655-1.34 1.64 0 .983.54 1.63 1.304 1.63.384 0 .736-.188 1.015-.423l.468.76a2.424 2.424 0 0 1-1.603.603c-1.34 0-2.367-.943-2.367-2.57Zm4.944-4.611h1.15v1.827l-.047.948c.412-.388.9-.744 1.571-.744 1.052 0 1.512.712 1.512 1.952v3.078h-1.151v-2.93c0-.809-.233-1.112-.764-1.112-.432 0-.716.212-1.12.612v3.43h-1.151v-7.06Zm5.256 4.611c0-1.596 1.108-2.58 2.263-2.58 1.327 0 2.026.96 2.026 2.332 0 .22-.023.439-.05.56h-3.116c.096.87.657 1.366 1.448 1.366.42 0 .779-.132 1.14-.355l.391.715a3.043 3.043 0 0 1-1.683.532c-1.355 0-2.419-.951-2.419-2.57Zm3.294-.473c0-.755-.336-1.215-1.007-1.215-.572 0-1.076.428-1.175 1.215h2.182Zm2.1-1.986h.943l.088.875h.032c.35-.64.87-.996 1.396-.996.249 0 .407.033.556.1l-.2 1c-.172-.048-.3-.08-.505-.08-.391 0-.863.268-1.159 1.016v2.994h-1.151v-4.91Z"/>
  <rect width="115.557" height="93.76" x="381.666" y="15.71" fill="#fff" stroke="#92278f" stroke-miterlimit="10" stroke-width="4" rx="19.779" ry="19.779"/>
  <path fill="#92278f" d="M381.67 35.507c0-10.878 8.901-19.779 19.78-19.779h75.999c10.878 0 19.779 8.9 19.779 19.779"/>
  <path fill="#fff" d="M415.102 21.929h2.06c1.45 0 2.526.504 2.526 2.014 0 1.457-1.08 2.12-2.487 2.12h-.94v2.402h-1.159v-6.536Zm2.003 3.206c.976 0 1.44-.388 1.44-1.192 0-.811-.508-1.088-1.48-1.088h-.804v2.28h.844Zm3.717-3.731h1.151v1.827l-.048.948c.412-.388.9-.743 1.572-.743 1.051 0 1.511.711 1.511 1.95v3.079h-1.151v-2.93c0-.808-.232-1.112-.764-1.112-.431 0-.716.212-1.12.612v3.43h-1.151v-7.06Zm5.257 4.611c0-1.596 1.107-2.58 2.262-2.58 1.327 0 2.027.96 2.027 2.332 0 .22-.024.44-.05.56h-3.116c.095.87.656 1.366 1.447 1.366.42 0 .78-.131 1.14-.355l.391.715a3.043 3.043 0 0 1-1.682.532c-1.356 0-2.42-.951-2.42-2.57Zm3.294-.473c0-.755-.336-1.215-1.008-1.215-.572 0-1.075.428-1.175 1.215h2.183Zm2.099-1.986h.944l.087.663h.033c.44-.428.94-.783 1.611-.783 1.05 0 1.51.711 1.51 1.95v3.079h-1.15v-2.93c0-.808-.232-1.112-.764-1.112-.432 0-.716.212-1.12.612v3.43h-1.15v-4.91Zm5.277 2.459c0-1.636 1.11-2.58 2.335-2.58 1.222 0 2.333.944 2.333 2.58 0 1.627-1.11 2.57-2.333 2.57-1.224 0-2.335-.943-2.335-2.57Zm3.486 0c0-.985-.433-1.64-1.152-1.64-.72 0-1.15.655-1.15 1.64 0 .983.43 1.63 1.15 1.63s1.152-.647 1.152-1.63Zm2.279.795v-2.34h-.7v-.863l.76-.051.136-1.34h.956v1.34h1.25v.915h-1.25v2.337c0 .578.223.86.695.86.168 0 .368-.055.512-.11l.196.847c-.268.088-.61.18-1.004.18-1.13 0-1.55-.716-1.55-1.775Zm3.122 3.57.212-.892c.094.029.236.069.352.069.515 0 .815-.353.98-.844l.091-.308-1.93-4.85h1.166l.848 2.407c.148.436.288.92.432 1.388h.04c.124-.456.248-.94.376-1.388l.731-2.406h1.111l-1.774 5.132c-.408 1.106-.924 1.791-1.995 1.791-.268 0-.46-.04-.64-.1Zm5.266-6.824h.943l.088.523h.032c.414-.355.94-.643 1.48-.643 1.226 0 1.93.983 1.93 2.499 0 1.678-1.003 2.65-2.094 2.65-.437 0-.864-.196-1.264-.54l.036.815v1.548h-1.151v-6.852Zm3.29 2.39c0-.98-.32-1.56-1.067-1.56-.356 0-.692.181-1.072.552v2.288c.352.3.7.408.984.408.655 0 1.155-.576 1.155-1.688Zm2.026.069c0-1.596 1.108-2.58 2.263-2.58 1.327 0 2.026.96 2.026 2.332 0 .22-.023.44-.05.56h-3.116c.096.87.657 1.366 1.448 1.366.42 0 .779-.131 1.14-.355l.39.715a3.043 3.043 0 0 1-1.682.532c-1.355 0-2.419-.951-2.419-2.57Zm3.294-.473c0-.755-.336-1.215-1.008-1.215-.57 0-1.075.428-1.174 1.215h2.182Zm2.1-1.986h.943l.088.875h.032c.35-.64.87-.995 1.396-.995.249 0 .407.032.555.1l-.2 1c-.172-.049-.3-.08-.504-.08-.391 0-.863.267-1.159 1.015v2.994h-1.151v-4.91Z"/>
  <rect width="115.557" height="93.76" x="516.107" y="15.793" fill="#fff" stroke="#ee2a7b" stroke-miterlimit="10" stroke-width="4" rx="19.779" ry="19.779"/>
  <path fill="#ee2a7b" d="M516.107 35.572c0-10.879 8.9-19.78 19.78-19.78h75.998c10.879 0 19.78 8.901 19.78 19.78"/>
  <path fill="#fff" d="M555.709 21.994h2.203c1.359 0 2.406.48 2.406 1.939 0 1.405-1.047 2.043-2.406 2.043h-1.044v2.554h-1.16v-6.536Zm2.083 3.054c.895 0 1.383-.371 1.383-1.115 0-.751-.488-1.012-1.383-1.012h-.924v2.127h.924Zm-.098.618.839-.691 2.04 3.555h-1.302l-1.577-2.864Zm3.411.414c0-1.596 1.107-2.579 2.263-2.579 1.327 0 2.026.96 2.026 2.331 0 .22-.023.44-.05.56h-3.116c.096.87.656 1.367 1.447 1.367.42 0 .78-.132 1.14-.356l.392.715a3.043 3.043 0 0 1-1.683.532c-1.356 0-2.419-.95-2.419-2.57Zm3.294-.473c0-.754-.336-1.214-1.008-1.214-.571 0-1.075.427-1.175 1.214h2.183Zm2.1-1.986h.943l.088.524h.032c.414-.356.94-.644 1.48-.644 1.226 0 1.93.983 1.93 2.499 0 1.679-1.004 2.65-2.095 2.65-.436 0-.864-.196-1.263-.54l.036.816v1.548h-1.151V23.62Zm3.29 2.39c0-.979-.32-1.559-1.068-1.559-.355 0-.691.18-1.071.552v2.287c.351.3.7.408.983.408.656 0 1.156-.576 1.156-1.687Zm2.026.069c0-1.636 1.111-2.579 2.335-2.579 1.223 0 2.334.943 2.334 2.58 0 1.626-1.111 2.57-2.334 2.57-1.224 0-2.335-.944-2.335-2.57Zm3.486 0c0-.984-.432-1.64-1.151-1.64-.72 0-1.151.656-1.151 1.64 0 .983.431 1.63 1.15 1.63.72 0 1.152-.647 1.152-1.63Zm2.327-2.459h.945l.088.875h.03c.351-.64.871-.995 1.396-.995.25 0 .409.032.556.1l-.2 1c-.172-.048-.3-.08-.503-.08-.393 0-.864.267-1.16 1.015v2.994h-1.152v-4.909Zm3.902 3.254v-2.339h-.7v-.863l.76-.052.136-1.34h.955v1.34h1.252v.915h-1.252v2.337c0 .578.225.861.696.861.168 0 .368-.055.512-.111l.195.848c-.267.088-.609.18-1.002.18-1.132 0-1.552-.716-1.552-1.776Zm2.955-.795c0-1.596 1.107-2.579 2.263-2.579 1.327 0 2.026.96 2.026 2.331 0 .22-.023.44-.05.56h-3.116c.096.87.656 1.367 1.447 1.367.42 0 .78-.132 1.14-.356l.391.715a3.043 3.043 0 0 1-1.682.532c-1.356 0-2.42-.95-2.42-2.57Zm3.294-.473c0-.754-.336-1.214-1.008-1.214-.571 0-1.075.427-1.175 1.214h2.183Zm2.099-1.986h.944l.088.875h.032c.35-.64.869-.995 1.395-.995.25 0 .408.032.556.1l-.2 1c-.172-.048-.3-.08-.504-.08-.392 0-.863.267-1.16 1.015v2.994h-1.15v-4.909Z"/>
  <path fill="#92278f" d="M433.575 110.575h11.74v17.285h-11.74z"/>
  <path fill="none" stroke="#fff" stroke-linecap="round" stroke-miterlimit="10" stroke-width="3" d="M652.979 69.348h-19.315"/>
  <path fill="#fff" d="M652.564 72.446V66.25l3.097 3.098-3.097 3.098z"/>
  <path fill="none" stroke="#fff" stroke-linecap="round" stroke-miterlimit="10" stroke-width="3" d="M439.445 113.795v10.289"/>
  <path fill="#fff" d="M442.543 114.211h-6.196l3.098-3.098 3.098 3.098z"/>
  <rect width="82.54" height="18.46" x="398.175" y="79.684" fill="#d1d3d4" stroke="#fff" stroke-miterlimit="10" stroke-width="2.706" rx="8.959" ry="8.959"/>
  <rect width="105.884" height="19.764" x="386.382" y="43.885" fill="#d1d3d4" stroke="#fff" stroke-miterlimit="10" stroke-width="2.706" rx="9.882" ry="9.882"/>
  <circle cx="412.282" cy="62.779" r="5.812" fill="#d1d3d4"/>
  <circle cx="426.392" cy="79.65" r="5.812" fill="#d1d3d4"/>
  <circle cx="440.501" cy="62.779" r="5.812" fill="#d1d3d4"/>
  <circle cx="454.611" cy="79.65" r="5.812" fill="#d1d3d4"/>
  <circle cx="468.72" cy="62.779" r="5.812" fill="#d1d3d4"/>
  <path fill="#231f20" d="M411.458 86.001h.848l2 5.908h-.798l-1.03-3.3a52.571 52.571 0 0 1-.592-1.99h-.036a41.04 41.04 0 0 1-.584 1.99l-1.042 3.3h-.765l1.999-5.908Zm-.949 3.508h2.721v.6h-2.72v-.6Zm4.525 1.521v-5.535h.74v5.589c0 .227.099.316.207.316.043 0 .078 0 .162-.017l.1.565c-.105.038-.232.07-.426.07-.555 0-.783-.355-.783-.988Zm2.295 0v-5.535h.74v5.589c0 .227.098.316.207.316.043 0 .078 0 .162-.017l.1.565c-.105.038-.232.07-.426.07-.555 0-.783-.355-.783-.988Zm1.969-1.303c0-1.424.96-2.302 1.968-2.302 1.116 0 1.746.802 1.746 2.054 0 .156-.013.312-.035.42h-2.946c.052.927.619 1.528 1.454 1.528.42 0 .765-.135 1.089-.35l.264.486c-.383.251-.85.455-1.444.455-1.167 0-2.096-.854-2.096-2.291Zm3.06-.358c0-.877-.395-1.354-1.08-1.354-.614 0-1.164.494-1.254 1.354h2.334Zm1.729 1.661v-5.535h.74v5.589c0 .227.1.316.208.316.043 0 .078 0 .162-.017l.1.565c-.105.038-.232.07-.426.07-.555 0-.784-.355-.784-.988Zm1.97-1.303c0-1.424.96-2.302 1.968-2.302 1.116 0 1.746.802 1.746 2.054 0 .156-.014.312-.035.42h-2.946c.052.927.619 1.528 1.454 1.528.42 0 .764-.135 1.089-.35l.264.486c-.384.251-.85.455-1.444.455-1.167 0-2.096-.854-2.096-2.291Zm3.06-.358c0-.877-.395-1.354-1.08-1.354-.615 0-1.164.494-1.254 1.354h2.334Zm3.598-3.368h3.408v.636h-2.656v1.993h2.252v.636h-2.252v2.643h-.752v-5.908Zm4.175 4.305v-2.773h.74v2.677c0 .815.246 1.164.826 1.164.447 0 .756-.222 1.17-.737v-3.104h.742v4.376h-.613l-.062-.685h-.025c-.405.477-.842.794-1.443.794-.922 0-1.336-.596-1.336-1.712Zm4.953-2.773h.613l.062.631h.024c.417-.41.868-.74 1.468-.74.922 0 1.336.596 1.336 1.713v2.772h-.74v-2.677c0-.815-.247-1.164-.826-1.164-.447 0-.757.229-1.196.672v3.17h-.74v-4.377Zm4.599 2.194c0-1.46.986-2.302 2.105-2.302.575 0 .973.237 1.28.513l-.378.49c-.255-.23-.525-.387-.868-.387-.792 0-1.373.683-1.373 1.686s.548 1.673 1.353 1.673c.4 0 .754-.194 1.027-.435l.322.496c-.394.35-.89.557-1.415.557-1.165 0-2.053-.842-2.053-2.291Zm4.468.83v-2.42h-.65v-.562l.684-.042.089-1.227h.618v1.227h1.185v.604h-1.185v2.432c0 .535.173.845.677.845.155 0 .356-.059.499-.117l.142.558c-.245.083-.538.163-.811.163-.932 0-1.247-.591-1.247-1.461Zm2.777-4.402c0-.29.224-.478.512-.478s.511.187.511.478c0 .28-.223.479-.511.479s-.512-.2-.512-.479Zm.136 1.378h.74v4.376h-.74v-4.376Zm1.888 2.194c0-1.46.956-2.302 2.029-2.302 1.072 0 2.027.842 2.027 2.302 0 1.449-.955 2.29-2.027 2.29-1.073 0-2.029-.841-2.029-2.29Zm3.291 0c0-1.003-.51-1.686-1.262-1.686-.753 0-1.263.683-1.263 1.686s.51 1.673 1.263 1.673c.752 0 1.262-.67 1.262-1.673Zm1.913-2.194h.612l.062.631h.025c.417-.41.867-.74 1.468-.74.921 0 1.335.596 1.335 1.713v2.772h-.74v-2.677c0-.815-.247-1.164-.826-1.164-.447 0-.757.229-1.196.672v3.17h-.74v-4.377Zm4.437 3.877.366-.488c.38.307.766.518 1.291.518.575 0 .86-.306.86-.68 0-.45-.516-.649-1-.828-.614-.225-1.305-.527-1.305-1.265 0-.7.56-1.242 1.509-1.242.545 0 1.021.223 1.36.492l-.353.475c-.302-.223-.612-.39-.998-.39-.552 0-.806.294-.806.627 0 .417.475.575.972.76.63.237 1.334.494 1.334 1.327 0 .71-.564 1.302-1.597 1.302a2.628 2.628 0 0 1-1.633-.608Z"/>
  <g fill="#d1d3d4">
    <rect width="82.54" height="19.764" x="118.089" y="43.885" stroke="#fff" stroke-miterlimit="10" stroke-width="2.8" rx="9.271" ry="9.271"/>
    <rect width="82.54" height="18.46" x="118.089" y="79.684" stroke="#fff" stroke-miterlimit="10" stroke-width="2.615" rx="9.23" ry="9.23"/>
    <circle cx="132.197" cy="79.25" r="5.812"/>
    <circle cx="146.306" cy="62.379" r="5.812"/>
    <circle cx="160.416" cy="79.25" r="5.812"/>
    <circle cx="174.525" cy="62.379" r="5.812"/>
    <circle cx="188.634" cy="79.25" r="5.812"/>
  </g>
  <path fill="#231f20" d="M128.689 85.894h.776l2.139 3.713.638 1.224h.036c-.038-.596-.096-1.262-.096-1.88v-3.057h.714v5.908h-.776l-2.139-3.718-.638-1.22h-.036c.038.598.096 1.228.096 1.846v3.092h-.714v-5.908Zm5.429 3.726c0-1.46.955-2.303 2.028-2.303 1.072 0 2.027.842 2.027 2.302 0 1.45-.955 2.291-2.027 2.291-1.073 0-2.028-.842-2.028-2.29Zm3.29 0c0-1.004-.51-1.686-1.262-1.686-.753 0-1.263.682-1.263 1.685s.51 1.674 1.263 1.674c.752 0 1.263-.67 1.263-1.674Zm1.912-2.194h.613l.063.797h.024c.305-.556.752-.906 1.244-.906.194 0 .33.025.467.09l-.138.65a1.22 1.22 0 0 0-.425-.072c-.37 0-.811.267-1.107 1.007v2.81h-.74v-4.376Zm3.123 0h.612l.063.635h.024c.383-.415.84-.744 1.361-.744.67 0 1.029.32 1.208.834.456-.492.912-.834 1.444-.834.9 0 1.332.595 1.332 1.712v2.773h-.741v-2.677c0-.815-.258-1.164-.814-1.164-.34 0-.692.222-1.097.672v3.169h-.74v-2.677c0-.815-.259-1.164-.815-1.164-.327 0-.692.222-1.097.672v3.169h-.74v-4.376Zm7.189 3.24c0-.954.824-1.43 2.689-1.633-.002-.563-.189-1.105-.904-1.105-.506 0-.961.239-1.305.468l-.29-.507c.403-.264 1.017-.572 1.72-.572 1.067 0 1.519.71 1.519 1.8v2.685h-.611l-.063-.524h-.025c-.417.347-.904.632-1.447.632-.733 0-1.283-.455-1.283-1.244Zm2.689.068V89.52c-1.467.176-1.963.536-1.963 1.094 0 .497.338.7.768.7.421 0 .771-.206 1.195-.579Zm2.119.189v-5.535h.74v5.589c0 .226.099.316.207.316.043 0 .078 0 .162-.018l.1.566c-.105.038-.232.07-.426.07-.555 0-.783-.355-.783-.988Zm2.16-4.875c0-.291.223-.479.51-.479s.513.188.513.479c0 .28-.224.478-.512.478s-.512-.199-.512-.478Zm.135 1.378h.74v4.376h-.74v-4.376Zm1.755 3.98 2.303-3.377h-2.047v-.603h2.984v.395l-2.303 3.377h2.38v.604h-3.316v-.396Zm3.869-1.786c0-1.425.96-2.303 1.968-2.303 1.116 0 1.746.802 1.746 2.054 0 .156-.014.313-.035.421h-2.947c.053.927.62 1.527 1.454 1.527.42 0 .765-.134 1.09-.35l.264.487c-.384.251-.85.454-1.444.454-1.167 0-2.096-.853-2.096-2.29Zm3.06-.358c0-.877-.395-1.355-1.08-1.355-.615 0-1.165.494-1.255 1.355h2.334Zm3.257 1.404c0-.954.824-1.43 2.689-1.633-.002-.563-.189-1.105-.904-1.105-.506 0-.961.239-1.305.468l-.29-.507c.403-.264 1.017-.572 1.72-.572 1.067 0 1.519.71 1.519 1.8v2.685h-.611l-.063-.524h-.025c-.417.347-.905.632-1.447.632-.733 0-1.283-.455-1.283-1.244Zm2.689.068V89.52c-1.467.176-1.963.536-1.963 1.094 0 .497.338.7.767.7.423 0 .772-.206 1.196-.579Zm2.119.189v-5.535h.74v5.589c0 .226.099.316.207.316.043 0 .078 0 .162-.018l.1.566c-.105.038-.232.07-.426.07-.555 0-.783-.355-.783-.988Zm2.295 0v-5.535h.74v5.589c0 .226.099.316.207.316.043 0 .078 0 .162-.018l.1.566c-.105.038-.232.07-.426.07-.555 0-.783-.355-.783-.988Zm1.97-1.303c0-1.425.96-2.303 1.967-2.303 1.117 0 1.746.802 1.746 2.054 0 .156-.013.313-.035.421h-2.946c.053.927.62 1.527 1.454 1.527.42 0 .765-.134 1.089-.35l.265.487c-.384.251-.85.454-1.445.454-1.167 0-2.095-.853-2.095-2.29Zm3.06-.358c0-.877-.395-1.355-1.08-1.355-.615 0-1.165.494-1.255 1.355h2.334Zm1.729 1.661v-5.535h.74v5.589c0 .226.098.316.207.316.043 0 .078 0 .162-.018l.1.566c-.105.038-.232.07-.426.07-.555 0-.783-.355-.783-.988Zm1.969-1.303c0-1.425.96-2.303 1.968-2.303 1.116 0 1.746.802 1.746 2.054 0 .156-.013.313-.035.421h-2.946c.052.927.619 1.527 1.454 1.527.42 0 .764-.134 1.089-.35l.264.487c-.383.251-.85.454-1.444.454-1.167 0-2.096-.853-2.096-2.29Zm3.06-.358c0-.877-.395-1.355-1.08-1.355-.614 0-1.164.494-1.254 1.355h2.334Zm1.244 2.041.366-.489c.38.307.766.519 1.291.519.575 0 .86-.307.86-.68 0-.45-.516-.65-1-.829-.614-.224-1.305-.526-1.305-1.264 0-.7.56-1.243 1.509-1.243.545 0 1.021.224 1.36.493l-.353.474c-.302-.222-.612-.39-.998-.39-.552 0-.806.294-.806.627 0 .417.475.576.972.76.63.239 1.334.494 1.334 1.327 0 .71-.564 1.302-1.597 1.302a2.628 2.628 0 0 1-1.633-.607Zm-64.564-40.537h3.407v.635h-2.655v1.994h2.251v.635H125v2.644h-.752v-5.908Zm4.241.154c0-.291.223-.479.512-.479s.511.188.511.479c0 .28-.223.478-.511.478s-.512-.199-.512-.478Zm.136 1.378h.74v4.376h-.74v-4.376Zm2.213 3.497V50.26h.74v5.589c0 .226.1.316.208.316.043 0 .078 0 .162-.018l.1.566c-.105.038-.232.07-.426.07-.555 0-.784-.355-.784-.988Zm2.425-.474v-2.42h-.651v-.561l.684-.042.09-1.228h.617v1.228h1.186v.603h-1.186v2.433c0 .534.173.845.677.845.155 0 .357-.059.5-.117l.142.558c-.245.083-.538.162-.812.162-.931 0-1.247-.59-1.247-1.46Zm2.461-.83c0-1.424.96-2.302 1.968-2.302 1.116 0 1.746.802 1.746 2.054 0 .156-.014.313-.035.421h-2.946c.052.927.619 1.527 1.454 1.527.42 0 .764-.134 1.089-.35l.264.487c-.384.251-.85.454-1.444.454-1.167 0-2.096-.853-2.096-2.29Zm3.06-.357c0-.877-.395-1.355-1.08-1.355-.615 0-1.164.494-1.254 1.355h2.334Zm1.729-1.836h.613l.062.797h.024c.305-.556.752-.906 1.245-.906.193 0 .329.025.466.09l-.137.65a1.22 1.22 0 0 0-.425-.072c-.37 0-.812.267-1.108 1.007v2.81h-.74v-4.376Zm4.992-1.532h1.688c1.324 0 2.217.445 2.217 1.739 0 1.244-.889 1.825-2.18 1.825h-.973v2.344h-.752v-5.908Zm1.63 2.954c1.033 0 1.525-.374 1.525-1.215 0-.853-.524-1.13-1.562-1.13h-.84v2.345h.876Zm3.121.005c0-1.906 1.146-3.068 2.712-3.068a2.29 2.29 0 0 1 1.703.729l-.412.489c-.299-.309-.677-.557-1.271-.557-1.19 0-1.955.914-1.955 2.387 0 1.485.702 2.416 1.963 2.416.423 0 .83-.127 1.064-.348v-1.538h-1.25v-.623h1.936v2.484c-.38.396-1.028.686-1.822.686-1.558 0-2.668-1.138-2.668-3.057Zm6.644.665-1.323-2.092h.802l.586.96c.134.241.284.488.43.728h.034c.133-.24.264-.487.396-.728l.535-.96h.771l-1.324 2.17 1.43 2.206h-.803l-.644-1.018a17.102 17.102 0 0 0-.476-.785h-.036c-.15.252-.292.519-.443.785l-.593 1.018h-.772l1.43-2.284Zm5.06-2.092h.612l.062.505h.025c.395-.33.887-.614 1.394-.614 1.131 0 1.736.878 1.736 2.23 0 1.492-.896 2.363-1.896 2.363-.4 0-.81-.185-1.213-.508l.02.765v1.482h-.74v-6.223Zm3.064 2.128c0-.966-.33-1.613-1.154-1.613-.37 0-.744.204-1.17.597v2.294c.396.332.776.455 1.065.455.725 0 1.259-.652 1.259-1.733Zm1.605.065c0-1.46.956-2.302 2.029-2.302 1.072 0 2.027.842 2.027 2.302 0 1.45-.955 2.291-2.027 2.291-1.073 0-2.029-.842-2.029-2.29Zm3.291 0c0-1.003-.51-1.685-1.262-1.685-.753 0-1.263.682-1.263 1.685s.51 1.674 1.263 1.674c.752 0 1.262-.67 1.262-1.674Zm1.409 1.684.366-.488c.38.306.765.518 1.29.518.576 0 .861-.307.861-.68 0-.45-.516-.649-1-.829-.614-.224-1.305-.526-1.305-1.264 0-.7.56-1.243 1.508-1.243.545 0 1.022.224 1.36.493l-.353.474c-.302-.222-.611-.39-.998-.39-.552 0-.806.295-.806.628 0 .417.476.575.972.76.631.237 1.334.493 1.334 1.326 0 .71-.563 1.302-1.597 1.302a2.628 2.628 0 0 1-1.632-.607Zm4.121-5.255c0-.291.223-.479.511-.479s.512.188.512.479c0 .28-.223.478-.512.478s-.511-.199-.511-.478Zm.135 1.378h.74v4.376h-.74v-4.376Zm2.344 3.023v-2.42h-.651v-.561l.684-.042.09-1.228h.617v1.228h1.186v.603h-1.186v2.433c0 .534.173.845.677.845.155 0 .357-.059.5-.117l.142.558c-.245.083-.538.162-.812.162-.931 0-1.247-.59-1.247-1.46Zm2.777-4.401c0-.291.223-.479.511-.479s.512.188.512.479c0 .28-.224.478-.512.478s-.511-.199-.511-.478Zm.135 1.378h.74v4.376h-.74v-4.376Zm1.889 2.193c0-1.46.955-2.302 2.028-2.302s2.028.842 2.028 2.302c0 1.45-.955 2.291-2.028 2.291s-2.028-.842-2.028-2.29Zm3.291 0c0-1.003-.51-1.685-1.263-1.685-.753 0-1.262.682-1.262 1.685s.51 1.674 1.262 1.674 1.263-.67 1.263-1.674Zm1.912-2.193h.612l.063.63h.024c.417-.41.868-.739 1.468-.739.922 0 1.336.596 1.336 1.712v2.773h-.74v-2.677c0-.815-.247-1.164-.826-1.164-.448 0-.757.229-1.197.672v3.169h-.74v-4.376Zm4.438 3.877.366-.488c.38.306.765.518 1.29.518.576 0 .861-.307.861-.68 0-.45-.516-.649-1-.829-.614-.224-1.305-.526-1.305-1.264 0-.7.56-1.243 1.508-1.243.545 0 1.022.224 1.36.493l-.353.474c-.302-.222-.611-.39-.998-.39-.552 0-.806.295-.806.628 0 .417.476.575.972.76.631.237 1.334.493 1.334 1.326 0 .71-.563 1.302-1.597 1.302a2.628 2.628 0 0 1-1.632-.607Z"/>
  <rect width="82.54" height="18.46" x="532.629" y="79.684" fill="#d1d3d4" stroke="#fff" stroke-miterlimit="10" stroke-width="2.706" rx="8.959" ry="8.959"/>
  <rect width="82.54" height="19.764" x="532.629" y="43.885" fill="#d1d3d4" stroke="#fff" stroke-miterlimit="10" stroke-width="2.706" rx="9.593" ry="9.593"/>
  <path fill="#231f20" d="M539.808 53.725c0-1.906 1.122-3.068 2.621-3.068.718 0 1.28.349 1.626.729l-.412.489c-.311-.331-.701-.557-1.2-.557-1.116 0-1.859.914-1.859 2.387 0 1.485.71 2.416 1.83 2.416.563 0 .992-.246 1.369-.664l.412.472c-.467.542-1.045.853-1.813.853-1.471 0-2.574-1.138-2.574-3.057Zm5.264 1.345v-2.772h.74v2.677c0 .815.247 1.164.826 1.164.447 0 .757-.222 1.171-.738v-3.103h.741v4.376h-.612l-.063-.686h-.024c-.405.478-.843.794-1.443.794-.922 0-1.336-.595-1.336-1.712Zm4.955-2.772h.612l.063.797h.024c.305-.556.752-.906 1.244-.906.194 0 .33.025.467.09l-.138.65a1.22 1.22 0 0 0-.424-.072c-.37 0-.812.267-1.108 1.007v2.81h-.74v-4.376Zm2.635 3.24c0-.954.823-1.43 2.688-1.633-.002-.563-.188-1.105-.903-1.105-.507 0-.962.24-1.306.469l-.289-.508c.402-.264 1.017-.572 1.719-.572 1.067 0 1.52.71 1.52 1.8v2.685h-.612l-.062-.524h-.026c-.417.347-.904.632-1.447.632-.733 0-1.282-.455-1.282-1.244Zm2.688.068v-1.215c-1.467.176-1.963.536-1.963 1.094 0 .497.338.7.768.7.423 0 .771-.205 1.195-.579Zm2.123-.285v-2.42h-.651v-.561l.684-.042.09-1.228h.617v1.228h1.186v.603h-1.186v2.433c0 .534.173.845.677.845.155 0 .357-.059.5-.117l.142.558c-.245.083-.538.162-.812.162-.931 0-1.247-.59-1.247-1.46Zm2.461-.83c0-1.424.96-2.302 1.968-2.302 1.116 0 1.746.802 1.746 2.054 0 .156-.014.313-.035.421h-2.947c.053.927.62 1.527 1.455 1.527.42 0 .764-.134 1.088-.35l.265.487c-.384.251-.85.454-1.444.454-1.167 0-2.096-.853-2.096-2.29Zm3.06-.357c0-.877-.395-1.355-1.08-1.355-.615 0-1.164.494-1.254 1.355h2.334Zm1.418.357c0-1.419.895-2.302 1.893-2.302.509 0 .842.192 1.226.507l-.031-.75V50.26h.74v6.414h-.612l-.062-.517h-.024c-.34.34-.807.625-1.329.625-1.092 0-1.801-.832-1.801-2.29Zm3.088 1.07v-2.293c-.374-.333-.71-.456-1.068-.456-.7 0-1.256.675-1.256 1.672 0 1.05.435 1.675 1.201 1.675.406 0 .756-.197 1.123-.597Zm3.745-1.836c0-1.906 1.145-3.068 2.712-3.068a2.29 2.29 0 0 1 1.703.729l-.412.489c-.3-.309-.678-.557-1.272-.557-1.19 0-1.955.914-1.955 2.387 0 1.485.702 2.416 1.963 2.416.424 0 .83-.127 1.064-.348v-1.538h-1.25v-.623h1.936v2.484c-.38.396-1.027.686-1.821.686-1.559 0-2.668-1.138-2.668-3.057Zm5.767 1.345v-2.772h.74v2.677c0 .815.248 1.164.827 1.164.447 0 .756-.222 1.17-.738v-3.103h.742v4.376h-.613l-.062-.686h-.024c-.406.478-.843.794-1.444.794-.922 0-1.336-.595-1.336-1.712Zm4.82-4.15c0-.291.223-.479.511-.479s.512.188.512.479c0 .28-.224.478-.512.478s-.511-.199-.511-.478Zm.135 1.378h.74v4.376h-.74v-4.376Zm1.903 2.193c0-1.419.895-2.302 1.893-2.302.509 0 .842.192 1.226.507l-.031-.75V50.26h.74v6.414h-.612l-.062-.517H587c-.34.34-.807.625-1.329.625-1.092 0-1.801-.832-1.801-2.29Zm3.088 1.07v-2.293c-.374-.333-.71-.456-1.068-.456-.7 0-1.256.675-1.256 1.672 0 1.05.435 1.675 1.201 1.675.406 0 .756-.197 1.123-.597Zm1.893-1.07c0-1.424.96-2.302 1.968-2.302 1.116 0 1.746.802 1.746 2.054 0 .156-.014.313-.035.421h-2.947c.053.927.62 1.527 1.455 1.527.42 0 .764-.134 1.088-.35l.265.487c-.384.251-.85.454-1.444.454-1.167 0-2.096-.853-2.096-2.29Zm3.06-.357c0-.877-.395-1.355-1.08-1.355-.615 0-1.164.494-1.254 1.355h2.334Zm1.729 1.661V50.26h.74v5.589c0 .226.099.316.207.316.043 0 .079 0 .163-.018l.1.566c-.105.038-.232.07-.427.07-.554 0-.783-.355-.783-.988Zm2.16-4.875c0-.291.223-.479.511-.479s.512.188.512.479c0 .28-.224.478-.512.478s-.512-.199-.512-.478Zm.135 1.378h.74v4.376h-.74v-4.376Zm2.214 0h.612l.063.63h.024c.417-.41.867-.739 1.468-.739.922 0 1.336.596 1.336 1.712v2.773h-.74v-2.677c0-.815-.247-1.164-.827-1.164-.447 0-.756.229-1.196.672v3.169h-.74v-4.376Zm4.598 2.193c0-1.424.96-2.302 1.967-2.302 1.117 0 1.746.802 1.746 2.054 0 .156-.013.313-.035.421h-2.946c.053.927.62 1.527 1.454 1.527.42 0 .765-.134 1.089-.35l.265.487c-.384.251-.85.454-1.445.454-1.167 0-2.095-.853-2.095-2.29Zm3.06-.357c0-.877-.395-1.355-1.08-1.355-.615 0-1.165.494-1.255 1.355h2.334Zm1.243 2.041.367-.488c.38.306.765.518 1.29.518.576 0 .86-.307.86-.68 0-.45-.516-.649-1-.829-.613-.224-1.305-.526-1.305-1.264 0-.7.56-1.243 1.509-1.243.545 0 1.021.224 1.36.493l-.353.474c-.302-.222-.612-.39-.998-.39-.552 0-.806.295-.806.628 0 .417.476.575.972.76.63.237 1.334.493 1.334 1.326 0 .71-.564 1.302-1.597 1.302a2.628 2.628 0 0 1-1.633-.607Zm-65.208 29.719h.777l.62 3.216.345 1.905h.037c.13-.635.272-1.274.415-1.905l.82-3.216h.682l.819 3.216c.143.625.285 1.266.427 1.905h.036c.114-.639.22-1.277.335-1.905l.62-3.216h.725l-1.223 5.908h-.904l-.894-3.552c-.102-.461-.196-.89-.284-1.346h-.036c-.092.455-.195.885-.296 1.346l-.876 3.552h-.89l-1.255-5.908Zm7.193 4.772c0-.954.823-1.43 2.688-1.633-.002-.563-.188-1.105-.903-1.105-.507 0-.962.239-1.306.468l-.289-.507c.402-.264 1.017-.572 1.719-.572 1.067 0 1.52.71 1.52 1.8v2.685h-.612l-.062-.524h-.026c-.417.347-.904.632-1.447.632-.733 0-1.282-.455-1.282-1.244Zm2.688.068V89.52c-1.467.176-1.963.536-1.963 1.094 0 .497.338.7.768.7.423 0 .771-.206 1.195-.579Zm2.119-3.308h.613l.062.797h.025c.304-.556.751-.906 1.244-.906.193 0 .329.025.466.09l-.137.65a1.22 1.22 0 0 0-.425-.072c-.37 0-.812.267-1.107 1.007v2.81h-.74v-4.376Zm3.123 0h.613l.062.63h.025c.417-.41.867-.739 1.467-.739.922 0 1.336.595 1.336 1.712v2.773h-.74v-2.677c0-.815-.247-1.164-.826-1.164-.447 0-.757.228-1.196.672v3.169h-.74v-4.376Zm4.787-1.378c0-.291.224-.479.512-.479s.512.188.512.479c0 .28-.224.478-.512.478s-.512-.199-.512-.478Zm.136 1.378h.74v4.376h-.74v-4.376Zm2.214 0h.612l.063.63h.024c.417-.41.867-.739 1.468-.739.922 0 1.336.595 1.336 1.712v2.773h-.74v-2.677c0-.815-.247-1.164-.826-1.164-.448 0-.757.228-1.197.672v3.169h-.74v-4.376Zm4.591 5.217c0-.375.24-.729.641-.99v-.036a.811.811 0 0 1-.39-.718c0-.362.255-.652.481-.811v-.036a1.524 1.524 0 0 1-.567-1.176c0-.957.755-1.559 1.643-1.559.24 0 .458.048.617.109h1.527v.57h-.9c.208.198.358.526.358.9 0 .937-.708 1.517-1.602 1.517a1.56 1.56 0 0 1-.653-.148c-.158.132-.278.277-.278.517 0 .278.18.475.766.475h.852c1.017 0 1.528.32 1.528 1.046 0 .812-.86 1.512-2.212 1.512-1.072 0-1.811-.42-1.811-1.172Zm3.299-.23c0-.404-.308-.543-.883-.543h-.755c-.166 0-.374-.018-.568-.065-.313.221-.447.482-.447.733 0 .47.474.767 1.269.767.835 0 1.384-.435 1.384-.892Zm-.562-3.537c0-.636-.414-1.022-.93-1.022s-.93.38-.93 1.022c0 .638.426 1.04.93 1.04s.93-.402.93-1.04Zm1.646 2.427.366-.489c.38.307.766.519 1.29.519.576 0 .861-.307.861-.68 0-.45-.516-.65-1-.829-.614-.224-1.305-.526-1.305-1.264 0-.7.56-1.243 1.508-1.243.545 0 1.022.224 1.36.493l-.353.474c-.302-.222-.611-.39-.998-.39-.552 0-.805.294-.805.627 0 .417.475.576.971.76.631.239 1.334.494 1.334 1.327 0 .71-.563 1.302-1.597 1.302a2.628 2.628 0 0 1-1.632-.607Zm6.014-5.893h.535l-2.404 7.832h-.535l2.404-7.832Zm.787 4.21c0-1.46.987-2.303 2.106-2.303.574 0 .973.238 1.28.514l-.379.49c-.255-.23-.524-.387-.868-.387-.792 0-1.373.682-1.373 1.685s.549 1.674 1.354 1.674c.399 0 .753-.194 1.027-.436l.321.497a2.13 2.13 0 0 1-1.415.556c-1.165 0-2.053-.842-2.053-2.29Zm4.069 1.046c0-.954.823-1.43 2.688-1.633-.002-.563-.188-1.105-.903-1.105-.507 0-.962.239-1.306.468l-.289-.507c.403-.264 1.017-.572 1.719-.572 1.067 0 1.52.71 1.52 1.8v2.685h-.612l-.062-.524h-.026c-.417.347-.904.632-1.447.632-.732 0-1.282-.455-1.282-1.244Zm2.688.068V89.52c-1.467.176-1.963.536-1.963 1.094 0 .497.338.7.768.7.422 0 .771-.206 1.195-.579Zm1.49-3.308h.762l.828 2.486c.131.427.273.872.404 1.29h.036c.13-.418.272-.863.403-1.29l.828-2.486h.726l-1.548 4.376h-.861l-1.578-4.376Zm4.471 2.194c0-1.425.96-2.303 1.968-2.303 1.116 0 1.746.802 1.746 2.054 0 .156-.014.313-.035.421h-2.946c.052.927.619 1.527 1.454 1.527.42 0 .764-.134 1.089-.35l.264.487c-.384.251-.85.454-1.444.454-1.167 0-2.096-.853-2.096-2.29Zm3.06-.358c0-.877-.395-1.355-1.08-1.355-.615 0-1.164.494-1.254 1.355h2.334Zm1.332 1.404c0-.954.823-1.43 2.688-1.633-.002-.563-.188-1.105-.903-1.105-.507 0-.962.239-1.306.468l-.289-.507c.403-.264 1.017-.572 1.719-.572 1.067 0 1.52.71 1.52 1.8v2.685h-.612l-.062-.524h-.026c-.417.347-.904.632-1.447.632-.732 0-1.282-.455-1.282-1.244Zm2.688.068V89.52c-1.466.176-1.963.536-1.963 1.094 0 .497.338.7.768.7.422 0 .771-.206 1.195-.579Zm2.123-.284v-2.42h-.651v-.562l.685-.042.088-1.228h.619v1.228h1.185v.603h-1.185v2.433c0 .534.172.845.676.845.156 0 .357-.059.5-.118l.142.56c-.245.082-.538.161-.812.161-.931 0-1.247-.59-1.247-1.46Zm2.336.853.366-.489c.38.307.766.519 1.292.519.575 0 .86-.307.86-.68 0-.45-.517-.65-1.001-.829-.613-.224-1.305-.526-1.305-1.264 0-.7.56-1.243 1.509-1.243.545 0 1.021.224 1.36.493l-.353.474c-.302-.222-.612-.39-.998-.39-.552 0-.806.294-.806.627 0 .417.476.576.972.76.63.239 1.334.494 1.334 1.327 0 .71-.564 1.302-1.597 1.302a2.628 2.628 0 0 1-1.633-.607Z"/>
  <circle cx="546.737" cy="62.779" r="5.812" fill="#d1d3d4"/>
  <circle cx="560.846" cy="79.65" r="5.812" fill="#d1d3d4"/>
  <circle cx="574.956" cy="62.779" r="5.812" fill="#d1d3d4"/>
  <circle cx="589.065" cy="79.65" r="5.812" fill="#d1d3d4"/>
  <circle cx="603.175" cy="62.779" r="5.812" fill="#d1d3d4"/>
  <path fill="none" stroke="#231f20" stroke-linecap="round" stroke-miterlimit="10" stroke-width="3" d="M105.676 71.536h.995"/>
  <path fill="none" stroke="#231f20" stroke-dasharray="2.04429 5.11073" stroke-linecap="round" stroke-miterlimit="10" stroke-width="3" d="M111.78 71.536h4.238c6.14 0 8.027-4.914 14.09-4.914s7.486 8.25 15.59 8.25 7.106-8.25 14.5-8.25 6.018 7.82 14.43 7.82 8.139-7.82 15.965-7.82 11.645 2.737 13.594 8.914c1.357 4.3 1.77 13.028 1.894 17.934"/>
  <path fill="none" stroke="#231f20" stroke-linecap="round" stroke-miterlimit="10" stroke-width="3" d="M206.129 96.029c.007.634.007.996.007.996"/>
  <path fill="#231f20" d="M206.136 102.457c-.948-2.556-2.566-5.727-4.28-7.693l4.28 1.548 4.28-1.548c-1.714 1.966-3.333 5.137-4.28 7.693Z"/>
  <path fill="none" stroke="url(#a)" stroke-linecap="round" stroke-miterlimit="10" stroke-width="3" d="M390.382 100.025s-.013-.359-.025-.996"/>
  <path fill="none" stroke="url(#e)" stroke-dasharray="1.97118 4.92794" stroke-linecap="round" stroke-miterlimit="10" stroke-width="3" d="M390.361 94.101c.157-8.276 1.188-22.297 6.363-22.297 6.14 0 9.028 3.22 15.09 3.22s6.487-8.249 14.591-8.249 6.105 8.25 13.499 8.25 6.019-7.82 14.431-7.82 6.138 7.82 13.965 7.82 4.904-6.914 12.593-6.914c5.975 0 6.93 16.432 7.059 23.762"/>
  <path fill="none" stroke="url(#f)" stroke-linecap="round" stroke-miterlimit="10" stroke-width="3" d="M487.969 94.337a54.67 54.67 0 0 1-.012.996"/>
  <path fill="url(#g)" d="M487.833 100.763c-.89-2.577-2.434-5.785-4.103-7.79l4.244 1.647 4.314-1.45c-1.759 1.926-3.45 5.06-4.455 7.593Z"/>
  <path fill="none" stroke="url(#b)" stroke-linecap="round" stroke-miterlimit="10" stroke-width="3" d="M621.8 69.11h-.997"/>
  <path fill="none" stroke="url(#h)" stroke-dasharray="1.9653 4.91324" stroke-linecap="round" stroke-miterlimit="10" stroke-width="3" d="M615.895 69.11h-.436c-6.14 0-7.028 5.915-13.091 5.915s-6.486-8.25-14.59-8.25-6.105 8.25-13.5 8.25-6.018-7.82-14.43-7.82-6.139 7.82-13.965 7.82-6.904-5.914-14.594-5.914c-6.07 0-6.335 18.83-6.178 26.763"/>
  <path fill="none" stroke="url(#i)" stroke-linecap="round" stroke-miterlimit="10" stroke-width="3" d="M525.182 98.336c.024.638.043.997.043.997"/>
  <path fill="url(#j)" d="M627.232 69.11c-2.556-.948-5.727-2.566-7.692-4.28l1.548 4.28-1.548 4.28c1.965-1.714 5.136-3.332 7.692-4.28Z"/>
  <path fill="none" stroke="url(#c)" stroke-linecap="round" stroke-miterlimit="10" stroke-width="3" d="M249.328 99.846s0-.36.009-.996"/>
  <path fill="none" stroke="url(#k)" stroke-dasharray="2.02257 5.05643" stroke-linecap="round" stroke-miterlimit="10" stroke-width="3" d="M249.493 93.796c.344-7.329 1.403-18.931 4.671-20.805 3.826-2.192 11.028-5.914 17.091-5.914s6.486 8.25 14.59 8.25 7.106-8.25 14.5-8.25 6.018 7.82 14.43 7.82 7.139-7.82 14.965-7.82 7.941 2.714 10.594 4.914c4.436 3.68 5.42 16.9 5.635 23.302"/>
  <path fill="none" stroke="url(#l)" stroke-linecap="round" stroke-miterlimit="10" stroke-width="3" d="M346.024 97.82c.006.637.002.997.002.997"/>
  <path fill="url(#m)" d="M345.969 104.248c-.922-2.566-2.506-5.754-4.2-7.737l4.264 1.593 4.296-1.503c-1.735 1.948-3.386 5.101-4.36 7.647Z"/>
  <path fill="none" stroke="#92278f" stroke-dasharray="2 5" stroke-linecap="round" stroke-miterlimit="10" stroke-width="3" d="M490.302 124.673a11.91 11.91 0 0 1-2.034-6.663v-6.822"/>
  <path fill="#92278f" d="M494.267 128.39c-1.161-2.466-2.292-5.842-2.495-8.442l-1.892 4.14-4.102 1.97c2.604.154 6 1.22 8.489 2.332Z"/>
  <path fill="none" stroke="#92278f" stroke-dasharray="2 5" stroke-linecap="round" stroke-miterlimit="10" stroke-width="3" d="M517.217 128.39c3.579-2.083 7.998-5.963 7.998-10.38v-1.39"/>
  <path fill="#92278f" d="M525.215 111.188c.948 2.556 2.566 5.727 4.28 7.692l-4.28-1.548-4.28 1.548c1.714-1.965 3.333-5.136 4.28-7.692Z"/>
  <path fill="none" stroke="#2b3990" stroke-dasharray="2 5" stroke-linecap="round" stroke-miterlimit="10" stroke-width="3" d="M350.96 125.31c-2.438-2.025-4.525-4.56-4.525-7.3v-4.822"/>
  <path fill="#2b3990" d="M355.434 128.39c-1.543-2.248-3.202-5.397-3.82-7.93l-1.202 4.39-3.731 2.605c2.594-.268 6.118.237 8.753.935Z"/>
  <path fill="none" stroke="#2b3990" stroke-dasharray="2 5" stroke-linecap="round" stroke-miterlimit="10" stroke-width="3" d="M378.384 128.39c3.579-2.083 10.998-5.963 10.998-10.38v-1.39"/>
  <path fill="#2b3990" d="M389.382 111.188c.948 2.556 2.567 5.727 4.28 7.692l-4.28-1.548-4.28 1.548c1.715-1.965 3.333-5.136 4.28-7.692Z"/>
  <path fill="none" stroke="#231f20" stroke-dasharray="2 5" stroke-linecap="round" stroke-miterlimit="10" stroke-width="3" d="M210.66 125.31c-2.438-2.025-4.524-4.56-4.524-7.3v-4.822"/>
  <path fill="#231f20" d="M215.134 128.39c-1.542-2.248-3.201-5.397-3.82-7.93l-1.201 4.39-3.732 2.605c2.594-.268 6.119.237 8.753.935Z"/>
  <path fill="none" stroke="#231f20" stroke-dasharray="2 5" stroke-linecap="round" stroke-miterlimit="10" stroke-width="3" d="M239.084 126.39c3.58-2.083 7.999-3.963 7.999-8.38v-1.39"/>
  <path fill="#231f20" d="M247.083 111.188c.948 2.556 2.566 5.727 4.28 7.692l-4.28-1.548-4.28 1.548c1.714-1.965 3.332-5.136 4.28-7.692Z"/>
  <g fill="#2b3990">
    <path d="M366.508 143.544h.57v2.163c0 .975-.345 1.315-.9 1.315-.132 0-.305-.03-.417-.08l.064-.625c.079.035.18.06.292.06.24 0 .391-.147.391-.68v-2.153Zm.878 2.626c.154.106.39.213.635.213.262 0 .401-.147.401-.371 0-.214-.12-.335-.424-.483-.42-.197-.695-.512-.695-1.01 0-.584.36-1.03.958-1.03.285 0 .495.08.646.172l-.128.625c-.101-.067-.281-.163-.53-.163s-.367.152-.367.33c0 .219.142.315.47.483.446.223.656.537.656 1.02 0 .574-.327 1.061-1.021 1.061-.29 0-.575-.101-.717-.208l.116-.64Zm4.137-.95c0 1.122-.503 1.802-1.243 1.802-.75 0-1.19-.766-1.19-1.741 0-1.026.484-1.793 1.232-1.793.777 0 1.201.787 1.201 1.732Zm-1.828.046c0 .67.232 1.142.615 1.142.387 0 .609-.497.609-1.163 0-.614-.218-1.142-.612-1.142-.387 0-.612.497-.612 1.163Zm2.015 1.701v-3.423h.668l.526 1.254c.15.361.3.788.413 1.174h.011a17.255 17.255 0 0 1-.048-1.428v-1h.525v3.423h-.6l-.541-1.32a14.92 14.92 0 0 1-.44-1.21l-.01.006c.014.452.022.934.022 1.493v1.03h-.526Z"/>
    <path d="M376.566 151.929v-21.14a.43.43 0 0 0-.43-.43h-2.148a.43.43 0 0 0-.43.43.86.86 0 0 1-1.718 0 .43.43 0 0 0-.43-.43h-1.719a.43.43 0 0 0-.43.43.86.86 0 0 1-1.718 0 .43.43 0 0 0-.43-.43h-1.718a.43.43 0 0 0-.43.43.86.86 0 0 1-1.719 0 .43.43 0 0 0-.43-.43h-2.148a.43.43 0 0 0-.43.43v21.14c0 .237.193.43.43.43h2.148a.43.43 0 0 0 .43-.43.86.86 0 0 1 1.719 0c0 .237.192.43.43.43h1.718a.43.43 0 0 0 .43-.43.86.86 0 0 1 1.719 0c0 .237.192.43.43.43h1.718a.43.43 0 0 0 .43-.43.86.86 0 0 1 1.719 0c0 .237.192.43.43.43h2.148a.43.43 0 0 0 .43-.43Zm-.859-.43h-1.343c-.192-.74-.865-1.289-1.665-1.289s-1.473.549-1.664 1.29h-.968c-.191-.741-.865-1.29-1.665-1.29s-1.473.549-1.664 1.29h-.968c-.191-.741-.865-1.29-1.664-1.29s-1.474.549-1.665 1.29h-1.343v-20.282h1.343c.191.74.865 1.29 1.664 1.29s1.474-.55 1.665-1.29h.968c.191.74.865 1.29 1.664 1.29s1.473-.55 1.665-1.29h.968c.191.74.865 1.29 1.664 1.29s1.473-.55 1.665-1.29h1.343V151.5Z"/>
    <path d="M373.559 135.773h-6.016a.43.43 0 0 0 0 .86h6.016a.43.43 0 0 0 0-.86Zm0 2.577h-10.313a.43.43 0 0 0 0 .86h10.313a.43.43 0 0 0 0-.86Zm0 2.579h-10.313a.43.43 0 0 0 0 .86h10.313a.43.43 0 0 0 0-.86Zm-10.313-4.297h1.719a.43.43 0 0 0 0-.86h-1.719a.43.43 0 0 0 0 .86Zm-.059 10.313h1.482c.205 0 .37-.193.37-.43s-.165-.43-.37-.43h-1.482c-.205 0-.37.193-.37.43s.165.43.37.43Zm0-2.548h1.482c.205 0 .37-.193.37-.43s-.165-.43-.37-.43h-1.482c-.205 0-.37.193-.37.43s.165.43.37.43Z"/>
  </g>
  <g fill="#231f20">
    <path d="M684.184 63.731h-2.473c-.158 0-.287.17-.287.378s.129.378.287.378h2.473c.159 0 .287-.169.287-.378s-.128-.378-.287-.378Zm-5.52.756h1.323c.158 0 .287-.169.287-.378s-.129-.378-.287-.378h-1.323c-.159 0-.287.17-.287.378s.128.378.287.378Zm5.52 8.317h-1.323c-.158 0-.287.17-.287.378s.129.378.287.378h1.323c.159 0 .287-.169.287-.378s-.128-.378-.287-.378Zm0-6.804h-5.52c-.159 0-.287.169-.287.377s.128.379.287.379h5.52c.159 0 .287-.17.287-.379s-.128-.378-.287-.378Zm0 2.268h-5.52c-.159 0-.287.169-.287.378s.128.378.287.378h5.52c.159 0 .287-.17.287-.378s-.128-.378-.287-.378Zm0 2.268h-5.52c-.159 0-.287.17-.287.378s.128.378.287.378h5.52c.159 0 .287-.17.287-.378s-.128-.378-.287-.378Zm-3.048 2.268h-2.472c-.159 0-.287.17-.287.378s.128.378.287.378h2.472c.16 0 .288-.169.288-.378s-.129-.378-.288-.378Z"/>
    <path d="M690.22 63.731h-4.024v-1.89c0-.209-.129-.378-.287-.378h-8.97c-.159 0-.287.17-.287.378v11.341c0 1.46.903 2.647 2.012 2.647h8.97c1.11 0 2.012-1.188 2.012-2.647v-1.89h1.437c.159 0 .288-.17.288-.378v-5.67c0-.834-.516-1.513-1.15-1.513Zm-11.556 11.341c-.792 0-1.437-.847-1.437-1.89V62.22h8.394v10.963c0 .74.232 1.41.605 1.89h-7.562Zm10.407-9.829v7.94c0 1.042-.645 1.89-1.438 1.89s-1.437-.848-1.437-1.89v-8.696h3.03a1.881 1.881 0 0 0-.155.756Z"/>
  </g>
  <path fill="none" d="M663.515 80.122h38.152v9.76h-38.152z"/>
  <path fill="#231f20" d="M674.579 80.487h.812v1.84h1.852v-1.84h.812v4.58h-.812v-2.03h-1.852v2.03h-.812v-4.58Zm5.564.683h-1.322v-.683h3.457v.684h-1.322v3.896h-.813v-3.896Zm2.899-.683h.918l.81 2.239c.1.29.193.6.294.899h.028c.1-.3.188-.608.288-.9l.793-2.238h.92v4.58h-.746v-2.095c0-.423.065-1.033.104-1.457h-.029l-.369 1.065-.754 2.058h-.482l-.756-2.058-.364-1.065h-.029c.04.424.104 1.034.104 1.457v2.095h-.73v-4.58Zm5.214 0h.813v3.897h1.902v.683h-2.715v-4.58Z"/>
  <path fill="none" d="M694.737 80.122h38.152v9.76h-38.152z"/>
  <path fill="#231f20" d="m705.687 84.371.56-.41c.188.339.435.484.715.484.428 0 .65-.232.65-.884v-3.074h.812v3.143c0 .838-.412 1.521-1.367 1.521-.641 0-1.078-.263-1.37-.78Zm3.562.109.473-.557c.328.312.768.522 1.194.522.515 0 .798-.233.798-.59 0-.377-.296-.498-.712-.674l-.626-.272c-.45-.188-.925-.545-.925-1.215 0-.73.644-1.29 1.538-1.29.535 0 1.053.22 1.412.583l-.418.516c-.291-.248-.602-.395-.994-.395-.435 0-.717.204-.717.538 0 .36.349.494.728.649l.618.26c.545.226.925.571.925 1.235 0 .742-.616 1.361-1.644 1.361-.62 0-1.216-.244-1.65-.67Zm3.888-1.721c0-1.482.826-2.356 2.02-2.356s2.02.878 2.02 2.356c0 1.482-.827 2.392-2.02 2.392s-2.02-.91-2.02-2.392Zm3.205 0c0-1.029-.465-1.65-1.185-1.65s-1.185.621-1.185 1.65.465 1.686 1.185 1.686 1.185-.658 1.185-1.686Zm1.754-2.272h.835l1.423 2.575.474.977h.027c-.04-.474-.104-1.053-.104-1.563v-1.989h.774v4.58h-.835l-1.423-2.579-.474-.973h-.028c.04.485.104 1.037.104 1.547v2.005h-.773v-4.58Z"/>
  <g fill="#231f20">
    <path d="M712.852 70.534h.393v1.488c0 .67-.238.905-.62.905a.79.79 0 0 1-.287-.056l.044-.43a.492.492 0 0 0 .201.042c.166 0 .269-.102.269-.468v-1.481Zm.604 1.806a.806.806 0 0 0 .437.146c.18 0 .276-.1.276-.255 0-.147-.083-.23-.292-.332-.29-.136-.478-.352-.478-.695 0-.401.248-.709.659-.709.196 0 .34.056.444.119l-.088.43c-.07-.046-.193-.112-.364-.112s-.253.105-.253.227c0 .15.098.216.323.332.307.154.452.37.452.702 0 .395-.225.73-.703.73a.9.9 0 0 1-.493-.143l.08-.44Zm2.846-.653c0 .771-.346 1.24-.855 1.24-.517 0-.819-.528-.819-1.199 0-.705.333-1.233.848-1.233.534 0 .826.541.826 1.192Zm-1.258.031c0 .461.16.786.424.786.266 0 .418-.342.418-.8 0-.423-.15-.786-.42-.786-.267 0-.422.342-.422.8Zm1.386 1.17v-2.354h.46l.362.862c.103.249.207.542.284.808h.008a11.871 11.871 0 0 1-.034-.982v-.688h.362v2.354h-.413l-.372-.908a10.263 10.263 0 0 1-.302-.832l-.008.004c.01.31.015.643.015 1.027v.71h-.361Z"/>
    <path d="M719.772 76.302V61.758a.296.296 0 0 0-.296-.295h-1.478a.296.296 0 0 0-.296.295.592.592 0 0 1-1.182 0 .296.296 0 0 0-.296-.295h-1.182a.296.296 0 0 0-.296.295.592.592 0 0 1-1.182 0 .296.296 0 0 0-.296-.295h-1.182a.296.296 0 0 0-.296.295.592.592 0 0 1-1.182 0 .296.296 0 0 0-.296-.295h-1.478a.296.296 0 0 0-.295.295v14.544c0 .163.132.296.295.296h1.478a.296.296 0 0 0 .296-.296.592.592 0 0 1 1.182 0c0 .163.133.296.296.296h1.182a.296.296 0 0 0 .296-.296.592.592 0 0 1 1.182 0c0 .163.133.296.296.296h1.182a.296.296 0 0 0 .296-.296.592.592 0 0 1 1.182 0c0 .163.133.296.296.296h1.478a.296.296 0 0 0 .296-.296Zm-.592-.296h-.924a1.184 1.184 0 0 0-2.29 0h-.666a1.184 1.184 0 0 0-2.29 0h-.666a1.184 1.184 0 0 0-2.29 0h-.924V62.054h.924a1.183 1.183 0 0 0 2.29 0h.666a1.183 1.183 0 0 0 2.29 0h.666c.132.51.595.887 1.145.887s1.013-.377 1.145-.887h.924v13.952Z"/>
    <path d="M717.702 65.187h-4.138a.296.296 0 0 0 0 .592h4.138a.296.296 0 0 0 0-.592Zm0 1.774h-7.094a.296.296 0 0 0 0 .591h7.094a.296.296 0 0 0 0-.591Zm0 1.774h-7.094a.296.296 0 0 0 0 .59h7.094a.296.296 0 0 0 0-.59Zm-7.094-2.956h1.182a.296.296 0 0 0 0-.592h-1.182a.296.296 0 0 0 0 .592Zm-.041 7.094h1.02c.14 0 .255-.132.255-.296 0-.163-.114-.295-.255-.295h-1.02c-.14 0-.255.132-.255.295 0 .164.115.296.255.296Zm0-1.753h1.02c.14 0 .255-.132.255-.296 0-.163-.114-.295-.255-.295h-1.02c-.14 0-.255.132-.255.295 0 .164.115.296.255.296Z"/>
  </g>
  <g fill="#92278f">
    <path d="M504.49 144.246h.57v2.164c0 .975-.345 1.315-.9 1.315-.132 0-.305-.031-.417-.081l.064-.625c.078.036.18.06.292.06.24 0 .39-.147.39-.68v-2.153Zm.878 2.626c.154.106.39.213.635.213.262 0 .401-.147.401-.37 0-.214-.12-.336-.424-.483-.42-.198-.695-.513-.695-1.01 0-.585.36-1.031.958-1.031.285 0 .495.08.645.172l-.127.625c-.102-.066-.282-.163-.53-.163s-.367.152-.367.33c0 .219.142.315.469.483.447.223.657.538.657 1.02 0 .574-.327 1.062-1.021 1.062-.29 0-.575-.102-.717-.209l.116-.64Zm4.137-.95c0 1.122-.503 1.803-1.243 1.803-.75 0-1.19-.767-1.19-1.742 0-1.026.484-1.792 1.232-1.792.777 0 1.201.786 1.201 1.731Zm-1.829.046c0 .67.233 1.143.616 1.143.387 0 .609-.498.609-1.164 0-.614-.218-1.142-.613-1.142-.386 0-.612.497-.612 1.163Zm2.016 1.701v-3.423h.668l.526 1.255c.15.36.3.787.413 1.173h.011a17.255 17.255 0 0 1-.049-1.427v-1h.526v3.422h-.6l-.541-1.32a14.92 14.92 0 0 1-.44-1.21l-.01.006c.014.452.022.935.022 1.493v1.031h-.526Z"/>
    <path d="M514.548 152.631v-21.14a.43.43 0 0 0-.43-.43h-2.148a.43.43 0 0 0-.43.43.86.86 0 0 1-1.718 0 .43.43 0 0 0-.43-.43h-1.719a.43.43 0 0 0-.43.43.86.86 0 0 1-1.718 0 .43.43 0 0 0-.43-.43h-1.719a.43.43 0 0 0-.43.43.86.86 0 0 1-1.718 0 .43.43 0 0 0-.43-.43h-2.148a.43.43 0 0 0-.43.43v21.14c0 .238.192.43.43.43h2.148a.43.43 0 0 0 .43-.43.86.86 0 0 1 1.719 0c0 .238.192.43.43.43h1.718a.43.43 0 0 0 .43-.43.86.86 0 0 1 1.719 0c0 .238.192.43.43.43h1.718a.43.43 0 0 0 .43-.43.86.86 0 0 1 1.718 0c0 .238.193.43.43.43h2.149a.43.43 0 0 0 .43-.43Zm-.86-.43h-1.343a1.72 1.72 0 0 0-3.328.001h-.968c-.192-.74-.865-1.29-1.665-1.29s-1.473.55-1.664 1.29h-.968c-.192-.74-.865-1.29-1.665-1.29s-1.473.55-1.664 1.29h-1.344V131.92h1.344c.191.74.865 1.29 1.664 1.29s1.473-.55 1.665-1.29h.968c.191.741.865 1.29 1.664 1.29s1.473-.549 1.665-1.29h.968c.19.741.865 1.29 1.664 1.29s1.473-.549 1.664-1.29h1.344v20.282Z"/>
    <path d="M511.54 136.475h-6.015a.43.43 0 0 0 0 .86h6.015a.43.43 0 0 0 0-.86Zm0 2.578h-10.312a.43.43 0 0 0 0 .86h10.312a.43.43 0 0 0 0-.86Zm0 2.578h-10.312a.43.43 0 0 0 0 .86h10.312a.43.43 0 0 0 0-.86Zm-10.312-4.297h1.719a.43.43 0 0 0 0-.859h-1.719a.43.43 0 0 0 0 .86Zm-.059 10.313h1.482c.205 0 .37-.192.37-.43s-.165-.43-.37-.43h-1.482c-.205 0-.37.193-.37.43s.165.43.37.43Zm0-2.548h1.482c.205 0 .37-.193.37-.43s-.165-.43-.37-.43h-1.482c-.205 0-.37.193-.37.43s.165.43.37.43Z"/>
  </g>
  <circle cx="104.18" cy="20.391" r="9.071" fill="#231f20" stroke="#fff" stroke-miterlimit="10"/>
  <path fill="#fff" d="M101.292 23.834c2.553-2.546 3.997-4.076 3.997-5.457 0-.97-.527-1.658-1.612-1.658-.71 0-1.322.45-1.805 1.018l-.637-.619c.71-.781 1.476-1.292 2.577-1.292 1.57 0 2.55.992 2.55 2.502 0 1.595-1.464 3.179-3.468 5.285.46-.036.988-.072 1.429-.072h2.456v.941h-5.487v-.648Z"/>
  <circle cx="226.052" cy="118.789" r="9.071" fill="#231f20" stroke="#fff" stroke-miterlimit="10"/>
  <path fill="#fff" d="m222.984 121.84.55-.714c.512.53 1.175 1.002 2.17 1.002 1.032 0 1.764-.604 1.764-1.558 0-1.01-.695-1.685-2.71-1.685v-.841c1.8 0 2.41-.693 2.41-1.582 0-.826-.567-1.346-1.468-1.346-.711 0-1.313.359-1.812.862l-.59-.696c.658-.608 1.436-1.058 2.442-1.058 1.476 0 2.54.785 2.54 2.157 0 1.023-.62 1.679-1.543 2.018v.054c1.026.242 1.845.993 1.845 2.16 0 1.514-1.25 2.427-2.807 2.427-1.363 0-2.219-.571-2.791-1.2Z"/>
  <circle cx="368.232" cy="118.789" r="9.071" fill="#231f20" stroke="#fff" stroke-miterlimit="10"/>
  <path fill="#fff" d="m365.14 121.875.54-.715c.507.503 1.144.968 2.144.968 1.034 0 1.857-.751 1.857-1.935 0-1.173-.715-1.867-1.802-1.867-.587 0-.952.182-1.459.518l-.58-.37.28-4.09h4.25v.941h-3.29l-.223 2.523c.393-.216.78-.353 1.304-.353 1.448 0 2.633.826 2.633 2.662 0 1.841-1.386 2.883-2.86 2.883-1.369 0-2.203-.574-2.795-1.165Z"/>
  <circle cx="243.084" cy="20.391" r="9.071" fill="#231f20" stroke="#fff" stroke-miterlimit="10"/>
  <path fill="#fff" d="M243.713 18.79c0-.448.037-1.183.064-1.629h-.054c-.214.405-.453.776-.692 1.198l-1.986 2.905h4.864v.872h-6.011v-.723l3.635-5.427h1.217v8.496h-1.037V18.79Z"/>
  <circle cx="383.883" cy="20.391" r="9.071" fill="#231f20" stroke="#fff" stroke-miterlimit="10"/>
  <path fill="#fff" d="M385.28 16.928h-4.23v-.942h5.476v.671c-2.013 2.573-2.428 4.51-2.571 7.825h-1.13c.143-3.203.782-5.222 2.455-7.554Z"/>
  <circle cx="407.589" cy="128.792" r="9.071" fill="#231f20" stroke="#fff" stroke-miterlimit="10"/>
  <path fill="#fff" d="M404.811 128.958c0-3.417 1.544-4.731 3.237-4.731.913 0 1.574.388 2.05.897l-.611.686a1.853 1.853 0 0 0-1.397-.67c-1.22 0-2.245.968-2.245 3.818 0 2.088.678 3.222 1.897 3.222.833 0 1.478-.743 1.478-1.864 0-1.106-.52-1.803-1.572-1.803-.552 0-1.242.33-1.826 1.204l-.04-.866c.535-.714 1.329-1.162 2.049-1.162 1.472 0 2.422.883 2.422 2.627 0 1.627-1.146 2.727-2.508 2.727-1.676 0-2.934-1.357-2.934-4.085Z"/>
  <circle cx="518.576" cy="20.391" r="9.071" fill="#231f20" stroke="#fff" stroke-miterlimit="10"/>
  <path fill="#fff" d="m515.841 23.745.61-.685c.341.41.867.67 1.396.67 1.227 0 2.246-.97 2.246-3.819 0-2.088-.678-3.222-1.896-3.222-.834 0-1.479.744-1.479 1.864 0 1.106.52 1.803 1.573 1.803.55 0 1.242-.33 1.826-1.204l.039.867c-.534.713-1.328 1.16-2.05 1.16-1.472 0-2.422-.882-2.422-2.626 0-1.627 1.148-2.727 2.51-2.727 1.675 0 2.932 1.358 2.932 4.085 0 3.417-1.542 4.732-3.237 4.732a2.693 2.693 0 0 1-2.048-.898Z"/>
  <circle cx="505.974" cy="118.789" r="9.071" fill="#231f20" stroke="#fff" stroke-miterlimit="10"/>
  <path fill="#fff" d="M503.098 120.705c0-1.103.805-1.858 1.605-2.284v-.054c-.633-.438-1.187-1.068-1.187-1.964 0-1.306 1.037-2.18 2.403-2.18 1.488 0 2.402.94 2.402 2.261 0 .891-.648 1.655-1.172 2.05v.053c.759.448 1.477 1.047 1.477 2.183 0 1.274-1.095 2.27-2.736 2.27-1.61 0-2.792-.983-2.792-2.335Zm4.48.035c0-1.101-1.075-1.492-2.301-1.986-.683.445-1.189 1.073-1.189 1.853 0 .935.78 1.619 1.822 1.619.994 0 1.668-.61 1.668-1.486Zm-.202-4.197c0-.839-.54-1.505-1.476-1.505-.792 0-1.379.543-1.379 1.365 0 1.014.941 1.442 1.959 1.846.576-.515.895-1.08.895-1.706Z"/>
  <circle cx="659.646" cy="36.489" r="9.071" fill="#231f20" stroke="#fff" stroke-miterlimit="10"/>
  <path fill="#fff" d="M654.297 39.668h1.947v-6.255h-1.548v-.705c.773-.136 1.336-.342 1.806-.624h.837v7.584h1.754v.912h-4.796v-.912Zm5.495-3.368c0-2.848 1.026-4.376 2.722-4.376s2.723 1.533 2.723 4.377c0 2.848-1.027 4.44-2.723 4.44s-2.722-1.592-2.722-4.44Zm4.381 0c0-2.49-.672-3.493-1.659-3.493s-1.659 1.003-1.659 3.494c0 2.49.672 3.556 1.66 3.556s1.658-1.066 1.658-3.556Z"/>
  <path fill="#231f20" d="M399.878 50.766h1.688c1.324 0 2.217.445 2.217 1.739 0 1.244-.889 1.825-2.18 1.825h-.973v2.344h-.752v-5.908Zm1.63 2.954c1.033 0 1.525-.374 1.525-1.215 0-.853-.524-1.13-1.562-1.13h-.84v2.345h.876Zm3.395-3.46h.74v1.755l-.026.9c.409-.396.852-.726 1.453-.726.922 0 1.336.596 1.336 1.712v2.773h-.74v-2.677c0-.815-.248-1.164-.827-1.164-.447 0-.756.229-1.196.672v3.169h-.74V50.26Zm4.571 4.231c0-1.424.96-2.302 1.968-2.302 1.116 0 1.746.802 1.746 2.054 0 .156-.014.313-.035.421h-2.946c.052.927.619 1.527 1.454 1.527.42 0 .764-.134 1.089-.35l.264.487c-.384.251-.85.454-1.444.454-1.167 0-2.096-.853-2.096-2.29Zm3.06-.357c0-.877-.395-1.355-1.08-1.355-.615 0-1.164.494-1.254 1.355h2.334Zm1.729-1.836h.612l.063.63h.024c.417-.41.868-.739 1.468-.739.922 0 1.336.596 1.336 1.712v2.773h-.74v-2.677c0-.815-.247-1.164-.826-1.164-.448 0-.757.229-1.197.672v3.169h-.74v-4.376Zm4.597 2.193c0-1.46.956-2.302 2.03-2.302 1.071 0 2.027.842 2.027 2.302 0 1.45-.956 2.291-2.028 2.291-1.073 0-2.028-.842-2.028-2.29Zm3.292 0c0-1.003-.51-1.685-1.263-1.685-.753 0-1.263.682-1.263 1.685s.51 1.674 1.263 1.674c.752 0 1.263-.67 1.263-1.674Zm1.888.83v-2.42h-.65v-.561l.684-.042.089-1.228h.618v1.228h1.185v.603h-1.185v2.433c0 .534.173.845.677.845.155 0 .356-.059.499-.117l.142.558c-.245.083-.538.162-.811.162-.932 0-1.247-.59-1.247-1.46Zm2.474 3.149.145-.59c.087.03.22.065.334.065.493 0 .804-.396.986-.94l.1-.322-1.756-4.385h.762l.894 2.423c.137.38.284.828.426 1.232h.036c.124-.397.248-.846.368-1.232l.78-2.423h.725l-1.648 4.736c-.31.868-.761 1.526-1.64 1.526a1.44 1.44 0 0 1-.512-.09Zm4.642-6.172h.612l.063.505h.024c.395-.33.888-.614 1.395-.614 1.13 0 1.735.878 1.735 2.23 0 1.492-.896 2.363-1.896 2.363-.4 0-.81-.185-1.213-.508l.02.765v1.482h-.74v-6.223Zm3.064 2.128c0-.966-.33-1.613-1.154-1.613-.37 0-.744.204-1.17.597v2.294c.396.332.776.455 1.065.455.725 0 1.26-.652 1.26-1.733Zm1.606.065c0-1.424.96-2.302 1.967-2.302 1.117 0 1.747.802 1.747 2.054 0 .156-.014.313-.036.421h-2.946c.053.927.62 1.527 1.454 1.527.42 0 .765-.134 1.09-.35l.264.487c-.384.251-.85.454-1.445.454-1.167 0-2.095-.853-2.095-2.29Zm3.06-.357c0-.877-.395-1.355-1.08-1.355-.615 0-1.165.494-1.255 1.355h2.334Zm3.598-3.368h1.478c1.817 0 2.79 1.055 2.79 2.932s-.973 2.976-2.757 2.976h-1.511v-5.908Zm1.422 5.292c1.382 0 2.07-.867 2.07-2.36s-.688-2.316-2.07-2.316h-.67v4.676h.67Zm3.719-1.567c0-1.424.96-2.302 1.967-2.302 1.117 0 1.746.802 1.746 2.054 0 .156-.013.313-.035.421h-2.946c.053.927.62 1.527 1.454 1.527.42 0 .765-.134 1.089-.35l.265.487c-.384.251-.85.454-1.445.454-1.167 0-2.095-.853-2.095-2.29Zm3.06-.357c0-.877-.395-1.355-1.08-1.355-.615 0-1.165.494-1.255 1.355h2.334Zm1.238-1.794.627-.042h1.635v.603h-2.262v-.561Zm.594-.734c0-.89.405-1.454 1.282-1.454.266 0 .529.068.727.15l-.156.566a1.2 1.2 0 0 0-.496-.113c-.414 0-.617.289-.617.854v5.065h-.74v-5.068Zm2.37-.686c0-.291.224-.479.512-.479s.512.188.512.479c0 .28-.224.478-.512.478s-.512-.199-.512-.478Zm.136 1.378h.74v4.376h-.74v-4.376Zm2.214 0h.612l.063.63h.024c.417-.41.867-.739 1.468-.739.922 0 1.336.596 1.336 1.712v2.773H460v-2.677c0-.815-.248-1.164-.827-1.164-.447 0-.756.229-1.196.672v3.169h-.74v-4.376Zm4.787-1.378c0-.291.224-.479.512-.479s.511.188.511.479c0 .28-.223.478-.511.478s-.512-.199-.512-.478Zm.136 1.378h.74v4.376h-.74v-4.376Zm2.343 3.023v-2.42h-.65v-.561l.684-.042.089-1.228h.618v1.228h1.185v.603h-1.185v2.433c0 .534.173.845.676.845.156 0 .357-.059.5-.117l.142.558c-.245.083-.538.162-.812.162-.931 0-1.247-.59-1.247-1.46Zm2.777-4.401c0-.291.223-.479.512-.479s.511.188.511.479c0 .28-.223.478-.511.478s-.512-.199-.512-.478Zm.136 1.378h.74v4.376h-.74v-4.376Zm1.888 2.193c0-1.46.955-2.302 2.029-2.302 1.072 0 2.027.842 2.027 2.302 0 1.45-.955 2.291-2.027 2.291-1.074 0-2.029-.842-2.029-2.29Zm3.291 0c0-1.003-.51-1.685-1.262-1.685-.753 0-1.263.682-1.263 1.685s.51 1.674 1.263 1.674c.751 0 1.262-.67 1.262-1.674Zm1.912-2.193h.613l.062.63h.025c.417-.41.867-.739 1.467-.739.922 0 1.336.596 1.336 1.712v2.773h-.74v-2.677c0-.815-.247-1.164-.826-1.164-.447 0-.757.229-1.196.672v3.169h-.74v-4.376Zm4.439 3.877.366-.488c.38.306.766.518 1.291.518.575 0 .86-.307.86-.68 0-.45-.516-.649-1-.829-.614-.224-1.305-.526-1.305-1.264 0-.7.56-1.243 1.509-1.243.544 0 1.021.224 1.36.493l-.354.474c-.301-.222-.611-.39-.998-.39-.551 0-.805.295-.805.628 0 .417.475.575.971.76.631.237 1.334.493 1.334 1.326 0 .71-.563 1.302-1.596 1.302a2.628 2.628 0 0 1-1.633-.607Z"/>
  <rect width="56.642" height="60" x="15.682" y="35.663" fill="#fff" stroke="#58595b" stroke-miterlimit="10" stroke-width="2.24" rx="11.078" ry="11.078"/>
  <path fill="#58595b" d="M15.682 53.182c0-9.635 4.363-17.519 9.695-17.519h37.252c5.332 0 9.695 7.884 9.695 17.519"/>
  <path fill="#fff" d="M33.22 40.734h1.158v6.537H33.22v-6.537Zm2.719 1.627h.944l.088.663h.031c.44-.427.94-.783 1.612-.783 1.052 0 1.512.712 1.512 1.951v3.079h-1.152V44.34c0-.808-.232-1.111-.764-1.111-.431 0-.715.211-1.12.612v3.43h-1.15v-4.91Zm5.601 0h.943l.088.524h.032c.414-.356.94-.644 1.48-.644 1.226 0 1.93.984 1.93 2.5 0 1.678-1.004 2.65-2.095 2.65-.436 0-.864-.197-1.263-.54l.036.815v1.548H41.54V42.36Zm3.29 2.391c0-.98-.32-1.56-1.068-1.56-.355 0-.691.181-1.071.552v2.287c.351.3.7.408.983.408.656 0 1.156-.576 1.156-1.687Zm2.294.688v-3.08h1.15v2.931c0 .808.233 1.111.765 1.111.431 0 .715-.2 1.087-.68V42.36h1.152v4.91h-.944l-.088-.724h-.032c-.432.512-.908.844-1.579.844-1.051 0-1.511-.712-1.511-1.952Zm5.788.175v-2.339h-.7v-.863l.76-.052.136-1.34h.955v1.34h1.251v.915h-1.251v2.337c0 .578.224.862.695.862.168 0 .368-.056.512-.112l.196.848a3.18 3.18 0 0 1-1.004.18c-1.13 0-1.55-.716-1.55-1.776Z"/>
  <g fill="#010101">
    <path d="M46.099 61.901h-7.686a.296.296 0 0 0-.295.296V76.74c0 .164.132.296.295.296h10.642a.296.296 0 0 0 .295-.296V65.153A3.255 3.255 0 0 0 46.1 61.9Zm2.66 14.544H38.71V62.492h6.798c.49 0 .887.398.887.887v1.183c0 .163.133.295.296.295h1.182c.49 0 .887.398.887.887v10.7Z"/>
    <path d="m46.681 65.579-2.896.55a.343.343 0 0 0 .128.673l2.896-.55a.343.343 0 0 0-.128-.673Zm-6.553.739 1.523.407a.343.343 0 1 0 .177-.662l-1.523-.408a.343.343 0 1 0-.177.663Zm.062 5.272h1.576a.343.343 0 1 0 0-.685H40.19a.343.343 0 1 0 0 .685Zm6.314 2.144-1.377.768a.343.343 0 1 0 .334.598l1.377-.768a.343.343 0 1 0-.334-.598Zm.239-6.437-6.568.407a.343.343 0 1 0 .042.685l6.569-.408a.343.343 0 1 0-.043-.684Zm.042 2.755-6.507-.983a.343.343 0 1 0-.103.678l6.508.983a.343.343 0 1 0 .102-.678Zm-.077 1.988-6.536.769a.343.343 0 1 0 .08.68l6.536-.769a.343.343 0 1 0-.08-.68Zm-3.54 2.946-2.782-.977a.343.343 0 1 0-.227.647l2.782.977a.343.343 0 1 0 .227-.647Z"/>
  </g>
  <path fill="#231f20" d="M28.447 80.77h.86l.644 2.302c.15.52.25.969.404 1.49h.027c.155-.521.26-.97.404-1.49l.636-2.302h.83l-1.419 4.58h-.963l-1.423-4.58Zm4.049 2.305c0-1.499.938-2.39 2.098-2.39.574 0 1.032.275 1.32.58l-.435.524c-.235-.235-.51-.398-.868-.398-.745 0-1.28.63-1.28 1.659 0 1.045.493 1.678 1.26 1.678.407 0 .72-.188.978-.471l.434.51a1.826 1.826 0 0 1-1.442.667c-1.152 0-2.065-.843-2.065-2.359Zm4.272-2.305h2.769v.683H37.58v1.3h1.664v.684H37.58v1.913h-.813v-4.58Zm4.971 0h2.767v.683h-1.955v1.3h1.664v.684h-1.664v1.913h-.812v-4.58Zm3.407.08c0-.27.213-.456.499-.456.285 0 .498.185.498.457 0 .265-.213.456-.498.456-.286 0-.499-.19-.499-.456Zm.093 1.06h.806v3.44h-.806v-3.44Zm1.834 2.554v-4.062h.806v4.105c0 .198.09.268.174.268.036 0 .065 0 .126-.013l.1.601c-.097.04-.232.07-.425.07-.571 0-.781-.37-.781-.97Zm1.67-.832c0-1.117.776-1.807 1.586-1.807.93 0 1.42.673 1.42 1.634 0 .153-.017.308-.036.392H49.53c.067.61.459.958 1.013.958.295 0 .547-.092.8-.25l.274.503c-.327.22-.742.372-1.18.372-.95 0-1.694-.667-1.694-1.802Zm2.308-.33c0-.53-.235-.852-.706-.852-.4 0-.754.3-.824.852h1.53Zm1.492.1c0-1.232.342-2.24.925-3.19l.504.218c-.526.9-.77 1.944-.77 2.972s.244 2.074.77 2.973l-.504.219c-.583-.95-.925-1.96-.925-3.192Zm1.902 1.552.375-.512c.305.238.601.384.95.384.375 0 .552-.177.552-.412 0-.289-.373-.418-.74-.558-.45-.17-.966-.428-.966-1.002 0-.597.481-1.029 1.252-1.029.48 0 .863.195 1.143.412l-.37.496c-.241-.176-.483-.3-.754-.3-.345 0-.51.166-.51.381 0 .272.348.375.72.513.466.174.987.398.987 1.04 0 .59-.468 1.067-1.336 1.067-.471 0-.967-.202-1.303-.48Zm3.148 1.421c.527-.9.77-1.944.77-2.973s-.243-2.073-.77-2.972l.504-.218c.583.95.925 1.958.925 3.19s-.342 2.242-.925 3.192l-.504-.219Z"/>
  <circle cx="16.313" cy="36.489" r="9.071" fill="#231f20" stroke="#fff" stroke-miterlimit="10"/>
  <path fill="#fff" d="M13.942 39.668h1.947v-6.255H14.34v-.705c.775-.136 1.337-.342 1.808-.624h.837v7.584h1.754v.912h-4.797v-.912Z"/>
  <path fill="#58595b" d="M102.676 63.478v11.74h-30.05v-11.74z"/>
  <path fill="none" stroke="#fff" stroke-linecap="round" stroke-miterlimit="10" stroke-width="3" d="M95.801 69.348H76.487"/>
  <path fill="#fff" d="M95.386 72.446V66.25l3.097 3.098-3.097 3.098zm327.194 61.721c0-2.115 1.18-3.362 2.882-3.362s2.882 1.253 2.882 3.362c0 2.114-1.178 3.414-2.882 3.414s-2.882-1.3-2.882-3.414Zm4.573 0c0-1.468-.663-2.355-1.69-2.355s-1.692.887-1.692 2.355c0 1.467.664 2.406 1.691 2.406s1.69-.94 1.69-2.406Zm2.41-1.615h.944l.088.523h.031c.415-.355.94-.643 1.48-.643 1.228 0 1.93.983 1.93 2.499 0 1.678-1.002 2.65-2.094 2.65-.436 0-.863-.196-1.263-.54l.035.815v1.548h-1.151v-6.852Zm3.291 2.39c0-.98-.32-1.56-1.067-1.56-.357 0-.693.181-1.073.553v2.287c.353.3.7.408.984.408.656 0 1.156-.576 1.156-1.688Zm2.302.864v-2.34h-.7v-.862l.76-.052.136-1.34h.955v1.34h1.251v.915h-1.25v2.337c0 .578.223.861.694.861.168 0 .369-.056.512-.111l.196.847c-.267.088-.609.18-1.003.18-1.131 0-1.551-.716-1.551-1.775Zm3.305-4.766c0-.388.304-.651.712-.651s.712.263.712.651c0 .38-.303.652-.712.652s-.712-.272-.712-.652Zm.132 1.512h1.152v4.909h-1.152v-4.91Zm2.297 2.458c0-1.635 1.111-2.578 2.335-2.578 1.223 0 2.334.943 2.334 2.579 0 1.627-1.111 2.57-2.334 2.57-1.224 0-2.335-.943-2.335-2.57Zm3.486 0c0-.984-.432-1.639-1.15-1.639-.72 0-1.152.655-1.152 1.64 0 .983.431 1.63 1.151 1.63.719 0 1.151-.647 1.151-1.63Zm2.328-2.458h.943l.088.663h.032c.44-.428.94-.783 1.611-.783 1.051 0 1.511.712 1.511 1.95v3.079h-1.151v-2.93c0-.808-.232-1.112-.764-1.112-.432 0-.716.212-1.119.612v3.43h-1.151v-4.91Zm5.336 3.59c0-1.052.872-1.599 2.886-1.815-.015-.528-.227-.968-.891-.968-.488 0-.948.22-1.38.484l-.423-.768c.539-.34 1.235-.643 2.015-.643 1.227 0 1.83.756 1.83 2.123v2.906h-.943l-.088-.544h-.032c-.44.376-.943.664-1.523.664-.86 0-1.451-.584-1.451-1.44Zm2.886.004v-1.104c-1.33.168-1.775.516-1.775 1.012 0 .433.296.624.708.624.4 0 .703-.197 1.067-.533Zm2.537.051V130.4h1.152v5.858c0 .283.128.384.248.384.052 0 .092 0 .18-.02l.143.858c-.14.057-.331.101-.607.101-.816 0-1.116-.528-1.116-1.384Zm-27.479 4.728h1.16v6.536h-1.16v-6.536Zm2.72 1.627h.943l.088.663h.032c.44-.428.94-.783 1.611-.783 1.051 0 1.511.712 1.511 1.95v3.079h-1.151v-2.93c0-.808-.232-1.112-.764-1.112-.432 0-.716.212-1.119.612v3.43h-1.151v-4.91Zm5.599 0h.945l.087.523h.032c.414-.355.94-.643 1.48-.643 1.227 0 1.93.983 1.93 2.499 0 1.678-1.003 2.65-2.095 2.65-.435 0-.863-.196-1.263-.54l.036.815v1.548h-1.152v-6.852Zm3.291 2.39c0-.98-.32-1.56-1.067-1.56-.357 0-.693.181-1.072.553v2.287c.352.3.7.408.983.408.656 0 1.156-.576 1.156-1.688Zm2.294.688v-3.078h1.152v2.93c0 .808.231 1.112.762 1.112.433 0 .716-.2 1.088-.68v-3.362h1.152v4.909h-.944l-.088-.724h-.032c-.432.512-.907.844-1.58.844-1.05 0-1.51-.712-1.51-1.951Zm5.787.176v-2.34h-.699v-.862l.76-.052.136-1.34h.955v1.34h1.252v.915h-1.252v2.337c0 .578.224.861.696.861.168 0 .367-.056.512-.111l.195.847c-.268.088-.61.18-1.003.18-1.132 0-1.552-.716-1.552-1.775Z"/>
  <path fill="none" d="M409.642 176.445h61.884v6.269h-61.884z"/>
  <path fill="#231f20" d="M421.724 179.081c0-1.481.826-2.355 2.02-2.355s2.02.878 2.02 2.355c0 1.482-.827 2.393-2.02 2.393s-2.02-.91-2.02-2.393Zm3.205 0c0-1.028-.465-1.65-1.185-1.65s-1.185.622-1.185 1.65.465 1.687 1.185 1.687 1.185-.659 1.185-1.687Zm1.645 1.025v-2.157h.806v2.054c0 .565.162.778.536.778.302 0 .501-.14.761-.475v-2.357h.807v3.44h-.66l-.063-.506h-.021c-.303.358-.637.59-1.108.59-.736 0-1.058-.498-1.058-1.367Zm4.051.124v-1.64h-.49v-.605l.533-.036.095-.938h.67v.938h.876v.642h-.877v1.638c0 .404.157.603.487.603.118 0 .258-.039.36-.078l.137.594a2.237 2.237 0 0 1-.704.126c-.793 0-1.086-.501-1.086-1.244Zm1.995.764.376-.512c.304.238.6.384.949.384.376 0 .553-.177.553-.412 0-.289-.373-.418-.74-.558-.452-.17-.967-.428-.967-1.002 0-.597.482-1.029 1.252-1.029.48 0 .863.195 1.144.412l-.371.496c-.24-.176-.482-.3-.753-.3-.347 0-.51.166-.51.381 0 .272.347.375.72.513.465.174.986.398.986 1.04 0 .59-.467 1.067-1.336 1.067-.47 0-.966-.202-1.302-.48Zm3.266-4.104c0-.27.213-.456.5-.456s.498.185.498.457c0 .265-.213.456-.499.456s-.499-.19-.499-.456Zm.093 1.06h.807v3.44h-.807v-3.44Zm1.623 1.722c0-1.12.703-1.807 1.457-1.807.389 0 .636.146.901.378l-.03-.555v-1.246h.807v4.948h-.661l-.062-.373h-.022c-.255.255-.609.457-.978.457-.857 0-1.412-.667-1.412-1.802Zm2.328.748v-1.603c-.235-.21-.468-.285-.7-.285-.438 0-.799.414-.799 1.132 0 .748.286 1.143.781 1.143.267 0 .49-.118.718-.387Zm1.604-.748c0-1.117.775-1.807 1.585-1.807.93 0 1.42.673 1.42 1.634 0 .153-.016.308-.035.392h-2.183c.067.611.459.958 1.013.958.294 0 .547-.092.8-.25l.274.503a2.14 2.14 0 0 1-1.18.372c-.95 0-1.694-.667-1.694-1.802Zm2.307-.33c0-.53-.235-.852-.705-.852-.401 0-.754.3-.824.852h1.53Zm2.642.33c0-1.146.81-1.807 1.726-1.807.436 0 .755.168 1.005.387l-.392.523c-.182-.159-.356-.252-.572-.252-.554 0-.938.46-.938 1.149 0 .69.378 1.143.913 1.143.269 0 .516-.131.712-.296l.327.532a1.7 1.7 0 0 1-1.123.423c-.938 0-1.658-.661-1.658-1.802Zm3.207.793c0-.736.61-1.12 2.022-1.272-.011-.37-.16-.677-.625-.677-.341 0-.664.153-.966.339l-.297-.539c.379-.238.866-.45 1.412-.45.86 0 1.283.529 1.283 1.487v2.037h-.661l-.062-.381h-.022c-.309.263-.661.465-1.067.465-.603 0-1.017-.41-1.017-1.01Zm2.022.003v-.774c-.932.118-1.244.362-1.244.71 0 .303.207.437.496.437.28 0 .494-.138.748-.373Zm1.775.036v-4.062h.806v4.105c0 .198.09.268.174.268.036 0 .065 0 .126-.013l.1.601c-.097.04-.232.07-.425.07-.571 0-.781-.37-.781-.97Zm1.896 0v-4.062h.807v4.105c0 .198.09.268.174.268.036 0 .064 0 .126-.013l.1.601c-.097.04-.232.07-.425.07-.572 0-.782-.37-.782-.97Zm1.555.49.375-.512c.306.238.602.384.95.384.375 0 .552-.177.552-.412 0-.289-.372-.418-.74-.558-.45-.17-.966-.428-.966-1.002 0-.597.481-1.029 1.252-1.029.48 0 .863.195 1.143.412l-.37.496c-.24-.176-.483-.3-.754-.3-.345 0-.51.166-.51.381 0 .272.348.375.721.513.465.174.986.398.986 1.04 0 .59-.468 1.067-1.336 1.067-.471 0-.967-.202-1.303-.48Z"/>
  <g fill="#010101">
    <path d="M442.949 158.01h-7.686a.296.296 0 0 0-.296.296v14.544c0 .163.133.296.296.296h10.642a.296.296 0 0 0 .295-.296v-11.588a3.255 3.255 0 0 0-3.251-3.251Zm2.66 14.544h-10.05v-13.952h6.798c.49 0 .887.398.887.887v1.182c0 .164.132.296.296.296h1.182c.49 0 .887.398.887.887v10.7Z"/>
    <path d="M443.62 161.957h-2.947a.343.343 0 1 0 0 .686h2.948a.343.343 0 1 0 0-.686Zm-6.58.686h1.576a.343.343 0 1 0 0-.686h-1.577a.343.343 0 1 0 0 .686Zm6.58 7.541h-1.576a.343.343 0 1 0 0 .685h1.577a.343.343 0 1 0 0-.685Zm0-6.17h-6.58a.343.343 0 1 0 0 .685h6.58a.343.343 0 1 0 0-.685Zm0 2.056h-6.58a.343.343 0 1 0 0 .686h6.58a.343.343 0 1 0 0-.685Zm0 2.057h-6.58a.343.343 0 1 0 0 .686h6.58a.343.343 0 1 0 0-.686Zm-3.633 2.057h-2.948a.343.343 0 1 0 0 .685h2.948a.343.343 0 1 0 0-.685Z"/>
  </g>
  <g fill="#010101">
    <path d="M229.858 130.359h-11.172a.43.43 0 0 0-.43.43v21.14c0 .237.193.43.43.43h15.469a.43.43 0 0 0 .43-.43v-16.844a4.732 4.732 0 0 0-4.727-4.726Zm3.867 21.14h-14.61v-20.28H229c.71 0 1.289.577 1.289 1.288v1.719c0 .237.192.43.43.43h1.718c.711 0 1.29.578 1.29 1.289v15.554Z"/>
    <path d="m230.705 135.704-4.21.8a.498.498 0 1 0 .186.978l4.21-.799a.498.498 0 1 0-.186-.979Zm-9.526 1.074 2.214.593a.498.498 0 1 0 .257-.963l-2.214-.592a.498.498 0 1 0-.257.962Zm.089 7.665h2.292a.498.498 0 1 0 0-.997h-2.292a.498.498 0 1 0 0 .997Zm9.179 3.115-2.001 1.117a.498.498 0 1 0 .485.87l2.002-1.116a.498.498 0 1 0-.486-.87Zm.348-9.356-9.548.592a.498.498 0 1 0 .061.995l9.549-.592a.498.498 0 1 0-.062-.995Zm.061 4.005-9.46-1.429a.498.498 0 0 0-.148.986l9.46 1.428a.498.498 0 0 0 .148-.985Zm-.112 2.888-9.501 1.12a.498.498 0 1 0 .117.989l9.5-1.119a.498.498 0 1 0-.116-.99Zm-5.146 4.284-4.044-1.42a.498.498 0 1 0-.33.94l4.044 1.42a.498.498 0 1 0 .33-.94Z"/>
  </g>
  <path fill="#33669a" d="M103.055 180.651c0-.311.155-.466.467-.466h3.186c.453 0 .873.072 1.26.218.387.147.717.357.99.63.275.275.49.605.645.991.156.388.233.817.233 1.29 0 .471-.077.903-.233 1.294-.155.392-.37.727-.644 1.005-.274.28-.604.494-.99.645a3.435 3.435 0 0 1-1.261.226h-2.265v3.229c0 .311-.156.467-.468.467h-.453c-.312 0-.467-.156-.467-.467v-9.062Zm3.426 4.616c.604 0 1.078-.174 1.423-.524s.517-.826.517-1.43-.172-1.074-.517-1.409-.814-.503-1.408-.503h-2.053v3.866h2.038Zm4.743-4.616c0-.311.156-.466.468-.466h.438c.302 0 .454.155.454.466v3.243c0 .085-.002.165-.007.24a1.38 1.38 0 0 1-.022.184 1.14 1.14 0 0 0-.013.17h.028c.075-.17.19-.351.347-.545a3.046 3.046 0 0 1 1.352-.941 2.87 2.87 0 0 1 .977-.156c.85 0 1.472.23 1.868.686.396.458.594 1.145.594 2.06v4.12c0 .312-.155.468-.466.468h-.439c-.311 0-.468-.156-.468-.467v-3.809c0-.255-.016-.49-.05-.708s-.098-.406-.198-.566a1.062 1.062 0 0 0-.417-.383c-.18-.094-.41-.142-.694-.142a2.233 2.233 0 0 0-1.706.758c-.212.241-.38.524-.502.85a2.999 2.999 0 0 0-.184 1.07v2.93c0 .311-.152.467-.454.467h-.438c-.312 0-.468-.156-.468-.467v-9.062Zm7.786 7.575c0-.369.072-.687.213-.955.142-.27.33-.494.567-.673.235-.18.502-.326.8-.439.296-.113.606-.198.927-.255.32-.056.634-.094.942-.113.306-.02.582-.028.828-.028h.368v-.185c0-.292-.04-.54-.12-.743-.081-.203-.192-.365-.333-.488s-.307-.21-.496-.262a2.291 2.291 0 0 0-.609-.078c-.358 0-.678.052-.956.155a4.317 4.317 0 0 0-.658.298c-.274.132-.486.075-.637-.17l-.113-.198c-.151-.283-.1-.496.155-.637.218-.123.522-.255.913-.396s.862-.213 1.41-.213c.896 0 1.59.238 2.08.715s.737 1.172.737 2.088v4.064c0 .311-.155.467-.467.467h-.354c-.312 0-.467-.156-.467-.467v-.61c0-.056.004-.103.013-.141l.029-.113h-.029a2.83 2.83 0 0 1-.538.75c-.188.19-.43.361-.721.517-.293.155-.652.234-1.077.234-.311 0-.613-.048-.906-.142a2.302 2.302 0 0 1-.771-.418 2.086 2.086 0 0 1-.532-.665 1.961 1.961 0 0 1-.198-.9Zm1.388-.114c0 .284.111.545.333.786.222.24.555.362.998.362.302 0 .573-.069.814-.206.24-.137.444-.316.609-.537a2.607 2.607 0 0 0 .516-1.538v-.31h-.368c-.255 0-.547.012-.878.035-.33.024-.646.082-.948.177s-.556.238-.765.431-.311.46-.311.8Zm6.514-4.629c0-.311.155-.467.466-.467h.397c.311 0 .468.156.468.467v.82a2.844 2.844 0 0 1-.028.384.92.92 0 0 0-.015.155h.028c.075-.236.182-.467.318-.694s.3-.426.49-.601c.188-.175.398-.317.63-.425a1.76 1.76 0 0 1 .756-.163c.303 0 .453.156.453.468v.395c0 .312-.17.468-.51.468-.348 0-.653.087-.912.262s-.477.4-.652.673-.303.587-.388.941a4.501 4.501 0 0 0-.128 1.055v2.492c0 .311-.156.467-.467.467h-.44c-.311 0-.466-.156-.466-.467v-6.23Zm5.04 0c0-.311.155-.467.466-.467h.397c.311 0 .468.156.468.467v.637c0 .095-.01.189-.029.283a.51.51 0 0 0-.014.127h.028c.085-.207.21-.412.375-.615s.36-.383.581-.538a3.29 3.29 0 0 1 .722-.383c.26-.098.531-.148.814-.148 1.18 0 1.897.543 2.152 1.628h.028c.095-.207.227-.41.396-.609a2.978 2.978 0 0 1 1.303-.885c.265-.09.543-.134.836-.134.82 0 1.42.23 1.798.686.377.458.566 1.145.566 2.06v4.12c0 .312-.156.468-.467.468h-.439c-.311 0-.468-.156-.468-.467v-3.823c0-.255-.016-.49-.048-.708a1.674 1.674 0 0 0-.185-.567c-.09-.16-.217-.287-.382-.382s-.38-.141-.644-.141c-.33 0-.628.078-.892.233a2.174 2.174 0 0 0-.673.623c-.183.26-.323.555-.418.885a3.674 3.674 0 0 0-.141 1.006v2.874c0 .311-.15.467-.454.467h-.452c-.302 0-.453-.156-.453-.467v-3.823c0-.236-.015-.462-.043-.68-.028-.217-.085-.408-.17-.573s-.21-.297-.375-.397c-.165-.098-.385-.148-.658-.148-.34 0-.644.08-.913.24-.27.161-.496.371-.68.63a2.867 2.867 0 0 0-.418.886c-.094.33-.141.66-.141.99v2.875c0 .311-.156.467-.467.467h-.44c-.311 0-.466-.156-.466-.467v-6.23Z"/>
  <path fill="#c91f4d" d="M144.312 185.464c0-2.902 2.166-4.885 4.885-4.885 1.982 0 3.158.991 3.865 2.124l-1.416.722c-.453-.779-1.36-1.373-2.45-1.373-1.798 0-3.185 1.43-3.185 3.412s1.387 3.413 3.186 3.413c1.09 0 1.996-.581 2.449-1.374l1.416.723c-.722 1.132-1.883 2.124-3.865 2.124-2.719 0-4.885-1.983-4.885-4.886Zm16.693 4.716-.694-1.813h-4.475l-.694 1.813h-1.812l3.71-9.445h2.067l3.71 9.445h-1.812Zm-2.931-8.043-1.77 4.772h3.54l-1.77-4.772Zm7.107 8.043v-7.987h-2.86v-1.458h7.378v1.458h-2.862v7.987h-1.656Z"/>
  <g data-name="icon">
    <g data-name="icon-artwork">
      <path fill="#231f20" d="M99.55 184.685a1.47 1.47 0 0 0-.015-.012c-.598-.46-1.293-.806-1.966-1.14-1.16-.578-2.362-1.175-3.186-2.395-.89-1.317-2.954-2.845-3.042-2.91l-.639-.47v2.17c-.371.197-1.045.627-1.278 1.243-.06.161-.209.27-.38.395-.304.223-.813.595-.517 1.405.375 1.025 1.528 1.552 1.577 1.574l.056.02c.017.005 1.678.502 1.678 1.464v.808a.4.4 0 1 0 .8 0v-.002h.002v-.806c0-1.494-1.93-2.135-2.228-2.226-.138-.068-.897-.465-1.132-1.107-.087-.237-.061-.264.237-.482.229-.168.513-.376.658-.76.16-.425.857-.808 1.088-.909l.241-.105v-1.066c.669.544 1.692 1.44 2.215 2.212.942 1.396 2.297 2.07 3.493 2.664.673.335 1.308.651 1.847 1.069l.015.01c.753.53 1.09 1.302 1.09 2.502 0 1.76-1.37 3.232-3.052 3.232a2.925 2.925 0 0 1-.51-.053c-1.004-.208-1.8-1.003-1.8-1.894 0-1.073.956-1.946 2.13-1.946a.361.361 0 0 0 0-.722c-1.573 0-2.852 1.197-2.852 2.668 0 .59.325 1.215.712 1.671s1.258 1 2.32 1c2.164 0 3.853-1.754 3.853-3.956 0-1.46-.45-2.46-1.415-3.146Z" data-name="icon-artwork-front"/>
    </g>
  </g>
</svg>
