<svg xmlns="http://www.w3.org/2000/svg" data-name="Layer 3" viewBox="0 0 430 210">
  <rect width="304.171" height="37" x="123.537" y="109.412" fill="#fff" stroke="#91288d" stroke-miterlimit="10" stroke-width="2.365" rx="15.988" ry="15.988"/>
  <rect width="151.277" height="37" x="6.431" y="109.412" fill="#92278f" stroke="#92278f" stroke-miterlimit="10" stroke-width="2.427" rx="11.275" ry="11.275"/>
  <path fill="#92278f" stroke="#92278f" stroke-miterlimit="10" stroke-width="2.427" d="m94.708 145.863-12.892 8.172-12.892-8.172"/>
  <rect width="304.171" height="37" x="123.537" y="7.93" fill="#fff" stroke="#2b3990" stroke-miterlimit="10" stroke-width="2.365" rx="15.988" ry="15.988"/>
  <rect width="151.278" height="37" x="6.431" y="7.93" fill="#2b3990" stroke="#2b3990" stroke-miterlimit="10" stroke-width="2.094" rx="11.275" ry="11.275"/>
  <path fill="#fff" d="M48.96 22.664h1.719v6.496H48.96v-6.496Zm2.8 3.996c0-1.638 1.02-2.617 2.04-2.617.539 0 .86.2 1.159.5l-.06-.72v-1.62h1.72v6.957h-1.4l-.12-.46h-.04c-.34.34-.82.58-1.26.58-1.24 0-2.038-1-2.038-2.62Zm3.138.861v-1.84a1.01 1.01 0 0 0-.68-.239c-.359 0-.698.32-.698 1.2 0 .899.28 1.239.739 1.239.26 0 .46-.08.64-.36Zm2.622-.861c0-1.618 1.18-2.617 2.399-2.617 1.48 0 2.179 1.079 2.179 2.419 0 .3-.04.6-.07.72H59.18c.159.599.6.798 1.159.798.34 0 .66-.1 1.02-.3l.559 1.02c-.54.38-1.26.58-1.82.58-1.458 0-2.577-.96-2.577-2.62Zm3.119-.599c0-.38-.16-.72-.68-.72-.38 0-.7.221-.8.72h1.48Zm2.401-1.898h1.4l.119.6h.04c.4-.38.9-.72 1.579-.72 1.1 0 1.56.8 1.56 2.039v3.078h-1.72V26.3c0-.64-.16-.8-.5-.8-.32 0-.5.14-.76.38v3.279H63.04v-4.997Zm6.04 3.077v-1.738h-.66v-1.28l.76-.06.2-1.299h1.419v1.3h1.14v1.339h-1.14v1.709c0 .55.28.73.6.73.16 0 .319-.04.439-.08l.26 1.24c-.26.078-.63.179-1.179.179-1.3 0-1.839-.82-1.839-2.04Zm3.68-4.557c0-.5.4-.86.96-.86.56 0 .959.36.959.86s-.4.86-.96.86c-.56 0-.96-.36-.96-.86Zm.1 1.48h1.72v4.997h-1.72v-4.997Zm2.52.059.76-.06h2.458v1.34H75.38v-1.28Zm.66-.12c0-1.07.5-2.018 1.979-2.018.46 0 .838.1 1.06.18l-.3 1.26a1.461 1.461 0 0 0-.5-.101c-.321 0-.52.15-.52.62v5.117h-1.72v-5.058Zm3.28 6.838.3-1.3c.089.02.219.06.318.06.46 0 .68-.2.78-.5l.06-.22-1.898-4.817h1.719l.6 1.919c.139.46.24.919.359 1.419h.04c.1-.48.2-.94.32-1.42l.5-1.918h1.639l-1.68 4.917c-.52 1.35-1.059 1.959-2.298 1.959-.34 0-.54-.04-.76-.1Zm8.739-8.276h2.079l1.978 6.496h-1.82l-.738-3.158c-.16-.62-.32-1.41-.48-2.059h-.04c-.14.66-.3 1.439-.46 2.059l-.74 3.158H86.08l1.98-6.496Zm-.56 3.787h3.178v1.33h-3.178v-1.33Zm5 .95v-5.197h1.72v5.257c0 .34.159.44.28.44.06 0 .1 0 .179-.02l.2 1.26c-.18.078-.46.139-.84.139-1.16 0-1.539-.76-1.539-1.879Zm2.981 0v-5.197h1.718v5.257c0 .34.16.44.28.44.06 0 .1 0 .18-.02l.2 1.26c-.18.078-.46.139-.84.139-1.159 0-1.539-.76-1.539-1.879Zm2.72-.741c0-1.618 1.179-2.617 2.399-2.617 1.478 0 2.178 1.079 2.178 2.419 0 .3-.04.6-.07.72h-2.849c.16.599.6.798 1.16.798.34 0 .66-.1 1.02-.3l.559 1.02c-.54.38-1.26.58-1.819.58-1.459 0-2.579-.96-2.579-2.62Zm3.117-.599c0-.38-.159-.72-.68-.72-.378 0-.699.221-.798.72h1.478Zm2.402 1.34v-5.197h1.72v5.257c0 .34.159.44.279.44.06 0 .1 0 .18-.02l.2 1.26c-.18.078-.46.139-.84.139-1.16 0-1.54-.76-1.54-1.879Zm2.721-.741c0-1.618 1.178-2.617 2.398-2.617 1.48 0 2.179 1.079 2.179 2.419 0 .3-.04.6-.07.72h-2.848c.159.599.6.798 1.159.798.34 0 .659-.1 1.02-.3l.559 1.02c-.54.38-1.26.58-1.82.58-1.458 0-2.578-.96-2.578-2.62Zm3.118-.599c0-.38-.16-.72-.68-.72-.38 0-.7.221-.8.72h1.48Zm2.001 2.519.76-1.059c.46.34.87.5 1.22.5.358 0 .5-.1.5-.3 0-.26-.46-.38-.96-.58-.58-.23-1.26-.66-1.26-1.48 0-.979.8-1.618 1.979-1.618.82 0 1.4.33 1.839.659l-.76 1.02c-.36-.26-.709-.42-1.02-.42-.289 0-.439.08-.439.28 0 .26.44.36.94.54.599.22 1.279.6 1.279 1.499 0 .94-.74 1.659-2.139 1.659-.64 0-1.419-.28-1.94-.7Z"/>
  <path fill="#231f20" d="M171.243 28.526h1.46v-4.693h-1.161v-.529c.58-.102 1.002-.256 1.355-.467h.628v5.69h1.317v.684h-3.599v-.685Zm7.797-4.983h-3.174v-.706h4.109v.503c-1.51 1.93-1.822 3.383-1.93 5.87h-.847c.108-2.403.587-3.918 1.842-5.667Zm1.87 5.114.457-.514c.257.309.65.503 1.048.503.92 0 1.685-.727 1.685-2.865 0-1.566-.51-2.417-1.423-2.417-.625 0-1.109.558-1.109 1.397 0 .831.39 1.354 1.18 1.354.413 0 .932-.248 1.37-.903l.03.65c-.402.535-.998.871-1.538.871-1.105 0-1.818-.663-1.818-1.972 0-1.22.86-2.044 1.883-2.044 1.258 0 2.201 1.018 2.201 3.064 0 2.563-1.158 3.55-2.43 3.55a2.02 2.02 0 0 1-1.536-.674Zm7.494-3.717c0-.336.028-.888.048-1.223h-.04c-.16.304-.34.584-.52.9l-1.489 2.179h3.649v.654h-4.51v-.542l2.728-4.071h.913v6.374h-.779v-4.272Zm2.34 2.639c0-.828.604-1.394 1.203-1.714v-.04c-.473-.33-.89-.802-.89-1.474 0-.98.779-1.634 1.803-1.634 1.117 0 1.803.705 1.803 1.695 0 .668-.486 1.242-.88 1.538v.04c.57.336 1.109.785 1.109 1.638 0 .956-.822 1.703-2.053 1.703-1.207 0-2.095-.738-2.095-1.752Zm3.361.026c0-.826-.806-1.119-1.726-1.49-.512.334-.892.806-.892 1.39 0 .702.585 1.214 1.367 1.214.746 0 1.251-.458 1.251-1.114Zm-.152-3.148c0-.63-.404-1.13-1.107-1.13-.594 0-1.034.407-1.034 1.024 0 .761.706 1.082 1.47 1.385.432-.387.671-.81.671-1.28Zm1.869 1.479c0-2.115 1.272-3.405 3.011-3.405.91 0 1.508.412 1.892.81l-.457.543c-.333-.343-.754-.619-1.413-.619-1.322 0-2.17 1.015-2.17 2.65 0 1.648.779 2.681 2.178 2.681.471 0 .923-.14 1.182-.384v-1.708h-1.389v-.692h2.15v2.757c-.421.44-1.14.762-2.022.762-1.73 0-2.962-1.264-2.962-3.395Zm5.994 1.252 2.112-.778 1.334-.497v-.04l-1.334-.498-2.112-.778v-.716l4.288 1.684v.654l-4.288 1.686v-.717Zm6.875-4.537h.943l2.219 6.56h-.884l-1.145-3.664a56.619 56.619 0 0 1-.656-2.21h-.04c-.203.76-.414 1.477-.65 2.21l-1.156 3.664h-.85l2.22-6.56Zm-1.051 3.896h3.02v.666h-3.02v-.666Zm7.025-.115c0-1.758.492-3.198 1.32-4.54l.51.239c-.77 1.273-1.145 2.783-1.145 4.301 0 1.518.376 3.028 1.145 4.302l-.51.237c-.828-1.34-1.32-2.78-1.32-4.539Zm2.438-3.781h.86l.69 3.571c.126.705.257 1.41.384 2.115h.04c.145-.705.303-1.413.46-2.115l.911-3.57h.757l.91 3.57c.157.694.316 1.407.474 2.115h.04c.126-.708.244-1.417.371-2.115l.688-3.57h.805l-1.357 6.559h-1.004l-.992-3.944a57.794 57.794 0 0 1-.316-1.493h-.04c-.101.505-.216.982-.328 1.493l-.973 3.944h-.989l-1.391-6.56Zm8.031 6.073c1.916-1.91 3-3.058 3-4.094 0-.728-.396-1.244-1.21-1.244-.533 0-.991.337-1.355.764l-.477-.465c.533-.586 1.107-.968 1.933-.968 1.18 0 1.914.743 1.914 1.876 0 1.197-1.098 2.385-2.602 3.966.345-.027.741-.054 1.072-.054h1.842v.706h-4.117v-.487Zm5.358-.198h1.46v-4.693h-1.161v-.529c.58-.102 1.002-.256 1.355-.467h.628v5.69h1.317v.684h-3.599v-.685Zm4.581.198c1.916-1.91 3-3.058 3-4.094 0-.728-.395-1.244-1.209-1.244-.534 0-.992.337-1.355.764l-.478-.465c.533-.586 1.108-.968 1.934-.968 1.179 0 1.914.743 1.914 1.876 0 1.197-1.099 2.385-2.603 3.966.345-.027.742-.054 1.073-.054h1.841v.706h-4.117v-.487Zm6.635-2.902-1.786-3.17h.92l.895 1.678c.166.3.306.571.511.953h.04c.178-.382.305-.653.463-.953l.872-1.679h.879l-1.785 3.213 1.91 3.347h-.92l-.963-1.766c-.172-.327-.35-.654-.56-1.055h-.04c-.19.4-.356.728-.521 1.055l-.947 1.766h-.88l1.912-3.389Zm3.449 4.912c.77-1.274 1.146-2.784 1.146-4.302 0-1.518-.375-3.028-1.146-4.301l.511-.239c.827 1.342 1.32 2.782 1.32 4.54s-.493 3.199-1.32 4.54l-.51-.238Zm3.121-.309c.563-.247.904-.688.9-1.239l-.088-.738.402.6c-.11.132-.259.171-.416.171-.317 0-.595-.2-.595-.573 0-.357.283-.573.61-.573.436 0 .697.365.697.965 0 .864-.503 1.536-1.31 1.87l-.2-.483Zm4.425-2.846c0-.828.604-1.394 1.203-1.714v-.04c-.473-.33-.89-.802-.89-1.474 0-.98.779-1.634 1.803-1.634 1.117 0 1.803.705 1.803 1.695 0 .668-.486 1.242-.88 1.538v.04c.57.336 1.109.785 1.109 1.638 0 .956-.822 1.703-2.053 1.703-1.207 0-2.095-.738-2.095-1.752Zm3.361.026c0-.826-.806-1.119-1.726-1.49-.512.334-.892.806-.892 1.39 0 .702.585 1.214 1.367 1.214.746 0 1.251-.458 1.251-1.114Zm-.152-3.148c0-.63-.404-1.13-1.107-1.13-.594 0-1.034.407-1.034 1.024 0 .761.706 1.082 1.47 1.385.432-.387.671-.81.671-1.28ZM257.706 26c0-2.137.77-3.283 2.043-3.283 1.273 0 2.043 1.149 2.043 3.283 0 2.137-.77 3.33-2.043 3.33-1.272 0-2.043-1.193-2.043-3.33Zm3.288 0c0-1.868-.504-2.621-1.245-2.621-.74 0-1.244.753-1.244 2.62s.504 2.67 1.244 2.67c.741 0 1.245-.801 1.245-2.67Zm2.027 2.526h1.46v-4.693h-1.16v-.529c.58-.102 1.001-.256 1.355-.467h.628v5.69h1.316v.684h-3.599v-.685Zm4.666-2.26c0-2.564 1.158-3.55 2.43-3.55a2.03 2.03 0 0 1 1.535.673l-.457.515a1.392 1.392 0 0 0-1.048-.503c-.916 0-1.684.727-1.684 2.865 0 1.567.509 2.417 1.423 2.417.625 0 1.11-.557 1.11-1.397 0-.831-.391-1.354-1.18-1.354-.415 0-.933.248-1.37.903l-.031-.65c.401-.536.997-.87 1.538-.87 1.105 0 1.818.661 1.818 1.97 0 1.22-.86 2.046-1.883 2.046-1.257 0-2.201-1.019-2.201-3.065Zm5.275 2.26h1.46v-4.693h-1.161v-.529c.58-.102 1.002-.256 1.355-.467h.628v5.69h1.317v.684h-3.6v-.685Zm6.428-5.875h.943l2.219 6.56h-.884l-1.145-3.664a56.619 56.619 0 0 1-.656-2.21h-.04c-.203.76-.414 1.477-.65 2.21l-1.156 3.664h-.85l2.22-6.56Zm-1.051 3.896h3.02v.666h-3.02v-.666Zm4.547.641 2.111-.778 1.334-.497v-.04l-1.334-.498-2.111-.778v-.716l4.288 1.684v.654l-4.288 1.686v-.717Zm5.145-1.252c0-2.115 1.272-3.405 3.011-3.405.91 0 1.508.412 1.892.81l-.457.543c-.333-.343-.754-.619-1.413-.619-1.322 0-2.17 1.015-2.17 2.65 0 1.648.779 2.681 2.178 2.681.471 0 .923-.14 1.182-.384v-1.708h-1.389v-.692h2.15v2.757c-.421.44-1.14.762-2.022.762-1.73 0-2.962-1.264-2.962-3.395Zm8.473.496c0-1.758.492-3.198 1.32-4.54l.51.239c-.77 1.273-1.146 2.783-1.146 4.301 0 1.518.376 3.028 1.146 4.302l-.51.237c-.828-1.34-1.32-2.78-1.32-4.539Zm3.107-3.781h.835v6.56h-.835v-6.56Zm1.996 5.78.414-.536c.383.398.881.751 1.627.751.775 0 1.325-.452 1.325-1.168 0-.758-.522-1.265-2.035-1.265v-.63c1.35 0 1.81-.52 1.81-1.188 0-.62-.427-1.009-1.102-1.009-.534 0-.986.268-1.36.646l-.442-.522c.493-.456 1.077-.793 1.83-.793 1.11 0 1.908.588 1.908 1.618 0 .767-.466 1.258-1.158 1.514v.04c.77.182 1.384.746 1.384 1.62 0 1.136-.938 1.822-2.106 1.822-1.022 0-1.665-.429-2.095-.9Zm4.971 0 .414-.536c.383.398.881.751 1.627.751.775 0 1.324-.452 1.324-1.168 0-.758-.521-1.265-2.034-1.265v-.63c1.35 0 1.809-.52 1.809-1.188 0-.62-.426-1.009-1.102-1.009-.533 0-.985.268-1.36.646l-.442-.522c.494-.456 1.078-.793 1.831-.793 1.109 0 1.908.588 1.908 1.618 0 .767-.466 1.258-1.158 1.514v.04c.77.182 1.383.746 1.383 1.62 0 1.136-.937 1.822-2.105 1.822-1.023 0-1.665-.429-2.095-.9Zm5.493.095h1.46v-4.693h-1.16v-.529c.58-.102 1.001-.256 1.355-.467h.628v5.69h1.316v.684h-3.599v-.685Zm4.185-5.875h.885l1.058 3.546c.23.771.388 1.397.631 2.166h.04c.243-.769.404-1.395.631-2.166l1.052-3.546h.85l-2.084 6.56h-.967l-2.096-6.56Zm5.53 8.083c.77-1.274 1.146-2.784 1.146-4.302 0-1.518-.375-3.028-1.146-4.301l.51-.239c.828 1.342 1.32 2.782 1.32 4.54s-.492 3.199-1.32 4.54l-.51-.238Zm8.988-6.204h4.288v.618h-4.288v-.618Zm0 2.146h4.288v.619h-4.288v-.619Zm11.146-.74c0-2.115 1.246-3.405 2.911-3.405.796 0 1.42.388 1.804.81l-.457.543c-.346-.369-.78-.619-1.332-.619-1.24 0-2.064 1.015-2.064 2.65 0 1.648.787 2.681 2.03 2.681.626 0 1.102-.272 1.521-.736l.458.524c-.519.601-1.161.947-2.013.947-1.633 0-2.858-1.264-2.858-3.395Zm7.085.733-1.972-4.018h.892l.846 1.852c.21.483.409.94.635 1.43h.04c.227-.49.453-.947.655-1.43l.846-1.852h.865l-1.972 4.018v2.542h-.835v-2.542Zm3.587-4.018h1.873c1.47 0 2.462.494 2.462 1.932 0 1.38-.987 2.025-2.422 2.025h-1.078v2.603h-.835v-6.56Zm1.808 3.28c1.147 0 1.694-.415 1.694-1.348 0-.947-.581-1.255-1.734-1.255h-.933v2.603h.973Zm3.352 2.793c1.916-1.91 3-3.058 3-4.094 0-.728-.396-1.244-1.209-1.244-.534 0-.992.337-1.355.764l-.478-.465c.533-.586 1.107-.968 1.934-.968 1.178 0 1.914.743 1.914 1.876 0 1.197-1.099 2.385-2.603 3.966.345-.027.741-.054 1.072-.054h1.842v.706h-4.117v-.487Zm5.088-2.788c0-2.115 1.246-3.405 2.911-3.405.796 0 1.42.388 1.804.81l-.457.543c-.346-.369-.78-.619-1.332-.619-1.24 0-2.064 1.015-2.064 2.65 0 1.648.787 2.681 2.03 2.681.626 0 1.102-.272 1.52-.736l.459.524c-.519.601-1.161.947-2.013.947-1.634 0-2.858-1.264-2.858-3.395Zm5.981 2.59h1.46v-4.693h-1.16v-.529c.58-.102 1.001-.256 1.355-.467h.628v5.69h1.316v.684h-3.599v-.685Zm4.698.131.457-.514c.256.309.65.503 1.047.503.92 0 1.685-.727 1.685-2.865 0-1.566-.509-2.417-1.423-2.417-.625 0-1.108.558-1.108 1.397 0 .831.39 1.354 1.18 1.354.413 0 .931-.248 1.37-.903l.029.65c-.402.535-.997.871-1.537.871-1.106 0-1.819-.663-1.819-1.972 0-1.22.86-2.044 1.883-2.044 1.258 0 2.201 1.018 2.201 3.064 0 2.563-1.158 3.55-2.43 3.55a2.021 2.021 0 0 1-1.535-.674Zm5.439-3.935.563-.937-.968-.405.15-.457 1.026.252.088-1.08h.489l.09 1.07 1.025-.242.15.457-.971.405.565.937-.396.288-.7-.852-.715.852-.396-.288Zm3.459 3.709.413-.536c.384.398.882.751 1.628.751.774 0 1.324-.452 1.324-1.168 0-.758-.521-1.265-2.034-1.265v-.63c1.35 0 1.809-.52 1.809-1.188 0-.62-.426-1.009-1.102-1.009-.533 0-.984.268-1.36.646l-.442-.522c.493-.456 1.077-.793 1.831-.793 1.109 0 1.908.588 1.908 1.618 0 .767-.466 1.258-1.159 1.514v.04c.77.182 1.384.746 1.384 1.62 0 1.136-.937 1.822-2.105 1.822-1.024 0-1.665-.429-2.095-.9Z"/>
  <rect width="304.171" height="37" x="123.537" y="58.471" fill="#fff" stroke="#91288d" stroke-miterlimit="10" stroke-width="2.365" rx="15.988" ry="15.988"/>
  <rect width="151.278" height="37" x="6.431" y="58.471" fill="#92278f" stroke="#92278f" stroke-miterlimit="10" stroke-width="2.427" rx="11.275" ry="11.275"/>
  <path fill="#fff" d="M44.86 74.085h2.078l1.979 6.496h-1.82l-.739-3.158c-.16-.62-.32-1.41-.48-2.059h-.04c-.139.66-.299 1.438-.46 2.059l-.738 3.158h-1.76l1.98-6.496Zm-.56 3.787h3.178v1.33H44.3v-1.33Zm5 .95v-5.197h1.72v5.257c0 .34.159.439.279.439.06 0 .1 0 .18-.02l.2 1.26c-.18.08-.46.14-.84.14-1.16 0-1.54-.76-1.54-1.879Zm2.98 0v-5.197h1.719v5.257c0 .34.16.439.28.439.06 0 .1 0 .179-.02l.2 1.26c-.18.08-.46.14-.84.14-1.159 0-1.539-.76-1.539-1.879Zm2.72-.74c0-1.62 1.179-2.618 2.398-2.618 1.48 0 2.18 1.079 2.18 2.419 0 .3-.04.6-.071.72h-2.848c.16.599.6.798 1.16.798.34 0 .659-.1 1.019-.3l.56 1.02c-.54.38-1.26.58-1.82.58-1.459 0-2.578-.96-2.578-2.62Zm3.118-.6c0-.38-.16-.72-.68-.72-.38 0-.699.221-.8.72h1.48Zm2.402 1.34v-5.197h1.718v5.257c0 .34.16.439.28.439.06 0 .1 0 .18-.02l.2 1.26c-.18.08-.46.14-.84.14-1.159 0-1.538-.76-1.538-1.879Zm2.72-.74c0-1.62 1.179-2.618 2.399-2.618 1.478 0 2.178 1.079 2.178 2.419 0 .3-.04.6-.07.72h-2.849c.16.599.6.798 1.16.798.34 0 .66-.1 1.02-.3l.559 1.02c-.54.38-1.26.58-1.819.58-1.459 0-2.579-.96-2.579-2.62Zm3.117-.6c0-.38-.159-.72-.68-.72-.378 0-.698.221-.798.72h1.478Zm4.623 1.18v-1.74h-.66v-1.279l.76-.06.2-1.3h1.418v1.3h1.14v1.34h-1.14v1.709c0 .55.28.729.6.729.16 0 .32-.04.44-.08l.26 1.24c-.26.08-.63.18-1.18.18-1.3 0-1.839-.82-1.839-2.04Zm3.32-.58c0-1.658 1.199-2.618 2.478-2.618s2.479.96 2.479 2.618c0 1.659-1.2 2.619-2.479 2.619s-2.478-.96-2.478-2.62Zm3.198 0c0-.759-.2-1.24-.72-1.24s-.72.481-.72 1.24c0 .76.2 1.239.72 1.239s.72-.48.72-1.24Zm4.702-3.997h4.237v1.438h-2.519v1.24h2.16v1.439h-2.16v2.379h-1.719v-6.496Zm4.98 4.577v-3.078h1.718v2.858c0 .64.16.8.5.8.32 0 .5-.12.72-.44v-3.218h1.719v4.997h-1.4l-.119-.66h-.04c-.4.48-.86.78-1.54.78-1.098 0-1.558-.8-1.558-2.04Zm5.819-3.078h1.4l.12.6h.04c.399-.38.899-.72 1.579-.72 1.1 0 1.56.8 1.56 2.039v3.078h-1.72v-2.859c0-.64-.16-.8-.5-.8-.32 0-.5.14-.76.38v3.279H93v-4.997Zm5.561 2.498c0-1.658 1.258-2.618 2.678-2.618.6 0 1.08.2 1.46.52l-.8 1.099c-.22-.18-.38-.24-.56-.24-.64 0-1.02.48-1.02 1.239 0 .76.42 1.239.96 1.239.28 0 .56-.14.8-.32l.66 1.12c-.5.44-1.14.58-1.66.58-1.419 0-2.518-.96-2.518-2.62Zm5.1.58v-1.74h-.661v-1.279l.76-.06.2-1.3h1.419v1.3h1.14v1.34h-1.14v1.709c0 .55.28.729.6.729.16 0 .319-.04.439-.08l.26 1.24c-.26.08-.63.18-1.179.18-1.3 0-1.839-.82-1.839-2.04Zm3.679-4.558c0-.5.4-.86.96-.86.56 0 .959.36.959.86s-.4.86-.96.86c-.56 0-.96-.36-.96-.86Zm.1 1.48h1.72v4.997h-1.72v-4.997Zm2.62 2.498c0-1.658 1.199-2.618 2.478-2.618s2.48.96 2.48 2.618c0 1.659-1.2 2.619-2.48 2.619s-2.478-.96-2.478-2.62Zm3.198 0c0-.759-.2-1.24-.72-1.24s-.719.481-.719 1.24c0 .76.2 1.239.72 1.239s.719-.48.719-1.24Zm2.662-2.498h1.4l.118.6h.04c.4-.38.9-.72 1.58-.72 1.1 0 1.56.8 1.56 2.039v3.078h-1.72v-2.859c0-.64-.16-.8-.5-.8-.32 0-.5.14-.76.38v3.279h-1.718v-4.997Z"/>
  <path fill="#231f20" d="M172.042 77.258c0-2.115 1.246-3.405 2.911-3.405.796 0 1.42.388 1.804.81l-.457.543c-.346-.368-.78-.618-1.332-.618-1.24 0-2.064 1.014-2.064 2.649 0 1.648.787 2.682 2.03 2.682.627 0 1.102-.273 1.521-.737l.458.524c-.518.601-1.161.947-2.013.947-1.633 0-2.858-1.264-2.858-3.394Zm7.084.732-1.972-4.017h.892l.847 1.852c.21.483.408.94.634 1.43h.04c.227-.49.454-.947.655-1.43l.846-1.852h.865l-1.972 4.018v2.542h-.835V77.99Zm3.587-4.017h1.873c1.47 0 2.462.494 2.462 1.932 0 1.38-.986 2.025-2.422 2.025h-1.078v2.603h-.835v-6.56Zm1.808 3.28c1.147 0 1.694-.414 1.694-1.348 0-.946-.581-1.255-1.734-1.255h-.933v2.604h.973Zm3.353 2.794c1.916-1.91 3-3.059 3-4.095 0-.728-.395-1.243-1.209-1.243-.534 0-.992.337-1.355.763l-.478-.464c.533-.586 1.107-.97 1.934-.97 1.178 0 1.914.744 1.914 1.878 0 1.196-1.099 2.384-2.603 3.966a14.1 14.1 0 0 1 1.072-.055h1.842v.706h-4.117v-.486Zm5.088-2.789c0-2.115 1.246-3.405 2.911-3.405.796 0 1.42.388 1.804.81l-.457.543c-.346-.368-.78-.618-1.332-.618-1.24 0-2.064 1.014-2.064 2.649 0 1.648.787 2.682 2.03 2.682.626 0 1.102-.273 1.521-.737l.458.524c-.519.601-1.161.947-2.013.947-1.633 0-2.858-1.264-2.858-3.394Zm5.98 2.59h1.46v-4.693h-1.16v-.528c.58-.103 1.001-.257 1.355-.468h.628v5.69h1.316v.684h-3.599v-.685Zm4.698.132.457-.514c.257.308.65.502 1.048.502.92 0 1.684-.727 1.684-2.865 0-1.566-.509-2.417-1.423-2.417-.625 0-1.108.558-1.108 1.398 0 .83.39 1.353 1.18 1.353.413 0 .931-.248 1.37-.903l.029.65c-.401.535-.997.871-1.537.871-1.106 0-1.819-.663-1.819-1.971 0-1.221.86-2.045 1.883-2.045 1.258 0 2.201 1.018 2.201 3.064 0 2.564-1.158 3.55-2.43 3.55a2.02 2.02 0 0 1-1.535-.674Zm5.44-3.935.563-.938-.968-.405.15-.457 1.026.252.088-1.08h.489l.09 1.071 1.025-.243.15.457-.971.405.565.938-.396.288-.7-.853-.714.853-.397-.288Zm3.46 3.709.412-.537c.384.398.882.751 1.628.751.774 0 1.324-.452 1.324-1.168 0-.757-.521-1.265-2.034-1.265v-.63c1.35 0 1.809-.52 1.809-1.188 0-.62-.426-1.008-1.102-1.008-.533 0-.984.267-1.36.645l-.442-.521c.494-.456 1.078-.794 1.831-.794 1.109 0 1.908.589 1.908 1.618 0 .768-.466 1.259-1.159 1.515v.04c.77.181 1.384.745 1.384 1.62 0 1.136-.937 1.821-2.105 1.821-1.024 0-1.665-.429-2.095-.9Zm11.046-3.902h4.288v.618h-4.288v-.618Zm0 2.147h4.288v.618h-4.288v-.618Zm11.526-4.026h.863l2.374 4.124.708 1.358h.04c-.042-.661-.107-1.4-.107-2.087v-3.395h.793v6.56h-.862l-2.374-4.128-.708-1.355h-.04c.042.665.106 1.364.106 2.05v3.433h-.793v-6.56Zm6.033 4.137c0-1.621 1.06-2.556 2.25-2.556 1.192 0 2.251.935 2.251 2.556 0 1.608-1.06 2.543-2.25 2.543s-2.251-.935-2.251-2.543Zm3.653 0c0-1.113-.567-1.871-1.402-1.871s-1.402.758-1.402 1.871.566 1.858 1.402 1.858 1.402-.745 1.402-1.858Zm3.563-2.388.697-.047h1.814v.67h-2.51v-.623Zm.66-.815c0-.987.449-1.614 1.422-1.614.296 0 .587.074.808.167l-.174.628a1.341 1.341 0 0 0-.55-.125c-.459 0-.684.32-.684.948v5.622h-.822v-5.626Zm2.719 3.846v-3.078h.822v2.972c0 .904.274 1.292.917 1.292.497 0 .84-.246 1.3-.82v-3.444h.823v4.858h-.68l-.07-.76h-.027c-.45.53-.934.88-1.601.88-1.025 0-1.484-.661-1.484-1.9Zm5.505-3.078h.68l.07.7h.026c.463-.455.963-.82 1.63-.82 1.024 0 1.484.66 1.484 1.9v3.078h-.822V77.56c0-.905-.274-1.293-.917-1.293-.497 0-.841.254-1.329.746v3.519h-.822v-4.859Zm5.109 2.435c0-1.621 1.095-2.556 2.337-2.556.638 0 1.08.264 1.422.57l-.42.545c-.284-.256-.583-.43-.964-.43-.88 0-1.525.758-1.525 1.871s.61 1.858 1.502 1.858c.444 0 .838-.215 1.14-.484l.357.55c-.436.39-.987.619-1.57.619-1.293 0-2.279-.935-2.279-2.543Zm4.966.921v-2.687h-.723v-.622l.76-.047.098-1.363h.687v1.363h1.316v.67h-1.316v2.7c0 .594.191.938.75.938.173 0 .396-.065.554-.13l.158.62c-.272.092-.597.18-.9.18-1.034 0-1.385-.655-1.385-1.622Zm3.084-4.886c0-.323.248-.531.569-.531.319 0 .567.208.567.531 0 .31-.248.53-.567.53-.32 0-.569-.22-.569-.53Zm.15 1.53h.823v4.858h-.822v-4.858Zm2.1 2.435c0-1.621 1.06-2.556 2.251-2.556 1.192 0 2.251.935 2.251 2.556 0 1.608-1.06 2.543-2.25 2.543-1.191 0-2.252-.935-2.252-2.543Zm3.654 0c0-1.113-.567-1.871-1.403-1.871s-1.401.758-1.401 1.871.565 1.858 1.401 1.858 1.403-.745 1.403-1.858Zm2.127-2.435h.68l.069.7h.027c.463-.455.963-.82 1.63-.82 1.023 0 1.483.66 1.483 1.9v3.078h-.822V77.56c0-.905-.273-1.293-.917-1.293-.496 0-.84.254-1.328.746v3.519h-.822v-4.859Z"/>
  <path fill="#fff" d="M31.92 124.146h4.238v1.439H33.64v1.239h2.159v1.44h-2.16v2.378h-1.718v-6.496Zm4.98 4.577v-3.078h1.72v2.859c0 .64.16.8.5.8.32 0 .5-.12.719-.441v-3.218h1.72v4.997h-1.4l-.12-.659H40c-.4.48-.86.78-1.539.78-1.1 0-1.56-.8-1.56-2.04Zm5.82-3.078h1.4l.12.6h.04c.4-.38.899-.72 1.578-.72 1.1 0 1.56.8 1.56 2.04v3.077h-1.719v-2.858c0-.64-.16-.8-.5-.8-.32 0-.5.14-.76.38v3.278h-1.718v-4.997Zm5.56 2.498c0-1.658 1.26-2.618 2.679-2.618.6 0 1.08.2 1.459.52l-.799 1.1c-.22-.18-.38-.241-.56-.241-.64 0-1.02.48-1.02 1.24 0 .759.42 1.239.96 1.239.28 0 .56-.14.8-.32l.659 1.12c-.5.44-1.14.58-1.66.58-1.418 0-2.518-.96-2.518-2.62Zm5.1.58v-1.739h-.66v-1.28l.76-.059.2-1.3h1.42v1.3h1.14v1.34H55.1v1.708c0 .55.279.73.6.73.16 0 .319-.04.439-.08l.26 1.24c-.26.079-.63.18-1.18.18-1.3 0-1.84-.82-1.84-2.04Zm3.68-4.557c0-.5.4-.86.96-.86s.959.36.959.86-.4.86-.96.86-.96-.36-.96-.86Zm.1 1.48h1.719v4.996H57.16v-4.997Zm2.62 2.497c0-1.658 1.2-2.618 2.479-2.618s2.478.96 2.478 2.618c0 1.66-1.199 2.62-2.478 2.62s-2.479-.96-2.479-2.62Zm3.199 0c0-.759-.2-1.239-.72-1.239s-.72.48-.72 1.24c0 .759.2 1.239.72 1.239s.72-.48.72-1.24Zm2.661-2.498h1.4l.12.6h.04c.399-.38.899-.72 1.578-.72 1.1 0 1.559.8 1.559 2.04v3.077h-1.719v-2.858c0-.64-.16-.8-.5-.8-.32 0-.499.14-.759.38v3.278h-1.72v-4.997Zm8.04 3.078v-1.739h-.66v-1.28l.76-.059.2-1.3h1.418v1.3h1.14v1.34h-1.14v1.708c0 .55.28.73.6.73.16 0 .32-.04.44-.08l.26 1.24c-.26.079-.63.18-1.18.18-1.298 0-1.838-.82-1.838-2.04Zm3.32-.58c0-1.658 1.2-2.618 2.479-2.618s2.478.96 2.478 2.618c0 1.66-1.2 2.62-2.478 2.62s-2.479-.96-2.479-2.62Zm3.198 0c0-.759-.199-1.239-.72-1.239-.519 0-.72.48-.72 1.24 0 .759.201 1.239.72 1.239.521 0 .72-.48.72-1.24Zm4.702-3.997h2.378c1.42 0 2.639.52 2.639 2.158 0 1.59-1.24 2.28-2.599 2.28h-.699v2.058H84.9v-6.496Zm2.338 3.078c.68 0 1-.34 1-.92 0-.579-.38-.798-1.039-.798h-.58v1.718h.62Zm3.602-3.538h1.719v1.62l-.08.859c.34-.3.819-.64 1.499-.64 1.1 0 1.56.8 1.56 2.04v3.077h-1.72v-2.858c0-.64-.16-.8-.5-.8-.32 0-.5.14-.76.38v3.278H90.84v-6.956Zm5.56 4.457c0-1.619 1.18-2.618 2.399-2.618 1.48 0 2.179 1.08 2.179 2.42 0 .299-.04.599-.07.719H98.06c.159.6.6.799 1.159.799.34 0 .659-.1 1.02-.3l.559 1.02c-.54.38-1.26.58-1.82.58-1.458 0-2.578-.96-2.578-2.62Zm3.119-.6c0-.38-.16-.72-.68-.72-.38 0-.7.222-.8.72h1.48Zm2.401-1.898h1.4l.118.6h.04c.4-.38.9-.72 1.58-.72 1.1 0 1.56.8 1.56 2.04v3.077h-1.72v-2.858c0-.64-.16-.8-.5-.8-.32 0-.5.14-.76.38v3.278h-1.718v-4.997Zm5.56 2.498c0-1.658 1.199-2.618 2.478-2.618s2.479.96 2.479 2.618c0 1.66-1.2 2.62-2.479 2.62s-2.479-.96-2.479-2.62Zm3.198 0c0-.759-.2-1.239-.72-1.239s-.72.48-.72 1.24c0 .759.2 1.239.72 1.239s.72-.48.72-1.24Zm2.581.58v-1.739h-.66v-1.28l.76-.059.2-1.3h1.42v1.3h1.14v1.34h-1.14v1.708c0 .55.279.73.6.73.16 0 .318-.04.439-.08l.26 1.24c-.26.079-.63.18-1.18.18-1.3 0-1.84-.82-1.84-2.04Zm3.761 3.699.3-1.3c.09.02.22.06.319.06.46 0 .68-.2.78-.5l.06-.22-1.899-4.817h1.719l.6 1.92c.14.46.24.918.359 1.418h.04c.1-.48.2-.94.32-1.419l.5-1.919h1.639l-1.679 4.917c-.52 1.35-1.06 1.96-2.299 1.96-.34 0-.54-.04-.76-.1Zm5.439-6.777h1.4l.12.46h.04c.37-.34.859-.58 1.359-.58 1.179 0 1.938 1 1.938 2.54 0 1.718-1.02 2.697-2.079 2.697-.419 0-.799-.18-1.119-.5l.06.76v1.38h-1.719v-6.757Zm3.099 2.439c0-.82-.24-1.16-.7-1.16-.26 0-.46.1-.68.36v1.839c.2.18.42.24.64.24.4 0 .74-.32.74-1.28Zm2.441.059c0-1.619 1.18-2.618 2.398-2.618 1.48 0 2.18 1.08 2.18 2.42 0 .299-.04.599-.07.719h-2.849c.16.6.6.799 1.16.799.34 0 .66-.1 1.019-.3l.56 1.02c-.54.38-1.26.58-1.819.58-1.46 0-2.579-.96-2.579-2.62Zm3.118-.6c0-.38-.159-.72-.68-.72-.378 0-.699.222-.798.72h1.478Z"/>
  <path fill="#231f20" d="M172.224 119.46c0-2.115 1.246-3.405 2.91-3.405.797 0 1.42.388 1.804.81l-.457.543c-.345-.368-.779-.618-1.332-.618-1.24 0-2.063 1.014-2.063 2.65 0 1.648.787 2.68 2.03 2.68.626 0 1.102-.272 1.52-.736l.459.524c-.519.601-1.161.947-2.013.947-1.634 0-2.858-1.263-2.858-3.394Zm7.084.733-1.972-4.018h.892l.846 1.852c.21.483.408.94.635 1.43h.04c.227-.49.453-.947.654-1.43l.847-1.852h.864l-1.971 4.018v2.542h-.835v-2.542Zm3.587-4.018h1.873c1.47 0 2.461.495 2.461 1.932 0 1.381-.986 2.026-2.421 2.026h-1.079v2.602h-.834v-6.56Zm1.807 3.28c1.148 0 1.694-.414 1.694-1.348 0-.946-.58-1.255-1.733-1.255h-.933v2.604h.972Zm3.354 2.794c1.916-1.91 3-3.059 3-4.095 0-.728-.396-1.243-1.21-1.243-.534 0-.992.337-1.355.764l-.477-.465c.533-.586 1.107-.97 1.933-.97 1.179 0 1.914.744 1.914 1.878 0 1.196-1.098 2.385-2.602 3.966a14.1 14.1 0 0 1 1.072-.055h1.842v.706h-4.117v-.486Zm5.088-2.789c0-2.115 1.246-3.405 2.91-3.405.797 0 1.42.388 1.804.81l-.457.543c-.345-.368-.779-.618-1.332-.618-1.24 0-2.063 1.014-2.063 2.65 0 1.648.787 2.68 2.03 2.68.626 0 1.102-.272 1.52-.736l.459.524c-.519.601-1.161.947-2.013.947-1.634 0-2.858-1.263-2.858-3.394Zm5.98 2.59h1.46v-4.693h-1.161v-.528c.58-.103 1.002-.257 1.355-.468h.628v5.69h1.317v.684h-3.599v-.685Zm4.697.131.457-.513c.257.308.65.503 1.048.503.92 0 1.685-.728 1.685-2.866 0-1.566-.509-2.417-1.423-2.417-.625 0-1.109.558-1.109 1.398 0 .83.39 1.353 1.18 1.353.413 0 .932-.248 1.37-.903l.03.65c-.402.536-.997.872-1.538.872-1.105 0-1.818-.664-1.818-1.972 0-1.22.86-2.045 1.883-2.045 1.258 0 2.201 1.018 2.201 3.064 0 2.564-1.158 3.55-2.43 3.55a2.02 2.02 0 0 1-1.536-.674Zm5.441-3.934.562-.938-.968-.405.15-.457 1.026.252.09-1.08h.487l.09 1.071 1.026-.243.15.457-.972.405.566.938-.397.288-.7-.853-.714.853-.396-.288Zm3.982 3.803h1.46v-4.693h-1.161v-.528c.58-.103 1.002-.257 1.355-.468h.628v5.69h1.317v.684h-3.599v-.685Zm6.954-6.41h.594l-2.668 8.695h-.595l2.67-8.696Zm1.713 2.607.563-.938-.968-.405.15-.457 1.026.252.089-1.08h.488l.09 1.071 1.025-.243.15.457-.971.405.565.938-.396.288-.7-.853-.714.853-.397-.288Zm3.459 3.709.414-.536c.383.397.881.75 1.627.75.775 0 1.324-.452 1.324-1.167 0-.758-.521-1.266-2.034-1.266v-.63c1.35 0 1.809-.52 1.809-1.187 0-.62-.426-1.01-1.102-1.01-.533 0-.985.268-1.36.646l-.442-.521c.494-.456 1.078-.794 1.831-.794 1.109 0 1.908.589 1.908 1.618 0 .768-.466 1.259-1.158 1.515v.04c.77.181 1.383.745 1.383 1.62 0 1.136-.937 1.821-2.105 1.821-1.023 0-1.665-.429-2.095-.9Zm11.048-3.902h4.288v.619h-4.288v-.619Zm0 2.147h4.288v.618h-4.288v-.618Zm11.526-4.026h.863l2.374 4.125.708 1.357h.04c-.042-.661-.107-1.4-.107-2.087v-3.394h.793v6.56h-.862l-2.374-4.129-.708-1.354h-.04c.042.664.106 1.363.106 2.05v3.432h-.793v-6.56Zm6.033 4.137c0-1.62 1.06-2.555 2.25-2.555 1.192 0 2.252.934 2.252 2.555 0 1.609-1.06 2.543-2.251 2.543-1.19 0-2.251-.934-2.251-2.543Zm3.653 0c0-1.113-.567-1.87-1.402-1.87s-1.402.757-1.402 1.87.566 1.859 1.402 1.859 1.402-.746 1.402-1.859Zm2.127-2.435h.68l.069.884h.027c.338-.616.835-1.004 1.381-1.004.216 0 .366.027.519.1l-.154.72a1.353 1.353 0 0 0-.47-.08c-.412 0-.902.297-1.23 1.119v3.12h-.822v-4.86Zm3.47 0h.68l.069.704h.027c.425-.46.934-.824 1.512-.824.743 0 1.14.355 1.341.925.504-.546 1.011-.925 1.602-.925.999 0 1.479.66 1.479 1.9v3.078h-.823v-2.972c0-.905-.286-1.293-.904-1.293-.376 0-.768.247-1.217.747v3.518h-.822v-2.972c0-.905-.286-1.293-.904-1.293-.365 0-.769.246-1.218.746v3.519h-.822v-4.858Zm7.989 3.596c0-1.057.913-1.587 2.984-1.812-.003-.625-.21-1.227-1.003-1.227-.562 0-1.068.266-1.449.52l-.321-.563c.446-.294 1.128-.634 1.908-.634 1.186 0 1.686.788 1.686 1.998v2.98h-.678l-.07-.581h-.027c-.463.386-1.004.701-1.606.701-.814 0-1.424-.505-1.424-1.382Zm2.984.077v-1.35c-1.629.196-2.179.595-2.179 1.216 0 .551.375.777.852.777.469 0 .856-.228 1.327-.643Zm2.357.21v-6.145h.822v6.204c0 .252.11.352.23.352.046 0 .086 0 .18-.02l.11.627a1.314 1.314 0 0 1-.472.077c-.616 0-.87-.393-.87-1.096Zm4.026-3.835.696-.048h1.815v.67h-2.511v-.622Zm.66-.816c0-.987.448-1.614 1.422-1.614.296 0 .587.074.808.167l-.174.628a1.341 1.341 0 0 0-.551-.125c-.458 0-.684.32-.684.948v5.622h-.822v-5.626Zm2.719 3.846v-3.078h.821v2.972c0 .905.275 1.292.917 1.292.497 0 .841-.246 1.301-.819v-3.445h.822v4.858h-.68l-.069-.76h-.027c-.45.53-.935.88-1.602.88-1.024 0-1.483-.66-1.483-1.9Zm5.504-3.078h.68l.069.7h.027c.463-.455.963-.82 1.63-.82 1.024 0 1.483.66 1.483 1.9v3.078h-.822v-2.972c0-.905-.273-1.293-.917-1.293-.496 0-.84.254-1.328.747v3.518h-.822v-4.858Zm5.11 2.435c0-1.62 1.095-2.555 2.337-2.555.638 0 1.08.263 1.422.57l-.42.544c-.284-.256-.583-.43-.965-.43-.88 0-1.524.758-1.524 1.871s.61 1.859 1.502 1.859c.444 0 .838-.216 1.14-.485l.357.551c-.437.39-.988.618-1.57.618-1.293 0-2.279-.934-2.279-2.543Zm4.965.921v-2.686h-.723v-.622l.76-.048.099-1.363h.686v1.363h1.317v.67h-1.317v2.7c0 .595.192.938.751.938.173 0 .396-.065.554-.13l.158.62c-.272.092-.597.18-.901.18-1.033 0-1.384-.655-1.384-1.622Zm3.085-4.886c0-.323.248-.53.568-.53.32 0 .568.207.568.53 0 .31-.248.53-.568.53-.32 0-.568-.22-.568-.53Zm.15 1.53h.823v4.858h-.823v-4.858Zm2.1 2.435c0-1.62 1.06-2.555 2.251-2.555 1.191 0 2.25.934 2.25 2.555 0 1.609-1.059 2.543-2.25 2.543-1.19 0-2.251-.934-2.251-2.543Zm3.652 0c0-1.113-.565-1.87-1.401-1.87s-1.401.757-1.401 1.87.565 1.859 1.401 1.859 1.401-.746 1.401-1.859Zm2.128-2.435h.68l.07.7h.027c.463-.455.963-.82 1.63-.82 1.023 0 1.483.66 1.483 1.9v3.078h-.822v-2.972c0-.905-.274-1.293-.917-1.293-.496 0-.841.254-1.328.747v3.518h-.823v-4.858Zm7.421-2.237h.594l-2.668 8.695h-.595l2.67-8.696Zm1.626.535h.862l2.374 4.125.708 1.357h.04c-.042-.661-.106-1.4-.106-2.087v-3.394h.793v6.56h-.862l-2.374-4.129-.708-1.354h-.04c.042.664.106 1.363.106 2.05v3.432h-.793v-6.56Zm6.032 4.137c0-1.62 1.06-2.555 2.251-2.555 1.192 0 2.251.934 2.251 2.555 0 1.609-1.06 2.543-2.25 2.543-1.191 0-2.252-.934-2.252-2.543Zm3.653 0c0-1.113-.566-1.87-1.402-1.87s-1.401.757-1.401 1.87.565 1.859 1.401 1.859 1.402-.746 1.402-1.859Zm3.564-2.387.696-.048h1.815v.67h-2.51v-.622Zm.66-.816c0-.987.449-1.614 1.422-1.614.296 0 .587.074.808.167l-.174.628a1.341 1.341 0 0 0-.55-.125c-.459 0-.684.32-.684.948v5.622h-.823v-5.626Zm2.719 3.846v-3.078h.821v2.972c0 .905.275 1.292.917 1.292.497 0 .841-.246 1.301-.819v-3.445h.822v4.858h-.68l-.069-.76h-.027c-.45.53-.935.88-1.602.88-1.024 0-1.483-.66-1.483-1.9Zm5.504-3.078h.68l.069.7h.027c.463-.455.963-.82 1.63-.82 1.024 0 1.484.66 1.484 1.9v3.078h-.823v-2.972c0-.905-.273-1.293-.917-1.293-.496 0-.84.254-1.328.747v3.518h-.822v-4.858Zm5.11 2.435c0-1.62 1.095-2.555 2.337-2.555.638 0 1.08.263 1.422.57l-.42.544c-.284-.256-.583-.43-.965-.43-.88 0-1.524.758-1.524 1.871s.61 1.859 1.502 1.859c.444 0 .838-.216 1.14-.485l.357.551c-.437.39-.987.618-1.57.618-1.293 0-2.279-.934-2.279-2.543Zm4.965.921v-2.686h-.723v-.622l.76-.048.099-1.363h.686v1.363h1.317v.67h-1.317v2.7c0 .595.192.938.751.938.173 0 .396-.065.554-.13l.158.62c-.272.092-.597.18-.901.18-1.033 0-1.384-.655-1.384-1.622Zm3.085-4.886c0-.323.248-.53.568-.53.32 0 .568.207.568.53 0 .31-.248.53-.568.53-.32 0-.568-.22-.568-.53Zm.15 1.53h.823v4.858h-.822v-4.858Zm2.1 2.435c0-1.62 1.06-2.555 2.251-2.555 1.192 0 2.251.934 2.251 2.555 0 1.609-1.06 2.543-2.25 2.543-1.191 0-2.252-.934-2.252-2.543Zm3.652 0c0-1.113-.565-1.87-1.4-1.87s-1.402.757-1.402 1.87.565 1.859 1.401 1.859 1.401-.746 1.401-1.859Zm2.128-2.435h.68l.07.7h.027c.463-.455.963-.82 1.63-.82 1.023 0 1.483.66 1.483 1.9v3.078h-.822v-2.972c0-.905-.274-1.293-.917-1.293-.496 0-.841.254-1.328.747v3.518h-.823v-4.858Zm-190.421 14.298h.863l2.374 4.125.708 1.357h.04c-.042-.661-.107-1.4-.107-2.087v-3.394h.793v6.56h-.862l-2.374-4.129-.708-1.354h-.04c.042.664.106 1.363.106 2.05v3.432h-.793v-6.56Zm6.033 4.137c0-1.62 1.06-2.555 2.25-2.555 1.192 0 2.252.934 2.252 2.555 0 1.609-1.06 2.543-2.251 2.543-1.19 0-2.251-.934-2.251-2.543Zm3.653 0c0-1.113-.566-1.87-1.402-1.87s-1.402.757-1.402 1.87.566 1.859 1.402 1.859 1.402-.746 1.402-1.859Zm2.127-2.435h.68l.069.884h.027c.338-.616.835-1.004 1.381-1.004.216 0 .366.027.519.1l-.154.72a1.353 1.353 0 0 0-.47-.08c-.411 0-.902.297-1.23 1.119v3.12h-.822v-4.86Zm3.47 0h.68l.069.704h.027c.425-.46.934-.824 1.512-.824.743 0 1.14.355 1.342.925.504-.546 1.01-.925 1.601-.925 1 0 1.479.66 1.479 1.9v3.078h-.823v-2.972c0-.905-.286-1.293-.904-1.293-.376 0-.767.247-1.217.747v3.518h-.822v-2.972c0-.905-.286-1.293-.904-1.293-.365 0-.769.246-1.218.746v3.519h-.822v-4.858Zm7.989 3.596c0-1.057.913-1.587 2.984-1.812-.003-.625-.21-1.227-1.003-1.227-.562 0-1.068.266-1.449.52l-.321-.563c.446-.294 1.128-.634 1.908-.634 1.186 0 1.687.788 1.687 1.998v2.98h-.68l-.068-.581h-.028c-.463.386-1.004.701-1.606.701-.814 0-1.424-.505-1.424-1.382Zm2.984.077v-1.35c-1.629.196-2.178.595-2.178 1.216 0 .551.375.777.851.777.469 0 .857-.228 1.327-.643Zm2.357.21v-6.145h.822v6.204c0 .252.11.352.23.352.046 0 .086 0 .18-.02l.11.627a1.314 1.314 0 0 1-.472.077c-.616 0-.87-.393-.87-1.096Zm4.026-3.835.696-.048h1.815v.67h-2.51v-.622Zm.66-.816c0-.987.449-1.614 1.422-1.614.296 0 .587.074.808.167l-.174.628a1.341 1.341 0 0 0-.55-.125c-.459 0-.684.32-.684.948v5.622h-.823v-5.626Zm2.719 3.846v-3.078h.821v2.972c0 .905.275 1.292.917 1.292.497 0 .841-.246 1.301-.819v-3.445h.822v4.858h-.68l-.069-.76h-.027c-.45.53-.935.88-1.602.88-1.024 0-1.483-.66-1.483-1.9Zm5.505-3.078h.68l.069.7h.027c.463-.455.963-.82 1.63-.82 1.024 0 1.484.66 1.484 1.9v3.078h-.823v-2.972c0-.905-.273-1.293-.917-1.293-.496 0-.84.254-1.328.746v3.519h-.822v-4.858Zm5.109 2.435c0-1.62 1.095-2.555 2.337-2.555.638 0 1.08.263 1.422.57l-.42.544c-.284-.256-.583-.43-.965-.43-.88 0-1.524.758-1.524 1.871s.61 1.859 1.502 1.859c.444 0 .838-.216 1.14-.485l.357.551c-.437.39-.987.618-1.57.618-1.293 0-2.279-.934-2.279-2.543Zm4.965.921v-2.686h-.722v-.622l.76-.048.098-1.363h.686v1.363h1.317v.67h-1.317v2.7c0 .595.192.938.751.938.173 0 .396-.065.554-.13l.158.62c-.272.092-.597.18-.901.18-1.033 0-1.384-.655-1.384-1.622Zm3.085-4.886c0-.323.248-.53.568-.53.32 0 .568.207.568.53 0 .31-.248.53-.568.53-.32 0-.568-.22-.568-.53Zm.15 1.53h.823v4.858h-.822v-4.858Zm2.1 2.435c0-1.62 1.06-2.555 2.251-2.555 1.192 0 2.251.934 2.251 2.555 0 1.609-1.06 2.543-2.25 2.543-1.191 0-2.252-.934-2.252-2.543Zm3.652 0c0-1.113-.565-1.87-1.4-1.87s-1.402.757-1.402 1.87.565 1.859 1.401 1.859 1.401-.746 1.401-1.859Zm2.128-2.435h.68l.07.7h.027c.463-.455.963-.82 1.63-.82 1.023 0 1.483.66 1.483 1.9v3.078h-.822v-2.972c0-.905-.274-1.293-.917-1.293-.496 0-.841.254-1.328.746v3.519h-.823v-4.858Zm7.421-2.237h.594l-2.668 8.695h-.595l2.67-8.696Zm1.626.535h.863l2.374 4.125.708 1.357h.04c-.042-.661-.107-1.4-.107-2.087v-3.394h.793v6.56h-.862l-2.374-4.129-.708-1.354h-.04c.042.664.106 1.363.106 2.05v3.432h-.793v-6.56Zm6.033 4.137c0-1.62 1.06-2.555 2.25-2.555 1.192 0 2.251.934 2.251 2.555 0 1.609-1.06 2.543-2.25 2.543s-2.251-.934-2.251-2.543Zm3.652 0c0-1.113-.566-1.87-1.402-1.87s-1.4.757-1.4 1.87.565 1.859 1.4 1.859 1.402-.746 1.402-1.859Zm3.564-2.387.697-.048h1.814v.67h-2.51v-.622Zm.66-.816c0-.987.449-1.614 1.422-1.614.296 0 .587.074.808.167l-.174.628a1.341 1.341 0 0 0-.55-.125c-.459 0-.684.32-.684.948v5.622h-.823v-5.626Zm2.719 3.846v-3.078h.822v2.972c0 .905.274 1.292.916 1.292.498 0 .841-.246 1.301-.819v-3.445h.823v4.858h-.68l-.07-.76h-.027c-.45.53-.934.88-1.601.88-1.025 0-1.484-.66-1.484-1.9Zm5.505-3.078h.68l.07.7h.026c.463-.455.963-.82 1.63-.82 1.024 0 1.484.66 1.484 1.9v3.078h-.823v-2.972c0-.905-.273-1.293-.917-1.293-.496 0-.84.254-1.328.746v3.519h-.822v-4.858Zm5.109 2.435c0-1.62 1.095-2.555 2.337-2.555.638 0 1.08.263 1.422.57l-.42.544c-.284-.256-.583-.43-.965-.43-.88 0-1.524.758-1.524 1.871s.61 1.859 1.502 1.859c.444 0 .838-.216 1.14-.485l.357.551c-.436.39-.987.618-1.57.618-1.293 0-2.279-.934-2.279-2.543Zm4.965.921v-2.686h-.722v-.622l.76-.048.098-1.363h.687v1.363h1.316v.67h-1.316v2.7c0 .595.191.938.75.938.173 0 .396-.065.554-.13l.158.62c-.272.092-.597.18-.9.18-1.034 0-1.385-.655-1.385-1.622Zm3.085-4.886c0-.323.248-.53.569-.53.319 0 .567.207.567.53 0 .31-.248.53-.567.53-.32 0-.569-.22-.569-.53Zm.15 1.53h.823v4.858h-.822v-4.858Zm2.1 2.435c0-1.62 1.06-2.555 2.251-2.555 1.192 0 2.251.934 2.251 2.555 0 1.609-1.06 2.543-2.25 2.543-1.191 0-2.252-.934-2.252-2.543Zm3.653 0c0-1.113-.566-1.87-1.402-1.87s-1.401.757-1.401 1.87.565 1.859 1.401 1.859 1.402-.746 1.402-1.859Zm2.128-2.435h.68l.069.7h.027c.463-.455.963-.82 1.63-.82 1.023 0 1.483.66 1.483 1.9v3.078h-.822v-2.972c0-.905-.274-1.293-.917-1.293-.496 0-.84.254-1.328.746v3.519h-.822v-4.858Zm6.99.177h4.288v.619h-4.288v-.619Zm0 2.147h4.288v.618h-4.288v-.618Zm9.299-3.854c0-.323.248-.53.568-.53.32 0 .567.207.567.53 0 .31-.248.53-.567.53-.32 0-.568-.22-.568-.53Zm.15 1.53h.822v4.858h-.822v-4.858Zm2.46 0h.68l.069.7h.027c.463-.455.963-.82 1.63-.82 1.024 0 1.484.66 1.484 1.9v3.078h-.823v-2.972c0-.905-.273-1.293-.917-1.293-.496 0-.84.254-1.328.746v3.519h-.822v-4.858Zm5.615 3.356v-2.686h-.722v-.622l.76-.048.098-1.363h.686v1.363h1.317v.67h-1.317v2.7c0 .595.192.938.751.938.173 0 .396-.065.554-.13l.158.62c-.272.092-.597.18-.901.18-1.033 0-1.384-.655-1.384-1.622Zm2.735-.921c0-1.58 1.065-2.555 2.183-2.555 1.24 0 1.939.89 1.939 2.28 0 .173-.015.346-.038.467h-3.272c.059 1.029.689 1.696 1.614 1.696.466 0 .849-.15 1.21-.388l.293.54c-.426.278-.943.503-1.603.503-1.295 0-2.326-.947-2.326-2.543Zm3.396-.397c0-.974-.438-1.503-1.198-1.503-.683 0-1.293.549-1.394 1.503h2.592Zm1.924-2.038h.68l.069.884h.027c.338-.616.835-1.004 1.381-1.004.216 0 .366.027.519.1l-.154.72a1.353 1.353 0 0 0-.47-.08c-.411 0-.902.297-1.23 1.119v3.12h-.822v-4.86Zm3.47 0h.68l.069.704h.027c.425-.46.934-.824 1.512-.824.743 0 1.14.355 1.342.925.503-.546 1.01-.925 1.601-.925 1 0 1.479.66 1.479 1.9v3.078h-.823v-2.972c0-.905-.286-1.293-.904-1.293-.376 0-.768.247-1.217.747v3.518h-.822v-2.972c0-.905-.286-1.293-.904-1.293-.365 0-.769.246-1.218.746v3.519h-.822v-4.858Zm7.929 2.435c0-1.58 1.066-2.555 2.184-2.555 1.24 0 1.938.89 1.938 2.28 0 .173-.014.346-.038.467h-3.271c.058 1.029.688 1.696 1.614 1.696.466 0 .849-.15 1.209-.388l.294.54c-.426.278-.943.503-1.604.503-1.295 0-2.326-.947-2.326-2.543Zm3.397-.397c0-.974-.439-1.503-1.198-1.503-.683 0-1.293.549-1.394 1.503h2.592Zm1.578.397c0-1.576.994-2.555 2.101-2.555.566 0 .936.212 1.363.563l-.035-.834v-1.871h.822v7.12h-.68l-.07-.573h-.026c-.377.378-.896.693-1.474.693-1.214 0-2.001-.924-2.001-2.543Zm3.429 1.189v-2.547c-.415-.37-.788-.505-1.185-.505-.777 0-1.394.749-1.394 1.855 0 1.165.481 1.859 1.333 1.859.449 0 .838-.219 1.246-.662Zm2.316-5.154c0-.323.248-.53.568-.53.32 0 .568.207.568.53 0 .31-.248.53-.568.53-.32 0-.568-.22-.568-.53Zm.15 1.53h.823v4.858h-.823v-4.858Zm2.16 3.596c0-1.057.913-1.587 2.984-1.812-.003-.625-.21-1.227-1.003-1.227-.562 0-1.068.266-1.45.52l-.32-.563c.446-.294 1.127-.634 1.908-.634 1.185 0 1.686.788 1.686 1.998v2.98h-.678l-.07-.581h-.027c-.463.386-1.004.701-1.607.701-.813 0-1.423-.505-1.423-1.382Zm2.984.077v-1.35c-1.629.196-2.179.595-2.179 1.216 0 .551.375.777.852.777.469 0 .856-.228 1.327-.643Zm2.362-.317v-2.686h-.723v-.622l.76-.048.098-1.363h.687v1.363h1.316v.67h-1.316v2.7c0 .595.191.938.75.938.173 0 .396-.065.554-.13l.158.62c-.272.092-.597.18-.9.18-1.034 0-1.385-.655-1.385-1.622Zm2.735-.921c0-1.58 1.065-2.555 2.183-2.555 1.24 0 1.939.89 1.939 2.28 0 .173-.015.346-.038.467h-3.272c.059 1.029.689 1.696 1.614 1.696.466 0 .849-.15 1.21-.388l.293.54c-.425.278-.943.503-1.603.503-1.295 0-2.326-.947-2.326-2.543Zm3.396-.397c0-.974-.438-1.503-1.198-1.503-.683 0-1.293.549-1.394 1.503h2.592Zm3.924-2.038h.68l.069.704h.027c.425-.46.934-.824 1.512-.824.743 0 1.14.355 1.342.925.504-.546 1.01-.925 1.601-.925 1 0 1.479.66 1.479 1.9v3.078h-.822v-2.972c0-.905-.286-1.293-.905-1.293-.376 0-.767.247-1.216.747v3.518h-.823v-2.972c0-.905-.286-1.293-.904-1.293-.364 0-.769.246-1.218.746v3.519h-.822v-4.858Zm7.93 2.435c0-1.58 1.065-2.555 2.183-2.555 1.24 0 1.939.89 1.939 2.28 0 .173-.015.346-.038.467h-3.272c.059 1.029.689 1.696 1.614 1.696.466 0 .849-.15 1.21-.388l.293.54c-.425.278-.943.503-1.603.503-1.295 0-2.326-.947-2.326-2.543Zm3.396-.397c0-.974-.438-1.503-1.198-1.503-.683 0-1.293.549-1.394 1.503h2.592Zm1.968 1.318v-2.686h-.723v-.622l.76-.048.099-1.363h.686v1.363h1.317v.67H374.2v2.7c0 .595.192.938.751.938.173 0 .396-.065.554-.13l.158.62c-.272.092-.598.18-.901.18-1.034 0-1.384-.655-1.384-1.622Zm2.725.24c0-1.057.913-1.587 2.984-1.812-.003-.625-.21-1.227-1.003-1.227-.563 0-1.068.266-1.45.52l-.32-.563c.446-.294 1.127-.634 1.908-.634 1.185 0 1.686.788 1.686 1.998v2.98h-.679l-.069-.581h-.027c-.463.386-1.004.701-1.607.701-.813 0-1.423-.505-1.423-1.382Zm2.984.077v-1.35c-1.629.196-2.179.595-2.179 1.216 0 .551.375.777.852.777.468 0 .856-.228 1.327-.643Zm3.118.683h-.027l-.077.502h-.658v-7.12h.823v1.947l-.028.871c.445-.383.986-.676 1.527-.676 1.255 0 1.93.974 1.93 2.471 0 1.66-.995 2.627-2.104 2.627-.453 0-.956-.232-1.386-.622Zm2.64-1.993c0-1.072-.366-1.791-1.28-1.791-.412 0-.84.226-1.3.663v2.546c.428.37.863.505 1.183.505.805 0 1.398-.724 1.398-1.923Zm1.768.072c0-1.62 1.06-2.555 2.251-2.555 1.192 0 2.251.934 2.251 2.555 0 1.609-1.06 2.543-2.25 2.543-1.191 0-2.252-.934-2.252-2.543Zm3.653 0c0-1.113-.566-1.87-1.402-1.87s-1.401.757-1.401 1.87.565 1.859 1.401 1.859 1.402-.746 1.402-1.859Zm2.087 1.448v-6.145h.823v6.204c0 .252.11.352.23.352.047 0 .086 0 .179-.02l.111.627a1.314 1.314 0 0 1-.472.077c-.617 0-.87-.393-.87-1.096Zm2.4-5.413c0-.323.248-.53.568-.53.32 0 .568.207.568.53 0 .31-.248.53-.568.53-.32 0-.568-.22-.568-.53Zm.15 1.53h.823v4.858h-.823v-4.858Zm1.952 4.419 2.556-3.75h-2.272v-.67h3.312v.44l-2.556 3.75h2.641v.67h-3.68v-.44Zm4.297-1.984c0-1.58 1.066-2.555 2.184-2.555 1.24 0 1.938.89 1.938 2.28 0 .173-.014.346-.038.467h-3.271c.058 1.029.688 1.696 1.614 1.696.466 0 .849-.15 1.21-.388l.293.54c-.426.278-.943.503-1.604.503-1.294 0-2.326-.947-2.326-2.543Zm3.397-.397c0-.974-.439-1.503-1.198-1.503-.683 0-1.293.549-1.394 1.503h2.592Zm1.924-2.038h.68l.069.884h.027c.338-.616.835-1.004 1.38-1.004.217 0 .367.027.52.1l-.154.72a1.353 1.353 0 0 0-.47-.08c-.412 0-.902.297-1.23 1.119v3.12h-.822v-4.86Z"/>
  <rect width="304.171" height="37" x="123.537" y="159.741" fill="#fff" stroke="#ee2c7b" stroke-miterlimit="10" stroke-width="2.365" rx="15.988" ry="15.988"/>
  <rect width="151.278" height="37" x="6.431" y="159.741" fill="#ee2a7b" stroke="#ee2a7b" stroke-miterlimit="10" stroke-width="2.427" rx="11.275" ry="11.275"/>
  <path fill="#fff" d="M16.36 174.384h2.38c1.418 0 2.638.52 2.638 2.159 0 1.59-1.24 2.279-2.599 2.279h-.7v2.059H16.36v-6.497Zm2.34 3.079c.679 0 .998-.34.998-.92 0-.58-.38-.8-1.039-.8h-.58v1.72h.62Zm3.6-1.58h1.4l.12.86h.04c.37-.68.93-.98 1.42-.98.309 0 .479.04.618.1l-.279 1.48c-.18-.04-.34-.08-.56-.08-.36 0-.8.22-1.04.84v2.778h-1.718v-4.997Zm3.821 2.499c0-1.62 1.179-2.619 2.399-2.619 1.479 0 2.178 1.08 2.178 2.42 0 .3-.04.599-.07.72H27.78c.16.599.6.798 1.16.798.34 0 .659-.1 1.019-.3l.56 1.02c-.54.38-1.26.58-1.82.58-1.459 0-2.578-.96-2.578-2.62Zm3.118-.6c0-.38-.16-.72-.68-.72-.38 0-.699.22-.8.72h1.48Zm2.001 2.518.76-1.058c.46.34.87.499 1.22.499.36 0 .5-.1.5-.3 0-.26-.46-.38-.96-.579-.58-.23-1.259-.66-1.259-1.48 0-.979.799-1.619 1.978-1.619.82 0 1.4.33 1.84.66l-.76 1.02c-.36-.26-.71-.42-1.02-.42-.289 0-.44.08-.44.28 0 .26.44.36.94.54.6.22 1.28.6 1.28 1.499 0 .939-.74 1.659-2.14 1.659-.639 0-1.418-.28-1.939-.7Zm4.66-1.918c0-1.659 1.26-2.619 2.68-2.619.599 0 1.078.2 1.458.52l-.799 1.1c-.22-.18-.38-.24-.56-.24-.64 0-1.02.48-1.02 1.239 0 .76.42 1.239.96 1.239.28 0 .56-.14.8-.32l.66 1.12c-.5.44-1.14.58-1.66.58-1.419 0-2.519-.96-2.519-2.62Zm4.98-2.499h1.4l.12.86h.04c.37-.68.93-.98 1.418-.98.31 0 .48.04.62.1l-.28 1.48c-.18-.04-.34-.08-.56-.08-.359 0-.8.22-1.038.84v2.778h-1.72v-4.997Zm4.08-1.479c0-.5.4-.86.959-.86.56 0 .96.36.96.86s-.4.86-.96.86c-.56 0-.959-.36-.959-.86Zm.1 1.48h1.72v4.997h-1.72v-4.997Zm4.399 4.456h-.04l-.14.54H47.94v-6.955h1.72v1.619l-.04.72c.349-.32.79-.5 1.229-.5 1.18 0 1.949.998 1.949 2.528 0 1.73-1.02 2.709-2.08 2.709-.439 0-.88-.22-1.259-.66Zm1.58-2.018c0-.82-.24-1.16-.7-1.16-.26 0-.46.1-.68.36v1.84c.2.18.42.24.64.24.4 0 .74-.32.74-1.28Zm2.601-3.918c0-.5.4-.86.96-.86s.959.36.959.86-.4.86-.96.86-.96-.36-.96-.86Zm.1 1.48h1.719v4.997H53.74v-4.997Zm2.88-.001h1.4l.119.6h.04c.4-.38.9-.72 1.579-.72 1.1 0 1.56.8 1.56 2.04v3.078h-1.72v-2.859c0-.64-.16-.8-.5-.8-.32 0-.5.14-.76.38v3.279H56.62v-4.998Zm5.54 5.817c0-.41.24-.72.7-.96v-.04c-.26-.179-.46-.44-.46-.858 0-.34.22-.7.56-.94v-.04c-.36-.24-.68-.7-.68-1.28 0-1.239 1.04-1.819 2.139-1.819.28 0 .56.04.799.12h1.86v1.24h-.72c.04.12.08.32.08.52 0 1.179-.9 1.658-2.019 1.658-.16 0-.34-.02-.56-.07-.1.09-.12.15-.12.29 0 .22.2.3.7.3h.75c1.249 0 1.968.38 1.968 1.3 0 1.079-1.119 1.818-2.898 1.818-1.14 0-2.099-.34-2.099-1.24Zm3.359-.28c0-.26-.24-.3-.67-.3h-.39c-.4 0-.58-.02-.72-.06-.12.12-.18.22-.18.36 0 .32.4.46.98.46.56 0 .98-.18.98-.46Zm-.561-3.837c0-.46-.22-.68-.539-.68-.32 0-.54.22-.54.68 0 .48.22.699.54.699.32 0 .539-.22.539-.7Zm5.082-3.199h2.458c1.4 0 2.599.48 2.599 2.1 0 1.568-1.2 2.218-2.599 2.218h-.74v2.179H70.04v-6.497Zm2.338 2.958c.68 0 1.04-.3 1.04-.859s-.36-.74-1.04-.74h-.62v1.6h.62Zm-.19.91 1.16-1.139 2.109 3.768h-1.919l-1.35-2.63Zm3.652.13c0-1.62 1.179-2.619 2.398-2.619 1.48 0 2.179 1.08 2.179 2.42 0 .3-.04.599-.07.72h-2.848c.16.599.6.798 1.16.798.339 0 .658-.1 1.019-.3l.56 1.02c-.54.38-1.26.58-1.82.58-1.459 0-2.578-.96-2.578-2.62Zm3.118-.6c0-.38-.16-.72-.68-.72-.38 0-.699.22-.8.72h1.48Zm2.142.6c0-1.659 1.258-2.619 2.678-2.619.6 0 1.08.2 1.46.52l-.8 1.1c-.22-.18-.38-.24-.56-.24-.64 0-1.02.48-1.02 1.239 0 .76.42 1.239.96 1.239.28 0 .56-.14.8-.32l.66 1.12c-.5.44-1.14.58-1.66.58-1.419 0-2.518-.96-2.518-2.62Zm4.42 0c0-1.659 1.199-2.619 2.478-2.619s2.479.96 2.479 2.619c0 1.659-1.2 2.619-2.479 2.619s-2.478-.96-2.478-2.62Zm3.198 0c0-.76-.2-1.24-.72-1.24s-.72.48-.72 1.24.2 1.239.72 1.239.72-.48.72-1.24Zm2.661-2.499h1.4l.12.61h.04c.399-.39.819-.73 1.499-.73s1.109.28 1.378.8c.41-.42.86-.8 1.54-.8 1.1 0 1.58.8 1.58 2.04v3.078h-1.72v-2.859c0-.64-.16-.8-.5-.8-.2 0-.44.12-.7.38v3.279h-1.718v-2.859c0-.64-.16-.8-.5-.8-.2 0-.44.12-.7.38v3.279h-1.72v-4.997Zm8.681 0h1.399l.12.61h.04c.4-.39.82-.73 1.5-.73.678 0 1.109.28 1.378.8.41-.42.86-.8 1.54-.8 1.099 0 1.578.8 1.578 2.04v3.078h-1.719v-2.859c0-.64-.16-.8-.5-.8-.2 0-.439.12-.699.38v3.279h-1.72v-2.859c0-.64-.159-.8-.498-.8-.2 0-.44.12-.7.38v3.279h-1.72v-4.997Zm8.42 2.499c0-1.62 1.178-2.619 2.398-2.619 1.48 0 2.179 1.08 2.179 2.42 0 .3-.04.599-.07.72h-2.848c.159.599.6.798 1.159.798.34 0 .659-.1 1.02-.3l.559 1.02c-.54.38-1.26.58-1.82.58-1.458 0-2.578-.96-2.578-2.62Zm3.118-.6c0-.38-.16-.72-.68-.72-.38 0-.7.22-.8.72h1.48Zm2.401-1.899h1.4l.119.6h.04c.4-.38.899-.72 1.579-.72 1.1 0 1.56.8 1.56 2.04v3.078h-1.72v-2.859c0-.64-.16-.8-.5-.8-.32 0-.5.14-.76.38v3.279H114v-4.998Zm5.6 2.499c0-1.64 1.02-2.619 2.039-2.619.54 0 .86.2 1.159.5l-.06-.72v-1.618h1.72v6.956h-1.4l-.12-.46h-.04c-.34.34-.82.58-1.26.58-1.239 0-2.038-1-2.038-2.62Zm3.138.86v-1.84c-.2-.18-.46-.24-.68-.24-.36 0-.7.32-.7 1.2 0 .9.28 1.24.74 1.24.26 0 .46-.08.64-.36Zm2.682.22c0-1.04.8-1.62 2.719-1.82-.04-.36-.26-.52-.7-.52-.36 0-.74.14-1.26.42l-.599-1.12c.7-.418 1.42-.659 2.198-.659 1.3 0 2.08.7 2.08 2.34v2.778h-1.4l-.12-.48h-.04c-.4.36-.839.6-1.379.6-.94 0-1.499-.72-1.499-1.54Zm2.719-.12v-.68c-.82.12-1.08.38-1.08.659 0 .23.16.36.46.36.28 0 .44-.14.62-.34Zm2.86-.38v-1.74h-.66v-1.279l.76-.06.2-1.3h1.42v1.3h1.14v1.34h-1.14v1.708c0 .55.28.73.6.73.16 0 .319-.04.439-.08l.26 1.24c-.26.08-.63.18-1.18.18-1.299 0-1.839-.82-1.839-2.04Zm3.681-4.558c0-.5.4-.86.959-.86.56 0 .96.36.96.86s-.4.86-.96.86c-.56 0-.96-.36-.96-.86Zm.1 1.48h1.72v4.997h-1.72v-4.997Zm2.619 2.498c0-1.659 1.2-2.619 2.479-2.619s2.478.96 2.478 2.619c0 1.659-1.199 2.619-2.478 2.619s-2.479-.96-2.479-2.62Zm3.199 0c0-.76-.2-1.24-.72-1.24s-.72.48-.72 1.24.2 1.239.72 1.239.72-.48.72-1.24Zm2.662-2.499h1.4l.118.6h.04c.4-.38.9-.72 1.58-.72 1.1 0 1.56.8 1.56 2.04v3.078h-1.72v-2.859c0-.64-.16-.8-.5-.8-.32 0-.5.14-.76.38v3.279h-1.718v-4.998Z"/>
  <path fill="#231f20" d="M172.224 177.41c0-2.115 1.246-3.405 2.91-3.405.797 0 1.42.387 1.804.81l-.457.542c-.345-.368-.779-.618-1.332-.618-1.24 0-2.063 1.015-2.063 2.65 0 1.648.787 2.681 2.03 2.681.626 0 1.102-.272 1.52-.736l.459.523c-.519.602-1.161.947-2.013.947-1.634 0-2.858-1.263-2.858-3.394Zm7.084.732-1.972-4.017h.892l.846 1.851c.21.484.408.94.635 1.43h.04c.227-.49.453-.946.654-1.43l.847-1.851h.864l-1.971 4.017v2.542h-.835v-2.542Zm3.587-4.017h1.873c1.47 0 2.461.494 2.461 1.931 0 1.381-.986 2.026-2.421 2.026h-1.079v2.602h-.834v-6.56Zm1.807 3.28c1.148 0 1.694-.415 1.694-1.349 0-.946-.58-1.255-1.733-1.255h-.933v2.604h.972Zm3.354 2.793c1.916-1.91 3-3.059 3-4.095 0-.727-.396-1.243-1.21-1.243-.534 0-.992.337-1.355.764l-.477-.465c.533-.586 1.107-.969 1.933-.969 1.179 0 1.914.743 1.914 1.877 0 1.196-1.098 2.385-2.602 3.966.345-.027.741-.055 1.072-.055h1.842v.706h-4.117v-.486Zm5.088-2.788c0-2.115 1.246-3.405 2.91-3.405.797 0 1.42.387 1.804.81l-.457.542c-.345-.368-.779-.618-1.332-.618-1.24 0-2.063 1.015-2.063 2.65 0 1.648.787 2.681 2.03 2.681.626 0 1.102-.272 1.52-.736l.459.523c-.519.602-1.161.947-2.013.947-1.634 0-2.858-1.263-2.858-3.394Zm5.98 2.59h1.46v-4.694h-1.161v-.528c.58-.103 1.002-.257 1.355-.468h.628V180h1.317v.684h-3.599V180Zm4.697.13.457-.513c.257.308.65.503 1.048.503.92 0 1.685-.728 1.685-2.865 0-1.567-.509-2.417-1.423-2.417-.625 0-1.109.557-1.109 1.397 0 .831.39 1.354 1.18 1.354.413 0 .932-.248 1.37-.904l.03.65c-.402.536-.997.872-1.538.872-1.105 0-1.818-.663-1.818-1.972 0-1.22.86-2.045 1.883-2.045 1.258 0 2.201 1.019 2.201 3.065 0 2.563-1.158 3.55-2.43 3.55a2.02 2.02 0 0 1-1.536-.674Zm7.126-5.833c0-.324.248-.532.569-.532.319 0 .567.208.567.532 0 .31-.248.53-.567.53-.32 0-.569-.22-.569-.53Zm.15 1.529h.823v4.858h-.822v-4.858Zm2.461 0h.68l.069.701h.027c.463-.456.963-.821 1.63-.821 1.023 0 1.483.66 1.483 1.9v3.078h-.822v-2.971c0-.906-.273-1.293-.917-1.293-.496 0-.84.254-1.328.746v3.518h-.822v-4.858Zm5.614 3.356v-2.686h-.723v-.622l.76-.048.099-1.362h.686v1.362h1.317v.67h-1.317v2.7c0 .595.192.938.751.938.173 0 .396-.065.554-.13l.158.62c-.272.093-.598.18-.901.18-1.034 0-1.384-.655-1.384-1.622Zm2.735-.921c0-1.58 1.066-2.555 2.184-2.555 1.24 0 1.938.89 1.938 2.28 0 .173-.014.347-.038.467h-3.271c.058 1.03.688 1.696 1.614 1.696.466 0 .849-.15 1.209-.388l.294.54c-.426.278-.943.503-1.604.503-1.295 0-2.326-.947-2.326-2.543Zm3.397-.397c0-.974-.439-1.503-1.199-1.503-.682 0-1.292.549-1.393 1.503h2.592Zm1.923-2.038h.68l.069.885h.027c.338-.617.835-1.005 1.38-1.005.217 0 .367.027.52.1l-.154.721a1.353 1.353 0 0 0-.47-.08c-.412 0-.902.296-1.23 1.118v3.12h-.822v-4.86Zm3.47 0h.68l.07.704h.027c.424-.459.933-.824 1.511-.824.744 0 1.141.355 1.342.926.504-.546 1.01-.926 1.602-.926.999 0 1.478.66 1.478 1.9v3.078h-.822v-2.971c0-.906-.286-1.293-.904-1.293-.376 0-.768.246-1.217.746v3.518h-.822v-2.971c0-.906-.287-1.293-.905-1.293-.364 0-.768.246-1.217.746v3.518h-.823v-4.858Zm7.93 2.435c0-1.58 1.065-2.555 2.184-2.555 1.239 0 1.938.89 1.938 2.28 0 .173-.015.347-.038.467h-3.272c.059 1.03.689 1.696 1.615 1.696.466 0 .848-.15 1.209-.388l.294.54c-.426.278-.944.503-1.604.503-1.296 0-2.326-.947-2.326-2.543Zm3.396-.397c0-.974-.438-1.503-1.198-1.503-.682 0-1.293.549-1.393 1.503h2.591Zm1.577.397c0-1.576.995-2.555 2.102-2.555.566 0 .936.213 1.362.563l-.035-.834v-1.87h.823v7.12h-.68l-.07-.574h-.027c-.377.378-.895.693-1.473.693-1.214 0-2.001-.923-2.001-2.543Zm3.43 1.189v-2.547c-.416-.37-.789-.505-1.185-.505-.778 0-1.395.75-1.395 1.856 0 1.165.482 1.858 1.333 1.858.45 0 .84-.219 1.246-.662Zm2.317-5.153c0-.324.248-.532.568-.532.32 0 .567.208.567.532 0 .31-.248.53-.567.53-.32 0-.568-.22-.568-.53Zm.15 1.529h.822v4.858h-.822v-4.858Zm2.158 3.597c0-1.058.913-1.587 2.985-1.813-.003-.625-.21-1.226-1.003-1.226-.563 0-1.069.265-1.45.52l-.32-.563c.446-.294 1.127-.635 1.907-.635 1.186 0 1.687.788 1.687 1.998v2.98h-.679l-.07-.58h-.026c-.463.385-1.004.7-1.607.7-.813 0-1.424-.504-1.424-1.381Zm2.985.076v-1.349c-1.63.195-2.18.594-2.18 1.215 0 .552.376.777.852.777.47 0 .857-.228 1.328-.643Zm2.361-.317v-2.686h-.723v-.622l.76-.048.099-1.362h.686v1.362h1.317v.67h-1.317v2.7c0 .595.192.938.751.938.173 0 .396-.065.554-.13l.158.62c-.272.093-.598.18-.901.18-1.033 0-1.384-.655-1.384-1.622Zm2.735-.921c0-1.58 1.066-2.555 2.184-2.555 1.24 0 1.938.89 1.938 2.28 0 .173-.014.347-.038.467h-3.271c.058 1.03.688 1.696 1.614 1.696.466 0 .849-.15 1.21-.388l.293.54c-.426.278-.943.503-1.603.503-1.296 0-2.327-.947-2.327-2.543Zm3.397-.397c0-.974-.439-1.503-1.198-1.503-.683 0-1.293.549-1.394 1.503h2.592Zm3.924-2.038h.68l.069.704h.027c.425-.459.934-.824 1.512-.824.743 0 1.14.355 1.342.926.503-.546 1.01-.926 1.601-.926 1 0 1.479.66 1.479 1.9v3.078h-.823v-2.971c0-.906-.286-1.293-.904-1.293-.376 0-.768.246-1.217.746v3.518h-.822v-2.971c0-.906-.286-1.293-.904-1.293-.365 0-.769.246-1.218.746v3.518h-.822v-4.858Zm7.929 2.435c0-1.58 1.066-2.555 2.184-2.555 1.24 0 1.938.89 1.938 2.28 0 .173-.014.347-.038.467h-3.27c.058 1.03.688 1.696 1.614 1.696.466 0 .849-.15 1.21-.388l.293.54c-.426.278-.943.503-1.603.503-1.296 0-2.327-.947-2.327-2.543Zm3.397-.397c0-.974-.439-1.503-1.198-1.503-.683 0-1.293.549-1.394 1.503h2.592Zm1.967 1.318v-2.686h-.722v-.622l.76-.048.098-1.362h.687v1.362h1.316v.67h-1.316v2.7c0 .595.191.938.75.938.174 0 .396-.065.555-.13l.158.62c-.273.093-.598.18-.902.18-1.033 0-1.383-.655-1.383-1.622Zm2.725.241c0-1.058.913-1.587 2.985-1.813-.003-.625-.21-1.226-1.003-1.226-.563 0-1.069.265-1.45.52l-.32-.563c.445-.294 1.127-.635 1.907-.635 1.186 0 1.687.788 1.687 1.998v2.98h-.679l-.07-.58h-.027c-.462.385-1.003.7-1.606.7-.813 0-1.424-.504-1.424-1.381Zm2.985.076v-1.349c-1.63.195-2.18.594-2.18 1.215 0 .552.376.777.852.777.47 0 .857-.228 1.328-.643Zm3.118.683h-.028l-.077.502h-.657v-7.12h.822v1.947l-.027.872c.444-.383.985-.677 1.526-.677 1.255 0 1.93.974 1.93 2.471 0 1.66-.994 2.627-2.104 2.627-.453 0-.956-.232-1.385-.622Zm2.64-1.993c0-1.072-.366-1.79-1.28-1.79-.412 0-.84.225-1.3.662v2.546c.428.37.863.505 1.183.505.805 0 1.397-.724 1.397-1.923Zm1.768.072c0-1.62 1.06-2.555 2.25-2.555 1.192 0 2.252.934 2.252 2.555 0 1.609-1.06 2.543-2.251 2.543-1.19 0-2.251-.934-2.251-2.543Zm3.653 0c0-1.113-.566-1.87-1.402-1.87s-1.401.757-1.401 1.87.565 1.859 1.4 1.859 1.403-.745 1.403-1.859Zm2.087 1.448v-6.145h.822v6.204c0 .252.11.352.23.352.047 0 .087 0 .18-.02l.11.627a1.314 1.314 0 0 1-.472.077c-.616 0-.87-.393-.87-1.095Zm2.4-5.412c0-.324.248-.532.568-.532.32 0 .567.208.567.532 0 .31-.248.53-.567.53-.32 0-.568-.22-.568-.53Zm.15 1.529h.822v4.858h-.822v-4.858Zm1.952 4.419 2.556-3.75h-2.273v-.67h3.313v.44l-2.556 3.75h2.64v.67h-3.68v-.44Zm4.298-1.984c0-1.58 1.065-2.555 2.184-2.555 1.239 0 1.938.89 1.938 2.28 0 .173-.015.347-.038.467h-3.272c.06 1.03.689 1.696 1.615 1.696.466 0 .848-.15 1.209-.388l.294.54c-.426.278-.944.503-1.604.503-1.295 0-2.326-.947-2.326-2.543Zm3.396-.397c0-.974-.438-1.503-1.198-1.503-.682 0-1.293.549-1.393 1.503h2.591Zm1.923-2.038h.68l.07.885h.027c.338-.617.835-1.005 1.38-1.005.216 0 .367.027.52.1l-.154.721a1.353 1.353 0 0 0-.47-.08c-.412 0-.902.296-1.23 1.118v3.12h-.823v-4.86Zm6.992.178h4.288v.618h-4.288v-.618Zm0 2.146h4.288v.618h-4.288v-.618Zm9.148 1.273c0-1.058.913-1.587 2.984-1.813-.003-.625-.21-1.226-1.003-1.226-.562 0-1.068.265-1.449.52l-.321-.563c.446-.294 1.128-.635 1.908-.635 1.186 0 1.687.788 1.687 1.998v2.98h-.68l-.068-.58h-.028c-.463.385-1.004.7-1.606.7-.814 0-1.424-.504-1.424-1.381Zm2.984.076v-1.349c-1.629.195-2.178.594-2.178 1.215 0 .552.375.777.851.777.469 0 .857-.228 1.327-.643Zm1.658-3.673h.847l.918 2.76c.146.474.304.968.448 1.432h.04c.146-.464.304-.958.449-1.432l.919-2.76h.805l-1.718 4.858h-.956l-1.752-4.858Zm4.968 2.435c0-1.62 1.06-2.555 2.251-2.555 1.192 0 2.251.934 2.251 2.555 0 1.609-1.06 2.543-2.25 2.543-1.191 0-2.252-.934-2.252-2.543Zm3.654 0c0-1.113-.567-1.87-1.403-1.87s-1.401.757-1.401 1.87.565 1.859 1.401 1.859 1.403-.745 1.403-1.859Zm1.976-3.964c0-.324.248-.532.569-.532.319 0 .567.208.567.532 0 .31-.248.53-.567.53-.32 0-.569-.22-.569-.53Zm.15 1.529h.823v4.858h-.822v-4.858Zm2.115 2.435c0-1.576.994-2.555 2.101-2.555.566 0 .936.213 1.363.563l-.035-.834v-1.87h.822v7.12h-.68l-.07-.574h-.027c-.377.378-.895.693-1.473.693-1.214 0-2.001-.923-2.001-2.543Zm3.429 1.189v-2.547c-.415-.37-.789-.505-1.185-.505-.777 0-1.395.75-1.395 1.856 0 1.165.482 1.858 1.333 1.858.45 0 .84-.219 1.247-.662Zm4.106-1.189c0-1.62 1.095-2.555 2.337-2.555.638 0 1.08.263 1.422.57l-.421.544c-.283-.256-.582-.43-.964-.43-.88 0-1.524.758-1.524 1.871s.609 1.859 1.502 1.859c.444 0 .837-.216 1.14-.485l.357.551c-.437.39-.988.618-1.57.618-1.294 0-2.279-.934-2.279-2.543Zm4.92 1.448v-6.145h.822v6.204c0 .252.11.352.23.352.047 0 .087 0 .18-.02l.11.627a1.314 1.314 0 0 1-.472.077c-.616 0-.87-.393-.87-1.095Zm2.189-1.448c0-1.62 1.06-2.555 2.251-2.555 1.192 0 2.251.934 2.251 2.555 0 1.609-1.06 2.543-2.25 2.543-1.191 0-2.252-.934-2.252-2.543Zm3.654 0c0-1.113-.567-1.87-1.403-1.87s-1.401.757-1.401 1.87.565 1.859 1.401 1.859 1.403-.745 1.403-1.859Zm2.127-2.435h.68l.069.56h.027c.44-.364.985-.68 1.549-.68 1.255 0 1.926.974 1.926 2.475 0 1.657-.995 2.623-2.104 2.623-.445 0-.901-.205-1.347-.563l.022.849v1.644h-.822v-6.908Zm3.402 2.363c0-1.072-.366-1.79-1.281-1.79-.411 0-.826.225-1.3.662v2.546c.441.37.863.505 1.184.505.804 0 1.397-.724 1.397-1.923Zm1.997-3.892c0-.324.248-.532.568-.532.32 0 .568.208.568.532 0 .31-.248.53-.568.53-.32 0-.568-.22-.568-.53Zm.15 1.529h.823v4.858h-.823v-4.858Zm2.115 2.435c0-1.576.994-2.555 2.101-2.555.566 0 .936.213 1.363.563l-.036-.834v-1.87h.823v7.12h-.68l-.07-.574h-.027c-.377.378-.895.693-1.473.693-1.214 0-2.001-.923-2.001-2.543Zm3.428 1.189v-2.547c-.415-.37-.788-.505-1.184-.505-.777 0-1.395.75-1.395 1.856 0 1.165.482 1.858 1.333 1.858.45 0 .84-.219 1.246-.662Zm2.107-1.189c0-1.62 1.06-2.555 2.25-2.555 1.192 0 2.252.934 2.252 2.555 0 1.609-1.06 2.543-2.251 2.543-1.19 0-2.251-.934-2.251-2.543Zm3.652 0c0-1.113-.565-1.87-1.401-1.87s-1.402.757-1.402 1.87.566 1.859 1.402 1.859 1.401-.745 1.401-1.859Zm1.76 3.357c0-.416.266-.809.713-1.099v-.04a.899.899 0 0 1-.435-.797c0-.402.284-.724.534-.901v-.04a1.687 1.687 0 0 1-.628-1.305c0-1.062.836-1.73 1.823-1.73.266 0 .509.052.685.12h1.695v.633h-.997c.23.221.395.585.395 1 0 1.04-.786 1.684-1.778 1.684-.237 0-.505-.058-.725-.165-.176.147-.31.308-.31.574 0 .309.2.528.852.528h.946c1.128 0 1.697.354 1.697 1.16 0 .902-.955 1.68-2.456 1.68-1.19 0-2.011-.466-2.011-1.302Zm3.661-.255c0-.45-.34-.604-.978-.604h-.84c-.184 0-.414-.019-.63-.072-.348.246-.495.536-.495.815 0 .522.525.851 1.408.851.927 0 1.535-.483 1.535-.99Zm-.622-3.927c0-.706-.46-1.134-1.032-1.134-.573 0-1.033.422-1.033 1.134 0 .707.472 1.156 1.033 1.156.56 0 1.032-.449 1.032-1.156Zm2.369-1.61h.68l.07.885h.027c.337-.617.835-1.005 1.38-1.005.216 0 .367.027.519.1l-.153.721a1.353 1.353 0 0 0-.471-.08c-.411 0-.901.296-1.23 1.118v3.12h-.822v-4.86Zm3.01 2.435c0-1.58 1.065-2.555 2.184-2.555 1.239 0 1.938.89 1.938 2.28 0 .173-.015.347-.038.467h-3.272c.059 1.03.689 1.696 1.615 1.696.466 0 .848-.15 1.209-.388l.294.54c-.426.278-.944.503-1.604.503-1.295 0-2.326-.947-2.326-2.543Zm3.396-.397c0-.974-.438-1.503-1.198-1.503-.682 0-1.293.549-1.393 1.503h2.591Zm1.924 1.845v-6.145h.823v6.204c0 .252.109.352.229.352.048 0 .087 0 .18-.02l.111.627a1.314 1.314 0 0 1-.473.077c-.616 0-.87-.393-.87-1.095Z"/>
  <path fill="#2b3990" stroke="#2b3990" stroke-miterlimit="10" stroke-width="2.368" d="m94.708 44.847-12.892 8.031-12.892-8.031"/>
  <path fill="#92278f" stroke="#92278f" stroke-miterlimit="10" stroke-width="2.427" d="m94.708 95.468-12.892 8.007-12.892-8.007"/>
</svg>
