<?xml version="1.0" encoding="UTF-8"?>
<svg id="Layer_3" data-name="Layer 3" xmlns="http://www.w3.org/2000/svg" viewBox="0 0 430 210">
  <rect x="123.54" y="109.41" width="304.17" height="37" rx="15.99" ry="15.99" style="fill: #fff; stroke: #2b3990; stroke-miterlimit: 10; stroke-width: 2.36px;"/>
  <rect x="6.43" y="109.41" width="151.28" height="37" rx="11.28" ry="11.28" style="fill: #2b3990; stroke: #2b3990; stroke-miterlimit: 10; stroke-width: 2.09px;"/>
  <polyline points="94.71 145.86 81.82 154.03 68.92 145.86" style="fill: #2b3990; stroke: #2b3990; stroke-miterlimit: 10; stroke-width: 2.39px;"/>
  <rect x="123.54" y="7.93" width="304.17" height="37" rx="15.99" ry="15.99" style="fill: #fff; stroke: #2b3990; stroke-miterlimit: 10; stroke-width: 2.36px;"/>
  <rect x="6.43" y="7.93" width="151.28" height="37" rx="11.28" ry="11.28" style="fill: #2b3990; stroke: #2b3990; stroke-miterlimit: 10; stroke-width: 2.09px;"/>
  <g>
    <path d="M48.96,22.66h1.72v6.5h-1.72v-6.5Z" style="fill: #fff;"/>
    <path d="M51.76,26.66c0-1.64,1.02-2.62,2.04-2.62.54,0,.86.2,1.16.5l-.06-.72v-1.62h1.72v6.96h-1.4l-.12-.46h-.04c-.34.34-.82.58-1.26.58-1.24,0-2.04-1-2.04-2.62ZM54.9,27.52v-1.84c-.2-.18-.46-.24-.68-.24-.36,0-.7.32-.7,1.2s.28,1.24.74,1.24c.26,0,.46-.08.64-.36Z" style="fill: #fff;"/>
    <path d="M57.52,26.66c0-1.62,1.18-2.62,2.4-2.62,1.48,0,2.18,1.08,2.18,2.42,0,.3-.04.6-.07.72h-2.85c.16.6.6.8,1.16.8.34,0,.66-.1,1.02-.3l.56,1.02c-.54.38-1.26.58-1.82.58-1.46,0-2.58-.96-2.58-2.62ZM60.64,26.06c0-.38-.16-.72-.68-.72-.38,0-.7.22-.8.72h1.48Z" style="fill: #fff;"/>
    <path d="M63.04,24.16h1.4l.12.6h.04c.4-.38.9-.72,1.58-.72,1.1,0,1.56.8,1.56,2.04v3.08h-1.72v-2.86c0-.64-.16-.8-.5-.8-.32,0-.5.14-.76.38v3.28h-1.72v-5Z" style="fill: #fff;"/>
    <path d="M69.08,27.24v-1.74h-.66v-1.28l.76-.06.2-1.3h1.42v1.3h1.14v1.34h-1.14v1.71c0,.55.28.73.6.73.16,0,.32-.04.44-.08l.26,1.24c-.26.08-.63.18-1.18.18-1.3,0-1.84-.82-1.84-2.04Z" style="fill: #fff;"/>
    <path d="M72.76,22.68c0-.5.4-.86.96-.86s.96.36.96.86-.4.86-.96.86-.96-.36-.96-.86ZM72.86,24.16h1.72v5h-1.72v-5Z" style="fill: #fff;"/>
    <path d="M75.38,24.22l.76-.06h2.46v1.34h-3.22v-1.28ZM76.04,24.1c0-1.07.5-2.02,1.98-2.02.46,0,.84.1,1.06.18l-.3,1.26c-.16-.06-.34-.1-.5-.1-.32,0-.52.15-.52.62v5.12h-1.72v-5.06Z" style="fill: #fff;"/>
    <path d="M79.32,30.94l.3-1.3c.09.02.22.06.32.06.46,0,.68-.2.78-.5l.06-.22-1.9-4.82h1.72l.6,1.92c.14.46.24.92.36,1.42h.04c.1-.48.2-.94.32-1.42l.5-1.92h1.64l-1.68,4.92c-.52,1.35-1.06,1.96-2.3,1.96-.34,0-.54-.04-.76-.1Z" style="fill: #fff;"/>
    <path d="M88.06,22.66h2.08l1.98,6.5h-1.82l-.74-3.16c-.16-.62-.32-1.41-.48-2.06h-.04c-.14.66-.3,1.44-.46,2.06l-.74,3.16h-1.76l1.98-6.5ZM87.5,26.45h3.18v1.33h-3.18v-1.33Z" style="fill: #fff;"/>
    <path d="M92.5,27.4v-5.2h1.72v5.26c0,.34.16.44.28.44.06,0,.1,0,.18-.02l.2,1.26c-.18.08-.46.14-.84.14-1.16,0-1.54-.76-1.54-1.88Z" style="fill: #fff;"/>
    <path d="M95.48,27.4v-5.2h1.72v5.26c0,.34.16.44.28.44.06,0,.1,0,.18-.02l.2,1.26c-.18.08-.46.14-.84.14-1.16,0-1.54-.76-1.54-1.88Z" style="fill: #fff;"/>
    <path d="M98.2,26.66c0-1.62,1.18-2.62,2.4-2.62,1.48,0,2.18,1.08,2.18,2.42,0,.3-.04.6-.07.72h-2.85c.16.6.6.8,1.16.8.34,0,.66-.1,1.02-.3l.56,1.02c-.54.38-1.26.58-1.82.58-1.46,0-2.58-.96-2.58-2.62ZM101.32,26.06c0-.38-.16-.72-.68-.72-.38,0-.7.22-.8.72h1.48Z" style="fill: #fff;"/>
    <path d="M103.72,27.4v-5.2h1.72v5.26c0,.34.16.44.28.44.06,0,.1,0,.18-.02l.2,1.26c-.18.08-.46.14-.84.14-1.16,0-1.54-.76-1.54-1.88Z" style="fill: #fff;"/>
    <path d="M106.44,26.66c0-1.62,1.18-2.62,2.4-2.62,1.48,0,2.18,1.08,2.18,2.42,0,.3-.04.6-.07.72h-2.85c.16.6.6.8,1.16.8.34,0,.66-.1,1.02-.3l.56,1.02c-.54.38-1.26.58-1.82.58-1.46,0-2.58-.96-2.58-2.62ZM109.56,26.06c0-.38-.16-.72-.68-.72-.38,0-.7.22-.8.72h1.48Z" style="fill: #fff;"/>
    <path d="M111.56,28.58l.76-1.06c.46.34.87.5,1.22.5s.5-.1.5-.3c0-.26-.46-.38-.96-.58-.58-.23-1.26-.66-1.26-1.48,0-.98.8-1.62,1.98-1.62.82,0,1.4.33,1.84.66l-.76,1.02c-.36-.26-.71-.42-1.02-.42-.29,0-.44.08-.44.28,0,.26.44.36.94.54.6.22,1.28.6,1.28,1.5s-.74,1.66-2.14,1.66c-.64,0-1.42-.28-1.94-.7Z" style="fill: #fff;"/>
  </g>
  <g>
    <path d="M171.24,28.53h1.46v-4.69h-1.16v-.53c.58-.1,1-.26,1.36-.47h.63v5.69h1.32v.68h-3.6v-.68Z" style="fill: #231f20;"/>
    <path d="M179.04,23.54h-3.17v-.71h4.11v.5c-1.51,1.93-1.82,3.38-1.93,5.87h-.85c.11-2.4.59-3.92,1.84-5.67Z" style="fill: #231f20;"/>
    <path d="M180.91,28.66l.46-.51c.26.31.65.5,1.05.5.92,0,1.68-.73,1.68-2.87,0-1.57-.51-2.42-1.42-2.42-.62,0-1.11.56-1.11,1.4s.39,1.35,1.18,1.35c.41,0,.93-.25,1.37-.9l.03.65c-.4.54-1,.87-1.54.87-1.11,0-1.82-.66-1.82-1.97,0-1.22.86-2.04,1.88-2.04,1.26,0,2.2,1.02,2.2,3.06,0,2.56-1.16,3.55-2.43,3.55-.68,0-1.19-.29-1.54-.67Z" style="fill: #231f20;"/>
    <path d="M188.4,24.94c0-.33.03-.89.05-1.22h-.04c-.16.3-.34.58-.52.9l-1.49,2.18h3.65v.65h-4.51v-.54l2.73-4.07h.91v6.37h-.78v-4.27Z" style="fill: #231f20;"/>
    <path d="M190.74,27.58c0-.83.6-1.39,1.2-1.71v-.04c-.47-.33-.89-.8-.89-1.47,0-.98.78-1.63,1.8-1.63,1.12,0,1.8.71,1.8,1.7,0,.67-.49,1.24-.88,1.54v.04c.57.34,1.11.79,1.11,1.64,0,.96-.82,1.7-2.05,1.7s-2.09-.74-2.09-1.75ZM194.11,27.61c0-.83-.81-1.12-1.73-1.49-.51.33-.89.81-.89,1.39,0,.7.58,1.21,1.37,1.21s1.25-.46,1.25-1.11ZM193.95,24.46c0-.63-.4-1.13-1.11-1.13-.59,0-1.03.41-1.03,1.02,0,.76.71,1.08,1.47,1.38.43-.39.67-.81.67-1.28Z" style="fill: #231f20;"/>
    <path d="M195.82,25.94c0-2.12,1.27-3.41,3.01-3.41.91,0,1.51.41,1.89.81l-.46.54c-.33-.34-.75-.62-1.41-.62-1.32,0-2.17,1.01-2.17,2.65s.78,2.68,2.18,2.68c.47,0,.92-.14,1.18-.38v-1.71h-1.39v-.69h2.15v2.76c-.42.44-1.14.76-2.02.76-1.73,0-2.96-1.26-2.96-3.39Z" style="fill: #231f20;"/>
    <path d="M201.82,27.19l2.11-.78,1.33-.5v-.04l-1.33-.5-2.11-.78v-.72l4.29,1.68v.65l-4.29,1.69v-.72Z" style="fill: #231f20;"/>
    <path d="M208.69,22.65h.94l2.22,6.56h-.88l-1.14-3.66c-.24-.73-.45-1.45-.66-2.21h-.04c-.2.76-.41,1.48-.65,2.21l-1.16,3.66h-.85l2.22-6.56ZM207.64,26.55h3.02v.67h-3.02v-.67Z" style="fill: #231f20;"/>
    <path d="M214.67,26.43c0-1.76.49-3.2,1.32-4.54l.51.24c-.77,1.27-1.15,2.78-1.15,4.3s.38,3.03,1.15,4.3l-.51.24c-.83-1.34-1.32-2.78-1.32-4.54Z" style="fill: #231f20;"/>
    <path d="M217.1,22.65h.86l.69,3.57c.13.71.26,1.41.38,2.11h.04c.14-.71.3-1.41.46-2.11l.91-3.57h.76l.91,3.57c.16.69.32,1.41.47,2.11h.04c.13-.71.24-1.42.37-2.11l.69-3.57h.8l-1.36,6.56h-1l-.99-3.94c-.11-.51-.22-.99-.32-1.49h-.04c-.1.5-.22.98-.33,1.49l-.97,3.94h-.99l-1.39-6.56Z" style="fill: #231f20;"/>
    <path d="M225.13,28.72c1.92-1.91,3-3.06,3-4.09,0-.73-.4-1.24-1.21-1.24-.53,0-.99.34-1.36.76l-.48-.46c.53-.59,1.11-.97,1.93-.97,1.18,0,1.91.74,1.91,1.88,0,1.2-1.1,2.38-2.6,3.97.34-.03.74-.05,1.07-.05h1.84v.71h-4.12v-.49Z" style="fill: #231f20;"/>
    <path d="M230.49,28.53h1.46v-4.69h-1.16v-.53c.58-.1,1-.26,1.36-.47h.63v5.69h1.32v.68h-3.6v-.68Z" style="fill: #231f20;"/>
    <path d="M235.07,28.72c1.92-1.91,3-3.06,3-4.09,0-.73-.4-1.24-1.21-1.24-.53,0-.99.34-1.36.76l-.48-.46c.53-.59,1.11-.97,1.93-.97,1.18,0,1.91.74,1.91,1.88,0,1.2-1.1,2.38-2.6,3.97.34-.03.74-.05,1.07-.05h1.84v.71h-4.12v-.49Z" style="fill: #231f20;"/>
    <path d="M241.71,25.82l-1.79-3.17h.92l.89,1.68c.17.3.31.57.51.95h.04c.18-.38.3-.65.46-.95l.87-1.68h.88l-1.79,3.21,1.91,3.35h-.92l-.96-1.77c-.17-.33-.35-.65-.56-1.05h-.04c-.19.4-.36.73-.52,1.05l-.95,1.77h-.88l1.91-3.39Z" style="fill: #231f20;"/>
    <path d="M245.16,30.73c.77-1.27,1.15-2.78,1.15-4.3s-.38-3.03-1.15-4.3l.51-.24c.83,1.34,1.32,2.78,1.32,4.54s-.49,3.2-1.32,4.54l-.51-.24Z" style="fill: #231f20;"/>
    <path d="M248.28,30.43c.56-.25.9-.69.9-1.24l-.09-.74.4.6c-.11.13-.26.17-.42.17-.32,0-.59-.2-.59-.57s.28-.57.61-.57c.44,0,.7.37.7.96,0,.86-.5,1.54-1.31,1.87l-.2-.48Z" style="fill: #231f20;"/>
    <path d="M252.7,27.58c0-.83.6-1.39,1.2-1.71v-.04c-.47-.33-.89-.8-.89-1.47,0-.98.78-1.63,1.8-1.63,1.12,0,1.8.71,1.8,1.7,0,.67-.49,1.24-.88,1.54v.04c.57.34,1.11.79,1.11,1.64,0,.96-.82,1.7-2.05,1.7s-2.09-.74-2.09-1.75ZM256.06,27.61c0-.83-.81-1.12-1.73-1.49-.51.33-.89.81-.89,1.39,0,.7.58,1.21,1.37,1.21s1.25-.46,1.25-1.11ZM255.91,24.46c0-.63-.4-1.13-1.11-1.13-.59,0-1.03.41-1.03,1.02,0,.76.71,1.08,1.47,1.38.43-.39.67-.81.67-1.28Z" style="fill: #231f20;"/>
    <path d="M257.71,26c0-2.14.77-3.28,2.04-3.28s2.04,1.15,2.04,3.28-.77,3.33-2.04,3.33-2.04-1.19-2.04-3.33ZM260.99,26c0-1.87-.5-2.62-1.25-2.62s-1.24.75-1.24,2.62.5,2.67,1.24,2.67,1.25-.8,1.25-2.67Z" style="fill: #231f20;"/>
    <path d="M263.02,28.53h1.46v-4.69h-1.16v-.53c.58-.1,1-.26,1.36-.47h.63v5.69h1.32v.68h-3.6v-.68Z" style="fill: #231f20;"/>
    <path d="M267.69,26.27c0-2.56,1.16-3.55,2.43-3.55.68,0,1.18.29,1.54.67l-.46.51c-.26-.31-.65-.5-1.05-.5-.92,0-1.68.73-1.68,2.87,0,1.57.51,2.42,1.42,2.42.62,0,1.11-.56,1.11-1.4s-.39-1.35-1.18-1.35c-.41,0-.93.25-1.37.9l-.03-.65c.4-.54,1-.87,1.54-.87,1.1,0,1.82.66,1.82,1.97,0,1.22-.86,2.04-1.88,2.04-1.26,0-2.2-1.02-2.2-3.06Z" style="fill: #231f20;"/>
    <path d="M272.96,28.53h1.46v-4.69h-1.16v-.53c.58-.1,1-.26,1.36-.47h.63v5.69h1.32v.68h-3.6v-.68Z" style="fill: #231f20;"/>
    <path d="M279.39,22.65h.94l2.22,6.56h-.88l-1.14-3.66c-.24-.73-.45-1.45-.66-2.21h-.04c-.2.76-.41,1.48-.65,2.21l-1.16,3.66h-.85l2.22-6.56ZM278.34,26.55h3.02v.67h-3.02v-.67Z" style="fill: #231f20;"/>
    <path d="M282.89,27.19l2.11-.78,1.33-.5v-.04l-1.33-.5-2.11-.78v-.72l4.29,1.68v.65l-4.29,1.69v-.72Z" style="fill: #231f20;"/>
    <path d="M288.03,25.94c0-2.12,1.27-3.41,3.01-3.41.91,0,1.51.41,1.89.81l-.46.54c-.33-.34-.75-.62-1.41-.62-1.32,0-2.17,1.01-2.17,2.65s.78,2.68,2.18,2.68c.47,0,.92-.14,1.18-.38v-1.71h-1.39v-.69h2.15v2.76c-.42.44-1.14.76-2.02.76-1.73,0-2.96-1.26-2.96-3.39Z" style="fill: #231f20;"/>
    <path d="M296.5,26.43c0-1.76.49-3.2,1.32-4.54l.51.24c-.77,1.27-1.15,2.78-1.15,4.3s.38,3.03,1.15,4.3l-.51.24c-.83-1.34-1.32-2.78-1.32-4.54Z" style="fill: #231f20;"/>
    <path d="M299.61,22.65h.83v6.56h-.83v-6.56Z" style="fill: #231f20;"/>
    <path d="M301.61,28.43l.41-.54c.38.4.88.75,1.63.75s1.32-.45,1.32-1.17c0-.76-.52-1.27-2.03-1.27v-.63c1.35,0,1.81-.52,1.81-1.19,0-.62-.43-1.01-1.1-1.01-.53,0-.99.27-1.36.65l-.44-.52c.49-.46,1.08-.79,1.83-.79,1.11,0,1.91.59,1.91,1.62,0,.77-.47,1.26-1.16,1.51v.04c.77.18,1.38.75,1.38,1.62,0,1.14-.94,1.82-2.11,1.82-1.02,0-1.67-.43-2.09-.9Z" style="fill: #231f20;"/>
    <path d="M306.58,28.43l.41-.54c.38.4.88.75,1.63.75s1.32-.45,1.32-1.17c0-.76-.52-1.27-2.03-1.27v-.63c1.35,0,1.81-.52,1.81-1.19,0-.62-.43-1.01-1.1-1.01-.53,0-.99.27-1.36.65l-.44-.52c.49-.46,1.08-.79,1.83-.79,1.11,0,1.91.59,1.91,1.62,0,.77-.47,1.26-1.16,1.51v.04c.77.18,1.38.75,1.38,1.62,0,1.14-.94,1.82-2.11,1.82-1.02,0-1.67-.43-2.09-.9Z" style="fill: #231f20;"/>
    <path d="M312.07,28.53h1.46v-4.69h-1.16v-.53c.58-.1,1-.26,1.36-.47h.63v5.69h1.32v.68h-3.6v-.68Z" style="fill: #231f20;"/>
    <path d="M316.26,22.65h.88l1.06,3.55c.23.77.39,1.4.63,2.17h.04c.24-.77.4-1.39.63-2.17l1.05-3.55h.85l-2.08,6.56h-.97l-2.1-6.56Z" style="fill: #231f20;"/>
    <path d="M321.79,30.73c.77-1.27,1.15-2.78,1.15-4.3s-.38-3.03-1.15-4.3l.51-.24c.83,1.34,1.32,2.78,1.32,4.54s-.49,3.2-1.32,4.54l-.51-.24Z" style="fill: #231f20;"/>
    <path d="M330.77,24.53h4.29v.62h-4.29v-.62ZM330.77,26.68h4.29v.62h-4.29v-.62Z" style="fill: #231f20;"/>
    <path d="M341.92,25.94c0-2.12,1.25-3.41,2.91-3.41.8,0,1.42.39,1.8.81l-.46.54c-.35-.37-.78-.62-1.33-.62-1.24,0-2.06,1.01-2.06,2.65s.79,2.68,2.03,2.68c.63,0,1.1-.27,1.52-.74l.46.52c-.52.6-1.16.95-2.01.95-1.63,0-2.86-1.26-2.86-3.39Z" style="fill: #231f20;"/>
    <path d="M349,26.67l-1.97-4.02h.89l.85,1.85c.21.48.41.94.63,1.43h.04c.23-.49.45-.95.65-1.43l.85-1.85h.86l-1.97,4.02v2.54h-.83v-2.54Z" style="fill: #231f20;"/>
    <path d="M352.59,22.65h1.87c1.47,0,2.46.49,2.46,1.93s-.99,2.03-2.42,2.03h-1.08v2.6h-.83v-6.56ZM354.4,25.93c1.15,0,1.69-.42,1.69-1.35s-.58-1.25-1.73-1.25h-.93v2.6h.97Z" style="fill: #231f20;"/>
    <path d="M357.75,28.72c1.92-1.91,3-3.06,3-4.09,0-.73-.4-1.24-1.21-1.24-.53,0-.99.34-1.36.76l-.48-.46c.53-.59,1.11-.97,1.93-.97,1.18,0,1.91.74,1.91,1.88,0,1.2-1.1,2.38-2.6,3.97.34-.03.74-.05,1.07-.05h1.84v.71h-4.12v-.49Z" style="fill: #231f20;"/>
    <path d="M362.84,25.94c0-2.12,1.25-3.41,2.91-3.41.8,0,1.42.39,1.8.81l-.46.54c-.35-.37-.78-.62-1.33-.62-1.24,0-2.06,1.01-2.06,2.65s.79,2.68,2.03,2.68c.63,0,1.1-.27,1.52-.74l.46.52c-.52.6-1.16.95-2.01.95-1.63,0-2.86-1.26-2.86-3.39Z" style="fill: #231f20;"/>
    <path d="M368.82,28.53h1.46v-4.69h-1.16v-.53c.58-.1,1-.26,1.36-.47h.63v5.69h1.32v.68h-3.6v-.68Z" style="fill: #231f20;"/>
    <path d="M373.52,28.66l.46-.51c.26.31.65.5,1.05.5.92,0,1.68-.73,1.68-2.87,0-1.57-.51-2.42-1.42-2.42-.62,0-1.11.56-1.11,1.4s.39,1.35,1.18,1.35c.41,0,.93-.25,1.37-.9l.03.65c-.4.54-1,.87-1.54.87-1.11,0-1.82-.66-1.82-1.97,0-1.22.86-2.04,1.88-2.04,1.26,0,2.2,1.02,2.2,3.06,0,2.56-1.16,3.55-2.43,3.55-.68,0-1.19-.29-1.54-.67Z" style="fill: #231f20;"/>
    <path d="M378.96,24.72l.56-.94-.97-.41.15-.46,1.03.25.09-1.08h.49l.09,1.07,1.03-.24.15.46-.97.41.57.94-.4.29-.7-.85-.71.85-.4-.29Z" style="fill: #231f20;"/>
    <path d="M382.42,28.43l.41-.54c.38.4.88.75,1.63.75s1.32-.45,1.32-1.17c0-.76-.52-1.27-2.03-1.27v-.63c1.35,0,1.81-.52,1.81-1.19,0-.62-.43-1.01-1.1-1.01-.53,0-.98.27-1.36.65l-.44-.52c.49-.46,1.08-.79,1.83-.79,1.11,0,1.91.59,1.91,1.62,0,.77-.47,1.26-1.16,1.51v.04c.77.18,1.38.75,1.38,1.62,0,1.14-.94,1.82-2.11,1.82-1.02,0-1.67-.43-2.09-.9Z" style="fill: #231f20;"/>
  </g>
  <rect x="123.54" y="58.47" width="304.17" height="37" rx="15.99" ry="15.99" style="fill: #fff; stroke: #2b3990; stroke-miterlimit: 10; stroke-width: 2.36px;"/>
  <rect x="6.43" y="58.47" width="151.28" height="37" rx="11.28" ry="11.28" style="fill: #2b3990; stroke: #2b3990; stroke-miterlimit: 10; stroke-width: 2.09px;"/>
  <g>
    <path d="M44.86,74.08h2.08l1.98,6.5h-1.82l-.74-3.16c-.16-.62-.32-1.41-.48-2.06h-.04c-.14.66-.3,1.44-.46,2.06l-.74,3.16h-1.76l1.98-6.5ZM44.3,77.87h3.18v1.33h-3.18v-1.33Z" style="fill: #fff;"/>
    <path d="M49.3,78.82v-5.2h1.72v5.26c0,.34.16.44.28.44.06,0,.1,0,.18-.02l.2,1.26c-.18.08-.46.14-.84.14-1.16,0-1.54-.76-1.54-1.88Z" style="fill: #fff;"/>
    <path d="M52.28,78.82v-5.2h1.72v5.26c0,.34.16.44.28.44.06,0,.1,0,.18-.02l.2,1.26c-.18.08-.46.14-.84.14-1.16,0-1.54-.76-1.54-1.88Z" style="fill: #fff;"/>
    <path d="M55,78.08c0-1.62,1.18-2.62,2.4-2.62,1.48,0,2.18,1.08,2.18,2.42,0,.3-.04.6-.07.72h-2.85c.16.6.6.8,1.16.8.34,0,.66-.1,1.02-.3l.56,1.02c-.54.38-1.26.58-1.82.58-1.46,0-2.58-.96-2.58-2.62ZM58.12,77.48c0-.38-.16-.72-.68-.72-.38,0-.7.22-.8.72h1.48Z" style="fill: #fff;"/>
    <path d="M60.52,78.82v-5.2h1.72v5.26c0,.34.16.44.28.44.06,0,.1,0,.18-.02l.2,1.26c-.18.08-.46.14-.84.14-1.16,0-1.54-.76-1.54-1.88Z" style="fill: #fff;"/>
    <path d="M63.24,78.08c0-1.62,1.18-2.62,2.4-2.62,1.48,0,2.18,1.08,2.18,2.42,0,.3-.04.6-.07.72h-2.85c.16.6.6.8,1.16.8.34,0,.66-.1,1.02-.3l.56,1.02c-.54.38-1.26.58-1.82.58-1.46,0-2.58-.96-2.58-2.62ZM66.36,77.48c0-.38-.16-.72-.68-.72-.38,0-.7.22-.8.72h1.48Z" style="fill: #fff;"/>
    <path d="M70.98,78.66v-1.74h-.66v-1.28l.76-.06.2-1.3h1.42v1.3h1.14v1.34h-1.14v1.71c0,.55.28.73.6.73.16,0,.32-.04.44-.08l.26,1.24c-.26.08-.63.18-1.18.18-1.3,0-1.84-.82-1.84-2.04Z" style="fill: #fff;"/>
    <path d="M74.3,78.08c0-1.66,1.2-2.62,2.48-2.62s2.48.96,2.48,2.62-1.2,2.62-2.48,2.62-2.48-.96-2.48-2.62ZM77.5,78.08c0-.76-.2-1.24-.72-1.24s-.72.48-.72,1.24.2,1.24.72,1.24.72-.48.72-1.24Z" style="fill: #fff;"/>
    <path d="M82.2,74.08h4.24v1.44h-2.52v1.24h2.16v1.44h-2.16v2.38h-1.72v-6.5Z" style="fill: #fff;"/>
    <path d="M87.18,78.66v-3.08h1.72v2.86c0,.64.16.8.5.8.32,0,.5-.12.72-.44v-3.22h1.72v5h-1.4l-.12-.66h-.04c-.4.48-.86.78-1.54.78-1.1,0-1.56-.8-1.56-2.04Z" style="fill: #fff;"/>
    <path d="M93,75.58h1.4l.12.6h.04c.4-.38.9-.72,1.58-.72,1.1,0,1.56.8,1.56,2.04v3.08h-1.72v-2.86c0-.64-.16-.8-.5-.8-.32,0-.5.14-.76.38v3.28h-1.72v-5Z" style="fill: #fff;"/>
    <path d="M98.56,78.08c0-1.66,1.26-2.62,2.68-2.62.6,0,1.08.2,1.46.52l-.8,1.1c-.22-.18-.38-.24-.56-.24-.64,0-1.02.48-1.02,1.24s.42,1.24.96,1.24c.28,0,.56-.14.8-.32l.66,1.12c-.5.44-1.14.58-1.66.58-1.42,0-2.52-.96-2.52-2.62Z" style="fill: #fff;"/>
    <path d="M103.66,78.66v-1.74h-.66v-1.28l.76-.06.2-1.3h1.42v1.3h1.14v1.34h-1.14v1.71c0,.55.28.73.6.73.16,0,.32-.04.44-.08l.26,1.24c-.26.08-.63.18-1.18.18-1.3,0-1.84-.82-1.84-2.04Z" style="fill: #fff;"/>
    <path d="M107.34,74.1c0-.5.4-.86.96-.86s.96.36.96.86-.4.86-.96.86-.96-.36-.96-.86ZM107.44,75.58h1.72v5h-1.72v-5Z" style="fill: #fff;"/>
    <path d="M110.06,78.08c0-1.66,1.2-2.62,2.48-2.62s2.48.96,2.48,2.62-1.2,2.62-2.48,2.62-2.48-.96-2.48-2.62ZM113.26,78.08c0-.76-.2-1.24-.72-1.24s-.72.48-.72,1.24.2,1.24.72,1.24.72-.48.72-1.24Z" style="fill: #fff;"/>
    <path d="M115.92,75.58h1.4l.12.6h.04c.4-.38.9-.72,1.58-.72,1.1,0,1.56.8,1.56,2.04v3.08h-1.72v-2.86c0-.64-.16-.8-.5-.8-.32,0-.5.14-.76.38v3.28h-1.72v-5Z" style="fill: #fff;"/>
  </g>
  <g>
    <path d="M172.04,77.26c0-2.12,1.25-3.41,2.91-3.41.8,0,1.42.39,1.8.81l-.46.54c-.35-.37-.78-.62-1.33-.62-1.24,0-2.06,1.01-2.06,2.65s.79,2.68,2.03,2.68c.63,0,1.1-.27,1.52-.74l.46.52c-.52.6-1.16.95-2.01.95-1.63,0-2.86-1.26-2.86-3.39Z" style="fill: #231f20;"/>
    <path d="M179.13,77.99l-1.97-4.02h.89l.85,1.85c.21.48.41.94.63,1.43h.04c.23-.49.45-.95.65-1.43l.85-1.85h.86l-1.97,4.02v2.54h-.83v-2.54Z" style="fill: #231f20;"/>
    <path d="M182.71,73.97h1.87c1.47,0,2.46.49,2.46,1.93s-.99,2.03-2.42,2.03h-1.08v2.6h-.83v-6.56ZM184.52,77.25c1.15,0,1.69-.42,1.69-1.35s-.58-1.25-1.73-1.25h-.93v2.6h.97Z" style="fill: #231f20;"/>
    <path d="M187.87,80.05c1.92-1.91,3-3.06,3-4.09,0-.73-.4-1.24-1.21-1.24-.53,0-.99.34-1.36.76l-.48-.46c.53-.59,1.11-.97,1.93-.97,1.18,0,1.91.74,1.91,1.88,0,1.2-1.1,2.38-2.6,3.97.34-.03.74-.05,1.07-.05h1.84v.71h-4.12v-.49Z" style="fill: #231f20;"/>
    <path d="M192.96,77.26c0-2.12,1.25-3.41,2.91-3.41.8,0,1.42.39,1.8.81l-.46.54c-.35-.37-.78-.62-1.33-.62-1.24,0-2.06,1.01-2.06,2.65s.79,2.68,2.03,2.68c.63,0,1.1-.27,1.52-.74l.46.52c-.52.6-1.16.95-2.01.95-1.63,0-2.86-1.26-2.86-3.39Z" style="fill: #231f20;"/>
    <path d="M198.94,79.85h1.46v-4.69h-1.16v-.53c.58-.1,1-.26,1.36-.47h.63v5.69h1.32v.68h-3.6v-.68Z" style="fill: #231f20;"/>
    <path d="M203.64,79.98l.46-.51c.26.31.65.5,1.05.5.92,0,1.68-.73,1.68-2.87,0-1.57-.51-2.42-1.42-2.42-.62,0-1.11.56-1.11,1.4s.39,1.35,1.18,1.35c.41,0,.93-.25,1.37-.9l.03.65c-.4.54-1,.87-1.54.87-1.11,0-1.82-.66-1.82-1.97,0-1.22.86-2.04,1.88-2.04,1.26,0,2.2,1.02,2.2,3.06,0,2.56-1.16,3.55-2.43,3.55-.68,0-1.19-.29-1.54-.67Z" style="fill: #231f20;"/>
    <path d="M209.08,76.04l.56-.94-.97-.41.15-.46,1.03.25.09-1.08h.49l.09,1.07,1.03-.24.15.46-.97.41.57.94-.4.29-.7-.85-.71.85-.4-.29Z" style="fill: #231f20;"/>
    <path d="M212.54,79.75l.41-.54c.38.4.88.75,1.63.75s1.32-.45,1.32-1.17c0-.76-.52-1.27-2.03-1.27v-.63c1.35,0,1.81-.52,1.81-1.19,0-.62-.43-1.01-1.1-1.01-.53,0-.98.27-1.36.65l-.44-.52c.49-.46,1.08-.79,1.83-.79,1.11,0,1.91.59,1.91,1.62,0,.77-.47,1.26-1.16,1.51v.04c.77.18,1.38.75,1.38,1.62,0,1.14-.94,1.82-2.11,1.82-1.02,0-1.67-.43-2.09-.9Z" style="fill: #231f20;"/>
    <path d="M223.59,75.85h4.29v.62h-4.29v-.62ZM223.59,78h4.29v.62h-4.29v-.62Z" style="fill: #231f20;"/>
    <path d="M235.11,73.97h.86l2.37,4.12.71,1.36h.04c-.04-.66-.11-1.4-.11-2.09v-3.39h.79v6.56h-.86l-2.37-4.13-.71-1.35h-.04c.04.66.11,1.36.11,2.05v3.43h-.79v-6.56Z" style="fill: #231f20;"/>
    <path d="M241.14,78.11c0-1.62,1.06-2.56,2.25-2.56s2.25.93,2.25,2.56-1.06,2.54-2.25,2.54-2.25-.93-2.25-2.54ZM244.8,78.11c0-1.11-.57-1.87-1.4-1.87s-1.4.76-1.4,1.87.57,1.86,1.4,1.86,1.4-.75,1.4-1.86Z" style="fill: #231f20;"/>
    <path d="M248.36,75.72l.7-.05h1.81v.67h-2.51v-.62ZM249.02,74.91c0-.99.45-1.61,1.42-1.61.3,0,.59.07.81.17l-.17.63c-.19-.08-.38-.12-.55-.12-.46,0-.68.32-.68.95v5.62h-.82v-5.63Z" style="fill: #231f20;"/>
    <path d="M251.74,78.75v-3.08h.82v2.97c0,.9.27,1.29.92,1.29.5,0,.84-.25,1.3-.82v-3.45h.82v4.86h-.68l-.07-.76h-.03c-.45.53-.93.88-1.6.88-1.02,0-1.48-.66-1.48-1.9Z" style="fill: #231f20;"/>
    <path d="M257.25,75.67h.68l.07.7h.03c.46-.46.96-.82,1.63-.82,1.02,0,1.48.66,1.48,1.9v3.08h-.82v-2.97c0-.91-.27-1.29-.92-1.29-.5,0-.84.25-1.33.75v3.52h-.82v-4.86Z" style="fill: #231f20;"/>
    <path d="M262.35,78.11c0-1.62,1.09-2.56,2.34-2.56.64,0,1.08.26,1.42.57l-.42.54c-.28-.26-.58-.43-.96-.43-.88,0-1.52.76-1.52,1.87s.61,1.86,1.5,1.86c.44,0,.84-.22,1.14-.48l.36.55c-.44.39-.99.62-1.57.62-1.29,0-2.28-.93-2.28-2.54Z" style="fill: #231f20;"/>
    <path d="M267.32,79.03v-2.69h-.72v-.62l.76-.05.1-1.36h.69v1.36h1.32v.67h-1.32v2.7c0,.59.19.94.75.94.17,0,.4-.07.55-.13l.16.62c-.27.09-.6.18-.9.18-1.03,0-1.38-.66-1.38-1.62Z" style="fill: #231f20;"/>
    <path d="M270.4,74.15c0-.32.25-.53.57-.53s.57.21.57.53-.25.53-.57.53-.57-.22-.57-.53ZM270.55,75.67h.82v4.86h-.82v-4.86Z" style="fill: #231f20;"/>
    <path d="M272.65,78.11c0-1.62,1.06-2.56,2.25-2.56s2.25.93,2.25,2.56-1.06,2.54-2.25,2.54-2.25-.93-2.25-2.54ZM276.31,78.11c0-1.11-.57-1.87-1.4-1.87s-1.4.76-1.4,1.87.57,1.86,1.4,1.86,1.4-.75,1.4-1.86Z" style="fill: #231f20;"/>
    <path d="M278.43,75.67h.68l.07.7h.03c.46-.46.96-.82,1.63-.82,1.02,0,1.48.66,1.48,1.9v3.08h-.82v-2.97c0-.91-.27-1.29-.92-1.29-.5,0-.84.25-1.33.75v3.52h-.82v-4.86Z" style="fill: #231f20;"/>
  </g>
  <g>
    <path d="M31.92,124.15h4.24v1.44h-2.52v1.24h2.16v1.44h-2.16v2.38h-1.72v-6.5Z" style="fill: #fff;"/>
    <path d="M36.9,128.72v-3.08h1.72v2.86c0,.64.16.8.5.8.32,0,.5-.12.72-.44v-3.22h1.72v5h-1.4l-.12-.66h-.04c-.4.48-.86.78-1.54.78-1.1,0-1.56-.8-1.56-2.04Z" style="fill: #fff;"/>
    <path d="M42.72,125.65h1.4l.12.6h.04c.4-.38.9-.72,1.58-.72,1.1,0,1.56.8,1.56,2.04v3.08h-1.72v-2.86c0-.64-.16-.8-.5-.8-.32,0-.5.14-.76.38v3.28h-1.72v-5Z" style="fill: #fff;"/>
    <path d="M48.28,128.14c0-1.66,1.26-2.62,2.68-2.62.6,0,1.08.2,1.46.52l-.8,1.1c-.22-.18-.38-.24-.56-.24-.64,0-1.02.48-1.02,1.24s.42,1.24.96,1.24c.28,0,.56-.14.8-.32l.66,1.12c-.5.44-1.14.58-1.66.58-1.42,0-2.52-.96-2.52-2.62Z" style="fill: #fff;"/>
    <path d="M53.38,128.72v-1.74h-.66v-1.28l.76-.06.2-1.3h1.42v1.3h1.14v1.34h-1.14v1.71c0,.55.28.73.6.73.16,0,.32-.04.44-.08l.26,1.24c-.26.08-.63.18-1.18.18-1.3,0-1.84-.82-1.84-2.04Z" style="fill: #fff;"/>
    <path d="M57.06,124.17c0-.5.4-.86.96-.86s.96.36.96.86-.4.86-.96.86-.96-.36-.96-.86ZM57.16,125.65h1.72v5h-1.72v-5Z" style="fill: #fff;"/>
    <path d="M59.78,128.14c0-1.66,1.2-2.62,2.48-2.62s2.48.96,2.48,2.62-1.2,2.62-2.48,2.62-2.48-.96-2.48-2.62ZM62.98,128.14c0-.76-.2-1.24-.72-1.24s-.72.48-.72,1.24.2,1.24.72,1.24.72-.48.72-1.24Z" style="fill: #fff;"/>
    <path d="M65.64,125.65h1.4l.12.6h.04c.4-.38.9-.72,1.58-.72,1.1,0,1.56.8,1.56,2.04v3.08h-1.72v-2.86c0-.64-.16-.8-.5-.8-.32,0-.5.14-.76.38v3.28h-1.72v-5Z" style="fill: #fff;"/>
    <path d="M73.68,128.72v-1.74h-.66v-1.28l.76-.06.2-1.3h1.42v1.3h1.14v1.34h-1.14v1.71c0,.55.28.73.6.73.16,0,.32-.04.44-.08l.26,1.24c-.26.08-.63.18-1.18.18-1.3,0-1.84-.82-1.84-2.04Z" style="fill: #fff;"/>
    <path d="M77,128.14c0-1.66,1.2-2.62,2.48-2.62s2.48.96,2.48,2.62-1.2,2.62-2.48,2.62-2.48-.96-2.48-2.62ZM80.2,128.14c0-.76-.2-1.24-.72-1.24s-.72.48-.72,1.24.2,1.24.72,1.24.72-.48.72-1.24Z" style="fill: #fff;"/>
    <path d="M84.9,124.15h2.38c1.42,0,2.64.52,2.64,2.16s-1.24,2.28-2.6,2.28h-.7v2.06h-1.72v-6.5ZM87.24,127.22c.68,0,1-.34,1-.92s-.38-.8-1.04-.8h-.58v1.72h.62Z" style="fill: #fff;"/>
    <path d="M90.84,123.69h1.72v1.62l-.08.86c.34-.3.82-.64,1.5-.64,1.1,0,1.56.8,1.56,2.04v3.08h-1.72v-2.86c0-.64-.16-.8-.5-.8-.32,0-.5.14-.76.38v3.28h-1.72v-6.96Z" style="fill: #fff;"/>
    <path d="M96.4,128.14c0-1.62,1.18-2.62,2.4-2.62,1.48,0,2.18,1.08,2.18,2.42,0,.3-.04.6-.07.72h-2.85c.16.6.6.8,1.16.8.34,0,.66-.1,1.02-.3l.56,1.02c-.54.38-1.26.58-1.82.58-1.46,0-2.58-.96-2.58-2.62ZM99.52,127.54c0-.38-.16-.72-.68-.72-.38,0-.7.22-.8.72h1.48Z" style="fill: #fff;"/>
    <path d="M101.92,125.65h1.4l.12.6h.04c.4-.38.9-.72,1.58-.72,1.1,0,1.56.8,1.56,2.04v3.08h-1.72v-2.86c0-.64-.16-.8-.5-.8-.32,0-.5.14-.76.38v3.28h-1.72v-5Z" style="fill: #fff;"/>
    <path d="M107.48,128.14c0-1.66,1.2-2.62,2.48-2.62s2.48.96,2.48,2.62-1.2,2.62-2.48,2.62-2.48-.96-2.48-2.62ZM110.68,128.14c0-.76-.2-1.24-.72-1.24s-.72.48-.72,1.24.2,1.24.72,1.24.72-.48.72-1.24Z" style="fill: #fff;"/>
    <path d="M113.26,128.72v-1.74h-.66v-1.28l.76-.06.2-1.3h1.42v1.3h1.14v1.34h-1.14v1.71c0,.55.28.73.6.73.16,0,.32-.04.44-.08l.26,1.24c-.26.08-.63.18-1.18.18-1.3,0-1.84-.82-1.84-2.04Z" style="fill: #fff;"/>
    <path d="M117.02,132.42l.3-1.3c.09.02.22.06.32.06.46,0,.68-.2.78-.5l.06-.22-1.9-4.82h1.72l.6,1.92c.14.46.24.92.36,1.42h.04c.1-.48.2-.94.32-1.42l.5-1.92h1.64l-1.68,4.92c-.52,1.35-1.06,1.96-2.3,1.96-.34,0-.54-.04-.76-.1Z" style="fill: #fff;"/>
    <path d="M122.46,125.65h1.4l.12.46h.04c.37-.34.86-.58,1.36-.58,1.18,0,1.94,1,1.94,2.54,0,1.72-1.02,2.7-2.08,2.7-.42,0-.8-.18-1.12-.5l.06.76v1.38h-1.72v-6.76ZM125.56,128.08c0-.82-.24-1.16-.7-1.16-.26,0-.46.1-.68.36v1.84c.2.18.42.24.64.24.4,0,.74-.32.74-1.28Z" style="fill: #fff;"/>
    <path d="M128,128.14c0-1.62,1.18-2.62,2.4-2.62,1.48,0,2.18,1.08,2.18,2.42,0,.3-.04.6-.07.72h-2.85c.16.6.6.8,1.16.8.34,0,.66-.1,1.02-.3l.56,1.02c-.54.38-1.26.58-1.82.58-1.46,0-2.58-.96-2.58-2.62ZM131.12,127.54c0-.38-.16-.72-.68-.72-.38,0-.7.22-.8.72h1.48Z" style="fill: #fff;"/>
  </g>
  <g>
    <path d="M172.22,119.46c0-2.12,1.25-3.41,2.91-3.41.8,0,1.42.39,1.8.81l-.46.54c-.35-.37-.78-.62-1.33-.62-1.24,0-2.06,1.01-2.06,2.65s.79,2.68,2.03,2.68c.63,0,1.1-.27,1.52-.74l.46.52c-.52.6-1.16.95-2.01.95-1.63,0-2.86-1.26-2.86-3.39Z" style="fill: #231f20;"/>
    <path d="M179.31,120.19l-1.97-4.02h.89l.85,1.85c.21.48.41.94.63,1.43h.04c.23-.49.45-.95.65-1.43l.85-1.85h.86l-1.97,4.02v2.54h-.83v-2.54Z" style="fill: #231f20;"/>
    <path d="M182.89,116.18h1.87c1.47,0,2.46.49,2.46,1.93s-.99,2.03-2.42,2.03h-1.08v2.6h-.83v-6.56ZM184.7,119.46c1.15,0,1.69-.42,1.69-1.35s-.58-1.25-1.73-1.25h-.93v2.6h.97Z" style="fill: #231f20;"/>
    <path d="M188.06,122.25c1.92-1.91,3-3.06,3-4.09,0-.73-.4-1.24-1.21-1.24-.53,0-.99.34-1.36.76l-.48-.46c.53-.59,1.11-.97,1.93-.97,1.18,0,1.91.74,1.91,1.88,0,1.2-1.1,2.38-2.6,3.97.34-.03.74-.05,1.07-.05h1.84v.71h-4.12v-.49Z" style="fill: #231f20;"/>
    <path d="M193.14,119.46c0-2.12,1.25-3.41,2.91-3.41.8,0,1.42.39,1.8.81l-.46.54c-.35-.37-.78-.62-1.33-.62-1.24,0-2.06,1.01-2.06,2.65s.79,2.68,2.03,2.68c.63,0,1.1-.27,1.52-.74l.46.52c-.52.6-1.16.95-2.01.95-1.63,0-2.86-1.26-2.86-3.39Z" style="fill: #231f20;"/>
    <path d="M199.12,122.05h1.46v-4.69h-1.16v-.53c.58-.1,1-.26,1.36-.47h.63v5.69h1.32v.68h-3.6v-.68Z" style="fill: #231f20;"/>
    <path d="M203.82,122.18l.46-.51c.26.31.65.5,1.05.5.92,0,1.68-.73,1.68-2.87,0-1.57-.51-2.42-1.42-2.42-.62,0-1.11.56-1.11,1.4s.39,1.35,1.18,1.35c.41,0,.93-.25,1.37-.9l.03.65c-.4.54-1,.87-1.54.87-1.11,0-1.82-.66-1.82-1.97,0-1.22.86-2.04,1.88-2.04,1.26,0,2.2,1.02,2.2,3.06,0,2.56-1.16,3.55-2.43,3.55-.68,0-1.19-.29-1.54-.67Z" style="fill: #231f20;"/>
    <path d="M209.26,118.25l.56-.94-.97-.41.15-.46,1.03.25.09-1.08h.49l.09,1.07,1.03-.24.15.46-.97.41.57.94-.4.29-.7-.85-.71.85-.4-.29Z" style="fill: #231f20;"/>
    <path d="M213.24,122.05h1.46v-4.69h-1.16v-.53c.58-.1,1-.26,1.36-.47h.63v5.69h1.32v.68h-3.6v-.68Z" style="fill: #231f20;"/>
    <path d="M220.2,115.64h.59l-2.67,8.7h-.59l2.67-8.7Z" style="fill: #231f20;"/>
    <path d="M221.91,118.25l.56-.94-.97-.41.15-.46,1.03.25.09-1.08h.49l.09,1.07,1.03-.24.15.46-.97.41.57.94-.4.29-.7-.85-.71.85-.4-.29Z" style="fill: #231f20;"/>
    <path d="M225.37,121.96l.41-.54c.38.4.88.75,1.63.75s1.32-.45,1.32-1.17c0-.76-.52-1.27-2.03-1.27v-.63c1.35,0,1.81-.52,1.81-1.19,0-.62-.43-1.01-1.1-1.01-.53,0-.99.27-1.36.65l-.44-.52c.49-.46,1.08-.79,1.83-.79,1.11,0,1.91.59,1.91,1.62,0,.77-.47,1.26-1.16,1.51v.04c.77.18,1.38.75,1.38,1.62,0,1.14-.94,1.82-2.11,1.82-1.02,0-1.67-.43-2.09-.9Z" style="fill: #231f20;"/>
    <path d="M236.42,118.05h4.29v.62h-4.29v-.62ZM236.42,120.2h4.29v.62h-4.29v-.62Z" style="fill: #231f20;"/>
    <path d="M247.94,116.18h.86l2.37,4.12.71,1.36h.04c-.04-.66-.11-1.4-.11-2.09v-3.39h.79v6.56h-.86l-2.37-4.13-.71-1.35h-.04c.04.66.11,1.36.11,2.05v3.43h-.79v-6.56Z" style="fill: #231f20;"/>
    <path d="M253.98,120.31c0-1.62,1.06-2.56,2.25-2.56s2.25.93,2.25,2.56-1.06,2.54-2.25,2.54-2.25-.93-2.25-2.54ZM257.63,120.31c0-1.11-.57-1.87-1.4-1.87s-1.4.76-1.4,1.87.57,1.86,1.4,1.86,1.4-.75,1.4-1.86Z" style="fill: #231f20;"/>
    <path d="M259.76,117.88h.68l.07.88h.03c.34-.62.83-1,1.38-1,.22,0,.37.03.52.1l-.15.72c-.17-.05-.28-.08-.47-.08-.41,0-.9.3-1.23,1.12v3.12h-.82v-4.86Z" style="fill: #231f20;"/>
    <path d="M263.23,117.88h.68l.07.7h.03c.42-.46.93-.82,1.51-.82.74,0,1.14.36,1.34.93.5-.55,1.01-.93,1.6-.93,1,0,1.48.66,1.48,1.9v3.08h-.82v-2.97c0-.91-.29-1.29-.9-1.29-.38,0-.77.25-1.22.75v3.52h-.82v-2.97c0-.91-.29-1.29-.9-1.29-.36,0-.77.25-1.22.75v3.52h-.82v-4.86Z" style="fill: #231f20;"/>
    <path d="M271.22,121.47c0-1.06.91-1.59,2.98-1.81,0-.62-.21-1.23-1-1.23-.56,0-1.07.27-1.45.52l-.32-.56c.45-.29,1.13-.63,1.91-.63,1.19,0,1.69.79,1.69,2v2.98h-.68l-.07-.58h-.03c-.46.39-1,.7-1.61.7-.81,0-1.42-.5-1.42-1.38ZM274.2,121.55v-1.35c-1.63.2-2.18.59-2.18,1.21,0,.55.38.78.85.78s.86-.23,1.33-.64Z" style="fill: #231f20;"/>
    <path d="M276.56,121.76v-6.14h.82v6.2c0,.25.11.35.23.35.05,0,.09,0,.18-.02l.11.63c-.12.04-.26.08-.47.08-.62,0-.87-.39-.87-1.1Z" style="fill: #231f20;"/>
    <path d="M280.58,117.92l.7-.05h1.81v.67h-2.51v-.62ZM281.24,117.11c0-.99.45-1.61,1.42-1.61.3,0,.59.07.81.17l-.17.63c-.19-.08-.38-.12-.55-.12-.46,0-.68.32-.68.95v5.62h-.82v-5.63Z" style="fill: #231f20;"/>
    <path d="M283.96,120.95v-3.08h.82v2.97c0,.9.27,1.29.92,1.29.5,0,.84-.25,1.3-.82v-3.45h.82v4.86h-.68l-.07-.76h-.03c-.45.53-.93.88-1.6.88-1.02,0-1.48-.66-1.48-1.9Z" style="fill: #231f20;"/>
    <path d="M289.47,117.88h.68l.07.7h.03c.46-.46.96-.82,1.63-.82,1.02,0,1.48.66,1.48,1.9v3.08h-.82v-2.97c0-.91-.27-1.29-.92-1.29-.5,0-.84.25-1.33.75v3.52h-.82v-4.86Z" style="fill: #231f20;"/>
    <path d="M294.58,120.31c0-1.62,1.09-2.56,2.34-2.56.64,0,1.08.26,1.42.57l-.42.54c-.28-.26-.58-.43-.96-.43-.88,0-1.52.76-1.52,1.87s.61,1.86,1.5,1.86c.44,0,.84-.22,1.14-.48l.36.55c-.44.39-.99.62-1.57.62-1.29,0-2.28-.93-2.28-2.54Z" style="fill: #231f20;"/>
    <path d="M299.54,121.23v-2.69h-.72v-.62l.76-.05.1-1.36h.69v1.36h1.32v.67h-1.32v2.7c0,.59.19.94.75.94.17,0,.4-.07.55-.13l.16.62c-.27.09-.6.18-.9.18-1.03,0-1.38-.66-1.38-1.62Z" style="fill: #231f20;"/>
    <path d="M302.63,116.35c0-.32.25-.53.57-.53s.57.21.57.53-.25.53-.57.53-.57-.22-.57-.53ZM302.78,117.88h.82v4.86h-.82v-4.86Z" style="fill: #231f20;"/>
    <path d="M304.88,120.31c0-1.62,1.06-2.56,2.25-2.56s2.25.93,2.25,2.56-1.06,2.54-2.25,2.54-2.25-.93-2.25-2.54ZM308.53,120.31c0-1.11-.57-1.87-1.4-1.87s-1.4.76-1.4,1.87.57,1.86,1.4,1.86,1.4-.75,1.4-1.86Z" style="fill: #231f20;"/>
    <path d="M310.66,117.88h.68l.07.7h.03c.46-.46.96-.82,1.63-.82,1.02,0,1.48.66,1.48,1.9v3.08h-.82v-2.97c0-.91-.27-1.29-.92-1.29-.5,0-.84.25-1.33.75v3.52h-.82v-4.86Z" style="fill: #231f20;"/>
    <path d="M318.08,115.64h.59l-2.67,8.7h-.59l2.67-8.7Z" style="fill: #231f20;"/>
    <path d="M319.7,116.18h.86l2.37,4.12.71,1.36h.04c-.04-.66-.11-1.4-.11-2.09v-3.39h.79v6.56h-.86l-2.37-4.13-.71-1.35h-.04c.04.66.11,1.36.11,2.05v3.43h-.79v-6.56Z" style="fill: #231f20;"/>
    <path d="M325.74,120.31c0-1.62,1.06-2.56,2.25-2.56s2.25.93,2.25,2.56-1.06,2.54-2.25,2.54-2.25-.93-2.25-2.54ZM329.39,120.31c0-1.11-.57-1.87-1.4-1.87s-1.4.76-1.4,1.87.57,1.86,1.4,1.86,1.4-.75,1.4-1.86Z" style="fill: #231f20;"/>
    <path d="M332.95,117.92l.7-.05h1.81v.67h-2.51v-.62ZM333.61,117.11c0-.99.45-1.61,1.42-1.61.3,0,.59.07.81.17l-.17.63c-.19-.08-.38-.12-.55-.12-.46,0-.68.32-.68.95v5.62h-.82v-5.63Z" style="fill: #231f20;"/>
    <path d="M336.33,120.95v-3.08h.82v2.97c0,.9.27,1.29.92,1.29.5,0,.84-.25,1.3-.82v-3.45h.82v4.86h-.68l-.07-.76h-.03c-.45.53-.93.88-1.6.88-1.02,0-1.48-.66-1.48-1.9Z" style="fill: #231f20;"/>
    <path d="M341.83,117.88h.68l.07.7h.03c.46-.46.96-.82,1.63-.82,1.02,0,1.48.66,1.48,1.9v3.08h-.82v-2.97c0-.91-.27-1.29-.92-1.29-.5,0-.84.25-1.33.75v3.52h-.82v-4.86Z" style="fill: #231f20;"/>
    <path d="M346.95,120.31c0-1.62,1.09-2.56,2.34-2.56.64,0,1.08.26,1.42.57l-.42.54c-.28-.26-.58-.43-.96-.43-.88,0-1.52.76-1.52,1.87s.61,1.86,1.5,1.86c.44,0,.84-.22,1.14-.48l.36.55c-.44.39-.99.62-1.57.62-1.29,0-2.28-.93-2.28-2.54Z" style="fill: #231f20;"/>
    <path d="M351.91,121.23v-2.69h-.72v-.62l.76-.05.1-1.36h.69v1.36h1.32v.67h-1.32v2.7c0,.59.19.94.75.94.17,0,.4-.07.55-.13l.16.62c-.27.09-.6.18-.9.18-1.03,0-1.38-.66-1.38-1.62Z" style="fill: #231f20;"/>
    <path d="M355,116.35c0-.32.25-.53.57-.53s.57.21.57.53-.25.53-.57.53-.57-.22-.57-.53ZM355.15,117.88h.82v4.86h-.82v-4.86Z" style="fill: #231f20;"/>
    <path d="M357.25,120.31c0-1.62,1.06-2.56,2.25-2.56s2.25.93,2.25,2.56-1.06,2.54-2.25,2.54-2.25-.93-2.25-2.54ZM360.9,120.31c0-1.11-.57-1.87-1.4-1.87s-1.4.76-1.4,1.87.57,1.86,1.4,1.86,1.4-.75,1.4-1.86Z" style="fill: #231f20;"/>
    <path d="M363.03,117.88h.68l.07.7h.03c.46-.46.96-.82,1.63-.82,1.02,0,1.48.66,1.48,1.9v3.08h-.82v-2.97c0-.91-.27-1.29-.92-1.29-.5,0-.84.25-1.33.75v3.52h-.82v-4.86Z" style="fill: #231f20;"/>
    <path d="M172.6,132.18h.86l2.37,4.12.71,1.36h.04c-.04-.66-.11-1.4-.11-2.09v-3.39h.79v6.56h-.86l-2.37-4.13-.71-1.35h-.04c.04.66.11,1.36.11,2.05v3.43h-.79v-6.56Z" style="fill: #231f20;"/>
    <path d="M178.64,136.31c0-1.62,1.06-2.56,2.25-2.56s2.25.93,2.25,2.56-1.06,2.54-2.25,2.54-2.25-.93-2.25-2.54ZM182.29,136.31c0-1.11-.57-1.87-1.4-1.87s-1.4.76-1.4,1.87.57,1.86,1.4,1.86,1.4-.75,1.4-1.86Z" style="fill: #231f20;"/>
    <path d="M184.42,133.88h.68l.07.88h.03c.34-.62.83-1,1.38-1,.22,0,.37.03.52.1l-.15.72c-.17-.05-.28-.08-.47-.08-.41,0-.9.3-1.23,1.12v3.12h-.82v-4.86Z" style="fill: #231f20;"/>
    <path d="M187.89,133.88h.68l.07.7h.03c.42-.46.93-.82,1.51-.82.74,0,1.14.36,1.34.93.5-.55,1.01-.93,1.6-.93,1,0,1.48.66,1.48,1.9v3.08h-.82v-2.97c0-.91-.29-1.29-.9-1.29-.38,0-.77.25-1.22.75v3.52h-.82v-2.97c0-.91-.29-1.29-.9-1.29-.36,0-.77.25-1.22.75v3.52h-.82v-4.86Z" style="fill: #231f20;"/>
    <path d="M195.88,137.47c0-1.06.91-1.59,2.98-1.81,0-.62-.21-1.23-1-1.23-.56,0-1.07.27-1.45.52l-.32-.56c.45-.29,1.13-.63,1.91-.63,1.19,0,1.69.79,1.69,2v2.98h-.68l-.07-.58h-.03c-.46.39-1,.7-1.61.7-.81,0-1.42-.5-1.42-1.38ZM198.86,137.55v-1.35c-1.63.2-2.18.59-2.18,1.21,0,.55.38.78.85.78s.86-.23,1.33-.64Z" style="fill: #231f20;"/>
    <path d="M201.22,137.76v-6.14h.82v6.2c0,.25.11.35.23.35.05,0,.09,0,.18-.02l.11.63c-.12.04-.26.08-.47.08-.62,0-.87-.39-.87-1.1Z" style="fill: #231f20;"/>
    <path d="M205.24,133.92l.7-.05h1.81v.67h-2.51v-.62ZM205.9,133.11c0-.99.45-1.61,1.42-1.61.3,0,.59.07.81.17l-.17.63c-.19-.08-.38-.12-.55-.12-.46,0-.68.32-.68.95v5.62h-.82v-5.63Z" style="fill: #231f20;"/>
    <path d="M208.62,136.95v-3.08h.82v2.97c0,.9.27,1.29.92,1.29.5,0,.84-.25,1.3-.82v-3.45h.82v4.86h-.68l-.07-.76h-.03c-.45.53-.93.88-1.6.88-1.02,0-1.48-.66-1.48-1.9Z" style="fill: #231f20;"/>
    <path d="M214.13,133.88h.68l.07.7h.03c.46-.46.96-.82,1.63-.82,1.02,0,1.48.66,1.48,1.9v3.08h-.82v-2.97c0-.91-.27-1.29-.92-1.29-.5,0-.84.25-1.33.75v3.52h-.82v-4.86Z" style="fill: #231f20;"/>
    <path d="M219.24,136.31c0-1.62,1.09-2.56,2.34-2.56.64,0,1.08.26,1.42.57l-.42.54c-.28-.26-.58-.43-.96-.43-.88,0-1.52.76-1.52,1.87s.61,1.86,1.5,1.86c.44,0,.84-.22,1.14-.48l.36.55c-.44.39-.99.62-1.57.62-1.29,0-2.28-.93-2.28-2.54Z" style="fill: #231f20;"/>
    <path d="M224.2,137.23v-2.69h-.72v-.62l.76-.05.1-1.36h.69v1.36h1.32v.67h-1.32v2.7c0,.59.19.94.75.94.17,0,.4-.07.55-.13l.16.62c-.27.09-.6.18-.9.18-1.03,0-1.38-.66-1.38-1.62Z" style="fill: #231f20;"/>
    <path d="M227.29,132.35c0-.32.25-.53.57-.53s.57.21.57.53-.25.53-.57.53-.57-.22-.57-.53ZM227.44,133.88h.82v4.86h-.82v-4.86Z" style="fill: #231f20;"/>
    <path d="M229.54,136.31c0-1.62,1.06-2.56,2.25-2.56s2.25.93,2.25,2.56-1.06,2.54-2.25,2.54-2.25-.93-2.25-2.54ZM233.19,136.31c0-1.11-.57-1.87-1.4-1.87s-1.4.76-1.4,1.87.57,1.86,1.4,1.86,1.4-.75,1.4-1.86Z" style="fill: #231f20;"/>
    <path d="M235.32,133.88h.68l.07.7h.03c.46-.46.96-.82,1.63-.82,1.02,0,1.48.66,1.48,1.9v3.08h-.82v-2.97c0-.91-.27-1.29-.92-1.29-.5,0-.84.25-1.33.75v3.52h-.82v-4.86Z" style="fill: #231f20;"/>
    <path d="M242.74,131.64h.59l-2.67,8.7h-.59l2.67-8.7Z" style="fill: #231f20;"/>
    <path d="M244.36,132.18h.86l2.37,4.12.71,1.36h.04c-.04-.66-.11-1.4-.11-2.09v-3.39h.79v6.56h-.86l-2.37-4.13-.71-1.35h-.04c.04.66.11,1.36.11,2.05v3.43h-.79v-6.56Z" style="fill: #231f20;"/>
    <path d="M250.4,136.31c0-1.62,1.06-2.56,2.25-2.56s2.25.93,2.25,2.56-1.06,2.54-2.25,2.54-2.25-.93-2.25-2.54ZM254.05,136.31c0-1.11-.57-1.87-1.4-1.87s-1.4.76-1.4,1.87.57,1.86,1.4,1.86,1.4-.75,1.4-1.86Z" style="fill: #231f20;"/>
    <path d="M257.61,133.92l.7-.05h1.81v.67h-2.51v-.62ZM258.27,133.11c0-.99.45-1.61,1.42-1.61.3,0,.59.07.81.17l-.17.63c-.19-.08-.38-.12-.55-.12-.46,0-.68.32-.68.95v5.62h-.82v-5.63Z" style="fill: #231f20;"/>
    <path d="M260.99,136.95v-3.08h.82v2.97c0,.9.27,1.29.92,1.29.5,0,.84-.25,1.3-.82v-3.45h.82v4.86h-.68l-.07-.76h-.03c-.45.53-.93.88-1.6.88-1.02,0-1.48-.66-1.48-1.9Z" style="fill: #231f20;"/>
    <path d="M266.5,133.88h.68l.07.7h.03c.46-.46.96-.82,1.63-.82,1.02,0,1.48.66,1.48,1.9v3.08h-.82v-2.97c0-.91-.27-1.29-.92-1.29-.5,0-.84.25-1.33.75v3.52h-.82v-4.86Z" style="fill: #231f20;"/>
    <path d="M271.61,136.31c0-1.62,1.09-2.56,2.34-2.56.64,0,1.08.26,1.42.57l-.42.54c-.28-.26-.58-.43-.96-.43-.88,0-1.52.76-1.52,1.87s.61,1.86,1.5,1.86c.44,0,.84-.22,1.14-.48l.36.55c-.44.39-.99.62-1.57.62-1.29,0-2.28-.93-2.28-2.54Z" style="fill: #231f20;"/>
    <path d="M276.57,137.23v-2.69h-.72v-.62l.76-.05.1-1.36h.69v1.36h1.32v.67h-1.32v2.7c0,.59.19.94.75.94.17,0,.4-.07.55-.13l.16.62c-.27.09-.6.18-.9.18-1.03,0-1.38-.66-1.38-1.62Z" style="fill: #231f20;"/>
    <path d="M279.66,132.35c0-.32.25-.53.57-.53s.57.21.57.53-.25.53-.57.53-.57-.22-.57-.53ZM279.81,133.88h.82v4.86h-.82v-4.86Z" style="fill: #231f20;"/>
    <path d="M281.91,136.31c0-1.62,1.06-2.56,2.25-2.56s2.25.93,2.25,2.56-1.06,2.54-2.25,2.54-2.25-.93-2.25-2.54ZM285.56,136.31c0-1.11-.57-1.87-1.4-1.87s-1.4.76-1.4,1.87.57,1.86,1.4,1.86,1.4-.75,1.4-1.86Z" style="fill: #231f20;"/>
    <path d="M287.69,133.88h.68l.07.7h.03c.46-.46.96-.82,1.63-.82,1.02,0,1.48.66,1.48,1.9v3.08h-.82v-2.97c0-.91-.27-1.29-.92-1.29-.5,0-.84.25-1.33.75v3.52h-.82v-4.86Z" style="fill: #231f20;"/>
    <path d="M294.68,134.05h4.29v.62h-4.29v-.62ZM294.68,136.2h4.29v.62h-4.29v-.62Z" style="fill: #231f20;"/>
    <path d="M303.97,132.35c0-.32.25-.53.57-.53s.57.21.57.53-.25.53-.57.53-.57-.22-.57-.53ZM304.12,133.88h.82v4.86h-.82v-4.86Z" style="fill: #231f20;"/>
    <path d="M306.58,133.88h.68l.07.7h.03c.46-.46.96-.82,1.63-.82,1.02,0,1.48.66,1.48,1.9v3.08h-.82v-2.97c0-.91-.27-1.29-.92-1.29-.5,0-.84.25-1.33.75v3.52h-.82v-4.86Z" style="fill: #231f20;"/>
    <path d="M312.2,137.23v-2.69h-.72v-.62l.76-.05.1-1.36h.69v1.36h1.32v.67h-1.32v2.7c0,.59.19.94.75.94.17,0,.4-.07.55-.13l.16.62c-.27.09-.6.18-.9.18-1.03,0-1.38-.66-1.38-1.62Z" style="fill: #231f20;"/>
    <path d="M314.93,136.31c0-1.58,1.07-2.56,2.18-2.56,1.24,0,1.94.89,1.94,2.28,0,.17-.01.35-.04.47h-3.27c.06,1.03.69,1.7,1.61,1.7.47,0,.85-.15,1.21-.39l.29.54c-.43.28-.94.5-1.6.5-1.29,0-2.33-.95-2.33-2.54ZM318.33,135.91c0-.97-.44-1.5-1.2-1.5-.68,0-1.29.55-1.39,1.5h2.59Z" style="fill: #231f20;"/>
    <path d="M320.25,133.88h.68l.07.88h.03c.34-.62.83-1,1.38-1,.22,0,.37.03.52.1l-.15.72c-.17-.05-.28-.08-.47-.08-.41,0-.9.3-1.23,1.12v3.12h-.82v-4.86Z" style="fill: #231f20;"/>
    <path d="M323.72,133.88h.68l.07.7h.03c.42-.46.93-.82,1.51-.82.74,0,1.14.36,1.34.93.5-.55,1.01-.93,1.6-.93,1,0,1.48.66,1.48,1.9v3.08h-.82v-2.97c0-.91-.29-1.29-.9-1.29-.38,0-.77.25-1.22.75v3.52h-.82v-2.97c0-.91-.29-1.29-.9-1.29-.36,0-.77.25-1.22.75v3.52h-.82v-4.86Z" style="fill: #231f20;"/>
    <path d="M331.65,136.31c0-1.58,1.07-2.56,2.18-2.56,1.24,0,1.94.89,1.94,2.28,0,.17-.01.35-.04.47h-3.27c.06,1.03.69,1.7,1.61,1.7.47,0,.85-.15,1.21-.39l.29.54c-.43.28-.94.5-1.6.5-1.3,0-2.33-.95-2.33-2.54ZM335.05,135.91c0-.97-.44-1.5-1.2-1.5-.68,0-1.29.55-1.39,1.5h2.59Z" style="fill: #231f20;"/>
    <path d="M336.63,136.31c0-1.58.99-2.56,2.1-2.56.57,0,.94.21,1.36.56l-.04-.83v-1.87h.82v7.12h-.68l-.07-.57h-.03c-.38.38-.9.69-1.47.69-1.21,0-2-.92-2-2.54ZM340.06,137.5v-2.55c-.42-.37-.79-.5-1.18-.5-.78,0-1.39.75-1.39,1.86,0,1.17.48,1.86,1.33,1.86.45,0,.84-.22,1.25-.66Z" style="fill: #231f20;"/>
    <path d="M342.37,132.35c0-.32.25-.53.57-.53s.57.21.57.53-.25.53-.57.53-.57-.22-.57-.53ZM342.52,133.88h.82v4.86h-.82v-4.86Z" style="fill: #231f20;"/>
    <path d="M344.68,137.47c0-1.06.91-1.59,2.98-1.81,0-.62-.21-1.23-1-1.23-.56,0-1.07.27-1.45.52l-.32-.56c.45-.29,1.13-.63,1.91-.63,1.19,0,1.69.79,1.69,2v2.98h-.68l-.07-.58h-.03c-.46.39-1,.7-1.61.7-.81,0-1.42-.5-1.42-1.38ZM347.67,137.55v-1.35c-1.63.2-2.18.59-2.18,1.21,0,.55.38.78.85.78s.86-.23,1.33-.64Z" style="fill: #231f20;"/>
    <path d="M350.03,137.23v-2.69h-.72v-.62l.76-.05.1-1.36h.69v1.36h1.32v.67h-1.32v2.7c0,.59.19.94.75.94.17,0,.4-.07.55-.13l.16.62c-.27.09-.6.18-.9.18-1.03,0-1.38-.66-1.38-1.62Z" style="fill: #231f20;"/>
    <path d="M352.76,136.31c0-1.58,1.07-2.56,2.18-2.56,1.24,0,1.94.89,1.94,2.28,0,.17-.01.35-.04.47h-3.27c.06,1.03.69,1.7,1.61,1.7.47,0,.85-.15,1.21-.39l.29.54c-.43.28-.94.5-1.6.5-1.29,0-2.33-.95-2.33-2.54ZM356.16,135.91c0-.97-.44-1.5-1.2-1.5-.68,0-1.29.55-1.39,1.5h2.59Z" style="fill: #231f20;"/>
    <path d="M360.08,133.88h.68l.07.7h.03c.42-.46.93-.82,1.51-.82.74,0,1.14.36,1.34.93.5-.55,1.01-.93,1.6-.93,1,0,1.48.66,1.48,1.9v3.08h-.82v-2.97c0-.91-.29-1.29-.9-1.29-.38,0-.77.25-1.22.75v3.52h-.82v-2.97c0-.91-.29-1.29-.9-1.29-.36,0-.77.25-1.22.75v3.52h-.82v-4.86Z" style="fill: #231f20;"/>
    <path d="M368.01,136.31c0-1.58,1.07-2.56,2.18-2.56,1.24,0,1.94.89,1.94,2.28,0,.17-.01.35-.04.47h-3.27c.06,1.03.69,1.7,1.61,1.7.47,0,.85-.15,1.21-.39l.29.54c-.43.28-.94.5-1.6.5-1.29,0-2.33-.95-2.33-2.54ZM371.41,135.91c0-.97-.44-1.5-1.2-1.5-.68,0-1.29.55-1.39,1.5h2.59Z" style="fill: #231f20;"/>
    <path d="M373.38,137.23v-2.69h-.72v-.62l.76-.05.1-1.36h.69v1.36h1.32v.67h-1.32v2.7c0,.59.19.94.75.94.17,0,.4-.07.55-.13l.16.62c-.27.09-.6.18-.9.18-1.03,0-1.38-.66-1.38-1.62Z" style="fill: #231f20;"/>
    <path d="M376.1,137.47c0-1.06.91-1.59,2.98-1.81,0-.62-.21-1.23-1-1.23-.56,0-1.07.27-1.45.52l-.32-.56c.45-.29,1.13-.63,1.91-.63,1.19,0,1.69.79,1.69,2v2.98h-.68l-.07-.58h-.03c-.46.39-1,.7-1.61.7-.81,0-1.42-.5-1.42-1.38ZM379.09,137.55v-1.35c-1.63.2-2.18.59-2.18,1.21,0,.55.38.78.85.78s.86-.23,1.33-.64Z" style="fill: #231f20;"/>
    <path d="M382.21,138.23h-.03l-.08.5h-.66v-7.12h.82v1.95l-.03.87c.44-.38.99-.68,1.53-.68,1.25,0,1.93.97,1.93,2.47,0,1.66-.99,2.63-2.1,2.63-.45,0-.96-.23-1.39-.62ZM384.85,136.24c0-1.07-.37-1.79-1.28-1.79-.41,0-.84.23-1.3.66v2.55c.43.37.86.5,1.18.5.8,0,1.4-.72,1.4-1.92Z" style="fill: #231f20;"/>
    <path d="M386.61,136.31c0-1.62,1.06-2.56,2.25-2.56s2.25.93,2.25,2.56-1.06,2.54-2.25,2.54-2.25-.93-2.25-2.54ZM390.27,136.31c0-1.11-.57-1.87-1.4-1.87s-1.4.76-1.4,1.87.57,1.86,1.4,1.86,1.4-.75,1.4-1.86Z" style="fill: #231f20;"/>
    <path d="M392.35,137.76v-6.14h.82v6.2c0,.25.11.35.23.35.05,0,.09,0,.18-.02l.11.63c-.12.04-.26.08-.47.08-.62,0-.87-.39-.87-1.1Z" style="fill: #231f20;"/>
    <path d="M394.75,132.35c0-.32.25-.53.57-.53s.57.21.57.53-.25.53-.57.53-.57-.22-.57-.53ZM394.9,133.88h.82v4.86h-.82v-4.86Z" style="fill: #231f20;"/>
    <path d="M396.86,138.3l2.56-3.75h-2.27v-.67h3.31v.44l-2.56,3.75h2.64v.67h-3.68v-.44Z" style="fill: #231f20;"/>
    <path d="M401.15,136.31c0-1.58,1.07-2.56,2.18-2.56,1.24,0,1.94.89,1.94,2.28,0,.17-.01.35-.04.47h-3.27c.06,1.03.69,1.7,1.61,1.7.47,0,.85-.15,1.21-.39l.29.54c-.43.28-.94.5-1.6.5-1.29,0-2.33-.95-2.33-2.54ZM404.55,135.91c0-.97-.44-1.5-1.2-1.5-.68,0-1.29.55-1.39,1.5h2.59Z" style="fill: #231f20;"/>
    <path d="M406.47,133.88h.68l.07.88h.03c.34-.62.83-1,1.38-1,.22,0,.37.03.52.1l-.15.72c-.17-.05-.28-.08-.47-.08-.41,0-.9.3-1.23,1.12v3.12h-.82v-4.86Z" style="fill: #231f20;"/>
  </g>
  <rect x="123.54" y="159.74" width="304.17" height="37" rx="15.99" ry="15.99" style="fill: #fff; stroke: #2b3990; stroke-miterlimit: 10; stroke-width: 2.36px;"/>
  <rect x="6.43" y="159.74" width="151.28" height="37" rx="11.28" ry="11.28" style="fill: #2b3990; stroke: #2b3990; stroke-miterlimit: 10; stroke-width: 2.09px;"/>
  <g>
    <path d="M16.36,174.38h2.38c1.42,0,2.64.52,2.64,2.16s-1.24,2.28-2.6,2.28h-.7v2.06h-1.72v-6.5ZM18.7,177.46c.68,0,1-.34,1-.92s-.38-.8-1.04-.8h-.58v1.72h.62Z" style="fill: #fff;"/>
    <path d="M22.3,175.88h1.4l.12.86h.04c.37-.68.93-.98,1.42-.98.31,0,.48.04.62.1l-.28,1.48c-.18-.04-.34-.08-.56-.08-.36,0-.8.22-1.04.84v2.78h-1.72v-5Z" style="fill: #fff;"/>
    <path d="M26.12,178.38c0-1.62,1.18-2.62,2.4-2.62,1.48,0,2.18,1.08,2.18,2.42,0,.3-.04.6-.07.72h-2.85c.16.6.6.8,1.16.8.34,0,.66-.1,1.02-.3l.56,1.02c-.54.38-1.26.58-1.82.58-1.46,0-2.58-.96-2.58-2.62ZM29.24,177.78c0-.38-.16-.72-.68-.72-.38,0-.7.22-.8.72h1.48Z" style="fill: #fff;"/>
    <path d="M31.24,180.3l.76-1.06c.46.34.87.5,1.22.5s.5-.1.5-.3c0-.26-.46-.38-.96-.58-.58-.23-1.26-.66-1.26-1.48,0-.98.8-1.62,1.98-1.62.82,0,1.4.33,1.84.66l-.76,1.02c-.36-.26-.71-.42-1.02-.42-.29,0-.44.08-.44.28,0,.26.44.36.94.54.6.22,1.28.6,1.28,1.5s-.74,1.66-2.14,1.66c-.64,0-1.42-.28-1.94-.7Z" style="fill: #fff;"/>
    <path d="M35.9,178.38c0-1.66,1.26-2.62,2.68-2.62.6,0,1.08.2,1.46.52l-.8,1.1c-.22-.18-.38-.24-.56-.24-.64,0-1.02.48-1.02,1.24s.42,1.24.96,1.24c.28,0,.56-.14.8-.32l.66,1.12c-.5.44-1.14.58-1.66.58-1.42,0-2.52-.96-2.52-2.62Z" style="fill: #fff;"/>
    <path d="M40.88,175.88h1.4l.12.86h.04c.37-.68.93-.98,1.42-.98.31,0,.48.04.62.1l-.28,1.48c-.18-.04-.34-.08-.56-.08-.36,0-.8.22-1.04.84v2.78h-1.72v-5Z" style="fill: #fff;"/>
    <path d="M44.96,174.4c0-.5.4-.86.96-.86s.96.36.96.86-.4.86-.96.86-.96-.36-.96-.86ZM45.06,175.88h1.72v5h-1.72v-5Z" style="fill: #fff;"/>
    <path d="M49.46,180.34h-.04l-.14.54h-1.34v-6.96h1.72v1.62l-.04.72c.35-.32.79-.5,1.23-.5,1.18,0,1.95,1,1.95,2.53,0,1.73-1.02,2.71-2.08,2.71-.44,0-.88-.22-1.26-.66ZM51.04,178.32c0-.82-.24-1.16-.7-1.16-.26,0-.46.1-.68.36v1.84c.2.18.42.24.64.24.4,0,.74-.32.74-1.28Z" style="fill: #fff;"/>
    <path d="M53.64,174.4c0-.5.4-.86.96-.86s.96.36.96.86-.4.86-.96.86-.96-.36-.96-.86ZM53.74,175.88h1.72v5h-1.72v-5Z" style="fill: #fff;"/>
    <path d="M56.62,175.88h1.4l.12.6h.04c.4-.38.9-.72,1.58-.72,1.1,0,1.56.8,1.56,2.04v3.08h-1.72v-2.86c0-.64-.16-.8-.5-.8-.32,0-.5.14-.76.38v3.28h-1.72v-5Z" style="fill: #fff;"/>
    <path d="M62.16,181.7c0-.41.24-.72.7-.96v-.04c-.26-.18-.46-.44-.46-.86,0-.34.22-.7.56-.94v-.04c-.36-.24-.68-.7-.68-1.28,0-1.24,1.04-1.82,2.14-1.82.28,0,.56.04.8.12h1.86v1.24h-.72c.04.12.08.32.08.52,0,1.18-.9,1.66-2.02,1.66-.16,0-.34-.02-.56-.07-.1.09-.12.15-.12.29,0,.22.2.3.7.3h.75c1.25,0,1.97.38,1.97,1.3,0,1.08-1.12,1.82-2.9,1.82-1.14,0-2.1-.34-2.1-1.24ZM65.52,181.42c0-.26-.24-.3-.67-.3h-.39c-.4,0-.58-.02-.72-.06-.12.12-.18.22-.18.36,0,.32.4.46.98.46s.98-.18.98-.46ZM64.96,177.58c0-.46-.22-.68-.54-.68s-.54.22-.54.68.22.7.54.7.54-.22.54-.7Z" style="fill: #fff;"/>
    <path d="M70.04,174.38h2.46c1.4,0,2.6.48,2.6,2.1s-1.2,2.22-2.6,2.22h-.74v2.18h-1.72v-6.5ZM72.38,177.34c.68,0,1.04-.3,1.04-.86s-.36-.74-1.04-.74h-.62v1.6h.62ZM72.19,178.25l1.16-1.14,2.11,3.77h-1.92l-1.35-2.63Z" style="fill: #fff;"/>
    <path d="M75.84,178.38c0-1.62,1.18-2.62,2.4-2.62,1.48,0,2.18,1.08,2.18,2.42,0,.3-.04.6-.07.72h-2.85c.16.6.6.8,1.16.8.34,0,.66-.1,1.02-.3l.56,1.02c-.54.38-1.26.58-1.82.58-1.46,0-2.58-.96-2.58-2.62ZM78.96,177.78c0-.38-.16-.72-.68-.72-.38,0-.7.22-.8.72h1.48Z" style="fill: #fff;"/>
    <path d="M81.1,178.38c0-1.66,1.26-2.62,2.68-2.62.6,0,1.08.2,1.46.52l-.8,1.1c-.22-.18-.38-.24-.56-.24-.64,0-1.02.48-1.02,1.24s.42,1.24.96,1.24c.28,0,.56-.14.8-.32l.66,1.12c-.5.44-1.14.58-1.66.58-1.42,0-2.52-.96-2.52-2.62Z" style="fill: #fff;"/>
    <path d="M85.52,178.38c0-1.66,1.2-2.62,2.48-2.62s2.48.96,2.48,2.62-1.2,2.62-2.48,2.62-2.48-.96-2.48-2.62ZM88.72,178.38c0-.76-.2-1.24-.72-1.24s-.72.48-.72,1.24.2,1.24.72,1.24.72-.48.72-1.24Z" style="fill: #fff;"/>
    <path d="M91.38,175.88h1.4l.12.61h.04c.4-.39.82-.73,1.5-.73s1.11.28,1.38.8c.41-.42.86-.8,1.54-.8,1.1,0,1.58.8,1.58,2.04v3.08h-1.72v-2.86c0-.64-.16-.8-.5-.8-.2,0-.44.12-.7.38v3.28h-1.72v-2.86c0-.64-.16-.8-.5-.8-.2,0-.44.12-.7.38v3.28h-1.72v-5Z" style="fill: #fff;"/>
    <path d="M100.06,175.88h1.4l.12.61h.04c.4-.39.82-.73,1.5-.73s1.11.28,1.38.8c.41-.42.86-.8,1.54-.8,1.1,0,1.58.8,1.58,2.04v3.08h-1.72v-2.86c0-.64-.16-.8-.5-.8-.2,0-.44.12-.7.38v3.28h-1.72v-2.86c0-.64-.16-.8-.5-.8-.2,0-.44.12-.7.38v3.28h-1.72v-5Z" style="fill: #fff;"/>
    <path d="M108.48,178.38c0-1.62,1.18-2.62,2.4-2.62,1.48,0,2.18,1.08,2.18,2.42,0,.3-.04.6-.07.72h-2.85c.16.6.6.8,1.16.8.34,0,.66-.1,1.02-.3l.56,1.02c-.54.38-1.26.58-1.82.58-1.46,0-2.58-.96-2.58-2.62ZM111.6,177.78c0-.38-.16-.72-.68-.72-.38,0-.7.22-.8.72h1.48Z" style="fill: #fff;"/>
    <path d="M114,175.88h1.4l.12.6h.04c.4-.38.9-.72,1.58-.72,1.1,0,1.56.8,1.56,2.04v3.08h-1.72v-2.86c0-.64-.16-.8-.5-.8-.32,0-.5.14-.76.38v3.28h-1.72v-5Z" style="fill: #fff;"/>
    <path d="M119.6,178.38c0-1.64,1.02-2.62,2.04-2.62.54,0,.86.2,1.16.5l-.06-.72v-1.62h1.72v6.96h-1.4l-.12-.46h-.04c-.34.34-.82.58-1.26.58-1.24,0-2.04-1-2.04-2.62ZM122.74,179.24v-1.84c-.2-.18-.46-.24-.68-.24-.36,0-.7.32-.7,1.2s.28,1.24.74,1.24c.26,0,.46-.08.64-.36Z" style="fill: #fff;"/>
    <path d="M125.42,179.46c0-1.04.8-1.62,2.72-1.82-.04-.36-.26-.52-.7-.52-.36,0-.74.14-1.26.42l-.6-1.12c.7-.42,1.42-.66,2.2-.66,1.3,0,2.08.7,2.08,2.34v2.78h-1.4l-.12-.48h-.04c-.4.36-.84.6-1.38.6-.94,0-1.5-.72-1.5-1.54ZM128.14,179.34v-.68c-.82.12-1.08.38-1.08.66,0,.23.16.36.46.36.28,0,.44-.14.62-.34Z" style="fill: #fff;"/>
    <path d="M131,178.96v-1.74h-.66v-1.28l.76-.06.2-1.3h1.42v1.3h1.14v1.34h-1.14v1.71c0,.55.28.73.6.73.16,0,.32-.04.44-.08l.26,1.24c-.26.08-.63.18-1.18.18-1.3,0-1.84-.82-1.84-2.04Z" style="fill: #fff;"/>
    <path d="M134.68,174.4c0-.5.4-.86.96-.86s.96.36.96.86-.4.86-.96.86-.96-.36-.96-.86ZM134.78,175.88h1.72v5h-1.72v-5Z" style="fill: #fff;"/>
    <path d="M137.4,178.38c0-1.66,1.2-2.62,2.48-2.62s2.48.96,2.48,2.62-1.2,2.62-2.48,2.62-2.48-.96-2.48-2.62ZM140.6,178.38c0-.76-.2-1.24-.72-1.24s-.72.48-.72,1.24.2,1.24.72,1.24.72-.48.72-1.24Z" style="fill: #fff;"/>
    <path d="M143.26,175.88h1.4l.12.6h.04c.4-.38.9-.72,1.58-.72,1.1,0,1.56.8,1.56,2.04v3.08h-1.72v-2.86c0-.64-.16-.8-.5-.8-.32,0-.5.14-.76.38v3.28h-1.72v-5Z" style="fill: #fff;"/>
  </g>
  <g>
    <path d="M172.22,177.41c0-2.12,1.25-3.41,2.91-3.41.8,0,1.42.39,1.8.81l-.46.54c-.35-.37-.78-.62-1.33-.62-1.24,0-2.06,1.01-2.06,2.65s.79,2.68,2.03,2.68c.63,0,1.1-.27,1.52-.74l.46.52c-.52.6-1.16.95-2.01.95-1.63,0-2.86-1.26-2.86-3.39Z" style="fill: #231f20;"/>
    <path d="M179.31,178.14l-1.97-4.02h.89l.85,1.85c.21.48.41.94.63,1.43h.04c.23-.49.45-.95.65-1.43l.85-1.85h.86l-1.97,4.02v2.54h-.83v-2.54Z" style="fill: #231f20;"/>
    <path d="M182.89,174.12h1.87c1.47,0,2.46.49,2.46,1.93s-.99,2.03-2.42,2.03h-1.08v2.6h-.83v-6.56ZM184.7,177.4c1.15,0,1.69-.42,1.69-1.35s-.58-1.25-1.73-1.25h-.93v2.6h.97Z" style="fill: #231f20;"/>
    <path d="M188.06,180.2c1.92-1.91,3-3.06,3-4.09,0-.73-.4-1.24-1.21-1.24-.53,0-.99.34-1.36.76l-.48-.46c.53-.59,1.11-.97,1.93-.97,1.18,0,1.91.74,1.91,1.88,0,1.2-1.1,2.38-2.6,3.97.34-.03.74-.05,1.07-.05h1.84v.71h-4.12v-.49Z" style="fill: #231f20;"/>
    <path d="M193.14,177.41c0-2.12,1.25-3.41,2.91-3.41.8,0,1.42.39,1.8.81l-.46.54c-.35-.37-.78-.62-1.33-.62-1.24,0-2.06,1.01-2.06,2.65s.79,2.68,2.03,2.68c.63,0,1.1-.27,1.52-.74l.46.52c-.52.6-1.16.95-2.01.95-1.63,0-2.86-1.26-2.86-3.39Z" style="fill: #231f20;"/>
    <path d="M199.12,180h1.46v-4.69h-1.16v-.53c.58-.1,1-.26,1.36-.47h.63v5.69h1.32v.68h-3.6v-.68Z" style="fill: #231f20;"/>
    <path d="M203.82,180.13l.46-.51c.26.31.65.5,1.05.5.92,0,1.68-.73,1.68-2.87,0-1.57-.51-2.42-1.42-2.42-.62,0-1.11.56-1.11,1.4s.39,1.35,1.18,1.35c.41,0,.93-.25,1.37-.9l.03.65c-.4.54-1,.87-1.54.87-1.11,0-1.82-.66-1.82-1.97,0-1.22.86-2.04,1.88-2.04,1.26,0,2.2,1.02,2.2,3.06,0,2.56-1.16,3.55-2.43,3.55-.68,0-1.19-.29-1.54-.67Z" style="fill: #231f20;"/>
    <path d="M210.95,174.3c0-.32.25-.53.57-.53s.57.21.57.53-.25.53-.57.53-.57-.22-.57-.53ZM211.1,175.83h.82v4.86h-.82v-4.86Z" style="fill: #231f20;"/>
    <path d="M213.56,175.83h.68l.07.7h.03c.46-.46.96-.82,1.63-.82,1.02,0,1.48.66,1.48,1.9v3.08h-.82v-2.97c0-.91-.27-1.29-.92-1.29-.5,0-.84.25-1.33.75v3.52h-.82v-4.86Z" style="fill: #231f20;"/>
    <path d="M219.17,179.18v-2.69h-.72v-.62l.76-.05.1-1.36h.69v1.36h1.32v.67h-1.32v2.7c0,.59.19.94.75.94.17,0,.4-.07.55-.13l.16.62c-.27.09-.6.18-.9.18-1.03,0-1.38-.66-1.38-1.62Z" style="fill: #231f20;"/>
    <path d="M221.91,178.26c0-1.58,1.07-2.56,2.18-2.56,1.24,0,1.94.89,1.94,2.28,0,.17-.01.35-.04.47h-3.27c.06,1.03.69,1.7,1.61,1.7.47,0,.85-.15,1.21-.39l.29.54c-.43.28-.94.5-1.6.5-1.29,0-2.33-.95-2.33-2.54ZM225.3,177.86c0-.97-.44-1.5-1.2-1.5-.68,0-1.29.55-1.39,1.5h2.59Z" style="fill: #231f20;"/>
    <path d="M227.23,175.83h.68l.07.88h.03c.34-.62.83-1,1.38-1,.22,0,.37.03.52.1l-.15.72c-.17-.05-.28-.08-.47-.08-.41,0-.9.3-1.23,1.12v3.12h-.82v-4.86Z" style="fill: #231f20;"/>
    <path d="M230.7,175.83h.68l.07.7h.03c.42-.46.93-.82,1.51-.82.74,0,1.14.36,1.34.93.5-.55,1.01-.93,1.6-.93,1,0,1.48.66,1.48,1.9v3.08h-.82v-2.97c0-.91-.29-1.29-.9-1.29-.38,0-.77.25-1.22.75v3.52h-.82v-2.97c0-.91-.29-1.29-.9-1.29-.36,0-.77.25-1.22.75v3.52h-.82v-4.86Z" style="fill: #231f20;"/>
    <path d="M238.63,178.26c0-1.58,1.07-2.56,2.18-2.56,1.24,0,1.94.89,1.94,2.28,0,.17-.01.35-.04.47h-3.27c.06,1.03.69,1.7,1.61,1.7.47,0,.85-.15,1.21-.39l.29.54c-.43.28-.94.5-1.6.5-1.3,0-2.33-.95-2.33-2.54ZM242.02,177.86c0-.97-.44-1.5-1.2-1.5-.68,0-1.29.55-1.39,1.5h2.59Z" style="fill: #231f20;"/>
    <path d="M243.6,178.26c0-1.58.99-2.56,2.1-2.56.57,0,.94.21,1.36.56l-.04-.83v-1.87h.82v7.12h-.68l-.07-.57h-.03c-.38.38-.9.69-1.47.69-1.21,0-2-.92-2-2.54ZM247.03,179.45v-2.55c-.42-.37-.79-.5-1.18-.5-.78,0-1.39.75-1.39,1.86,0,1.17.48,1.86,1.33,1.86.45,0,.84-.22,1.25-.66Z" style="fill: #231f20;"/>
    <path d="M249.35,174.3c0-.32.25-.53.57-.53s.57.21.57.53-.25.53-.57.53-.57-.22-.57-.53ZM249.5,175.83h.82v4.86h-.82v-4.86Z" style="fill: #231f20;"/>
    <path d="M251.66,179.42c0-1.06.91-1.59,2.98-1.81,0-.62-.21-1.23-1-1.23-.56,0-1.07.27-1.45.52l-.32-.56c.45-.29,1.13-.63,1.91-.63,1.19,0,1.69.79,1.69,2v2.98h-.68l-.07-.58h-.03c-.46.39-1,.7-1.61.7-.81,0-1.42-.5-1.42-1.38ZM254.64,179.5v-1.35c-1.63.2-2.18.59-2.18,1.21,0,.55.38.78.85.78s.86-.23,1.33-.64Z" style="fill: #231f20;"/>
    <path d="M257,179.18v-2.69h-.72v-.62l.76-.05.1-1.36h.69v1.36h1.32v.67h-1.32v2.7c0,.59.19.94.75.94.17,0,.4-.07.55-.13l.16.62c-.27.09-.6.18-.9.18-1.03,0-1.38-.66-1.38-1.62Z" style="fill: #231f20;"/>
    <path d="M259.74,178.26c0-1.58,1.07-2.56,2.18-2.56,1.24,0,1.94.89,1.94,2.28,0,.17-.01.35-.04.47h-3.27c.06,1.03.69,1.7,1.61,1.7.47,0,.85-.15,1.21-.39l.29.54c-.43.28-.94.5-1.6.5-1.3,0-2.33-.95-2.33-2.54ZM263.13,177.86c0-.97-.44-1.5-1.2-1.5-.68,0-1.29.55-1.39,1.5h2.59Z" style="fill: #231f20;"/>
    <path d="M267.06,175.83h.68l.07.7h.03c.42-.46.93-.82,1.51-.82.74,0,1.14.36,1.34.93.5-.55,1.01-.93,1.6-.93,1,0,1.48.66,1.48,1.9v3.08h-.82v-2.97c0-.91-.29-1.29-.9-1.29-.38,0-.77.25-1.22.75v3.52h-.82v-2.97c0-.91-.29-1.29-.9-1.29-.36,0-.77.25-1.22.75v3.52h-.82v-4.86Z" style="fill: #231f20;"/>
    <path d="M274.99,178.26c0-1.58,1.07-2.56,2.18-2.56,1.24,0,1.94.89,1.94,2.28,0,.17-.01.35-.04.47h-3.27c.06,1.03.69,1.7,1.61,1.7.47,0,.85-.15,1.21-.39l.29.54c-.43.28-.94.5-1.6.5-1.3,0-2.33-.95-2.33-2.54ZM278.38,177.86c0-.97-.44-1.5-1.2-1.5-.68,0-1.29.55-1.39,1.5h2.59Z" style="fill: #231f20;"/>
    <path d="M280.35,179.18v-2.69h-.72v-.62l.76-.05.1-1.36h.69v1.36h1.32v.67h-1.32v2.7c0,.59.19.94.75.94.17,0,.4-.07.55-.13l.16.62c-.27.09-.6.18-.9.18-1.03,0-1.38-.66-1.38-1.62Z" style="fill: #231f20;"/>
    <path d="M283.08,179.42c0-1.06.91-1.59,2.98-1.81,0-.62-.21-1.23-1-1.23-.56,0-1.07.27-1.45.52l-.32-.56c.45-.29,1.13-.63,1.91-.63,1.19,0,1.69.79,1.69,2v2.98h-.68l-.07-.58h-.03c-.46.39-1,.7-1.61.7-.81,0-1.42-.5-1.42-1.38ZM286.06,179.5v-1.35c-1.63.2-2.18.59-2.18,1.21,0,.55.38.78.85.78s.86-.23,1.33-.64Z" style="fill: #231f20;"/>
    <path d="M289.18,180.18h-.03l-.08.5h-.66v-7.12h.82v1.95l-.03.87c.44-.38.99-.68,1.53-.68,1.25,0,1.93.97,1.93,2.47,0,1.66-.99,2.63-2.1,2.63-.45,0-.96-.23-1.39-.62ZM291.82,178.19c0-1.07-.37-1.79-1.28-1.79-.41,0-.84.23-1.3.66v2.55c.43.37.86.5,1.18.5.8,0,1.4-.72,1.4-1.92Z" style="fill: #231f20;"/>
    <path d="M293.59,178.26c0-1.62,1.06-2.56,2.25-2.56s2.25.93,2.25,2.56-1.06,2.54-2.25,2.54-2.25-.93-2.25-2.54ZM297.24,178.26c0-1.11-.57-1.87-1.4-1.87s-1.4.76-1.4,1.87.57,1.86,1.4,1.86,1.4-.75,1.4-1.86Z" style="fill: #231f20;"/>
    <path d="M299.33,179.71v-6.14h.82v6.2c0,.25.11.35.23.35.05,0,.09,0,.18-.02l.11.63c-.12.04-.26.08-.47.08-.62,0-.87-.39-.87-1.1Z" style="fill: #231f20;"/>
    <path d="M301.73,174.3c0-.32.25-.53.57-.53s.57.21.57.53-.25.53-.57.53-.57-.22-.57-.53ZM301.88,175.83h.82v4.86h-.82v-4.86Z" style="fill: #231f20;"/>
    <path d="M303.83,180.24l2.56-3.75h-2.27v-.67h3.31v.44l-2.56,3.75h2.64v.67h-3.68v-.44Z" style="fill: #231f20;"/>
    <path d="M308.13,178.26c0-1.58,1.07-2.56,2.18-2.56,1.24,0,1.94.89,1.94,2.28,0,.17-.01.35-.04.47h-3.27c.06,1.03.69,1.7,1.61,1.7.47,0,.85-.15,1.21-.39l.29.54c-.43.28-.94.5-1.6.5-1.29,0-2.33-.95-2.33-2.54ZM311.52,177.86c0-.97-.44-1.5-1.2-1.5-.68,0-1.29.55-1.39,1.5h2.59Z" style="fill: #231f20;"/>
    <path d="M313.45,175.83h.68l.07.88h.03c.34-.62.83-1,1.38-1,.22,0,.37.03.52.1l-.15.72c-.17-.05-.28-.08-.47-.08-.41,0-.9.3-1.23,1.12v3.12h-.82v-4.86Z" style="fill: #231f20;"/>
    <path d="M320.44,176h4.29v.62h-4.29v-.62ZM320.44,178.15h4.29v.62h-4.29v-.62Z" style="fill: #231f20;"/>
    <path d="M329.58,179.42c0-1.06.91-1.59,2.98-1.81,0-.62-.21-1.23-1-1.23-.56,0-1.07.27-1.45.52l-.32-.56c.45-.29,1.13-.63,1.91-.63,1.19,0,1.69.79,1.69,2v2.98h-.68l-.07-.58h-.03c-.46.39-1,.7-1.61.7-.81,0-1.42-.5-1.42-1.38ZM332.57,179.5v-1.35c-1.63.2-2.18.59-2.18,1.21,0,.55.38.78.85.78s.86-.23,1.33-.64Z" style="fill: #231f20;"/>
    <path d="M334.23,175.83h.85l.92,2.76c.15.47.3.97.45,1.43h.04c.15-.46.3-.96.45-1.43l.92-2.76h.81l-1.72,4.86h-.96l-1.75-4.86Z" style="fill: #231f20;"/>
    <path d="M339.2,178.26c0-1.62,1.06-2.56,2.25-2.56s2.25.93,2.25,2.56-1.06,2.54-2.25,2.54-2.25-.93-2.25-2.54ZM342.85,178.26c0-1.11-.57-1.87-1.4-1.87s-1.4.76-1.4,1.87.57,1.86,1.4,1.86,1.4-.75,1.4-1.86Z" style="fill: #231f20;"/>
    <path d="M344.83,174.3c0-.32.25-.53.57-.53s.57.21.57.53-.25.53-.57.53-.57-.22-.57-.53ZM344.98,175.83h.82v4.86h-.82v-4.86Z" style="fill: #231f20;"/>
    <path d="M347.09,178.26c0-1.58.99-2.56,2.1-2.56.57,0,.94.21,1.36.56l-.04-.83v-1.87h.82v7.12h-.68l-.07-.57h-.03c-.38.38-.9.69-1.47.69-1.21,0-2-.92-2-2.54ZM350.52,179.45v-2.55c-.42-.37-.79-.5-1.18-.5-.78,0-1.39.75-1.39,1.86,0,1.17.48,1.86,1.33,1.86.45,0,.84-.22,1.25-.66Z" style="fill: #231f20;"/>
    <path d="M354.62,178.26c0-1.62,1.09-2.56,2.34-2.56.64,0,1.08.26,1.42.57l-.42.54c-.28-.26-.58-.43-.96-.43-.88,0-1.52.76-1.52,1.87s.61,1.86,1.5,1.86c.44,0,.84-.22,1.14-.48l.36.55c-.44.39-.99.62-1.57.62-1.29,0-2.28-.93-2.28-2.54Z" style="fill: #231f20;"/>
    <path d="M359.54,179.71v-6.14h.82v6.2c0,.25.11.35.23.35.05,0,.09,0,.18-.02l.11.63c-.12.04-.26.08-.47.08-.62,0-.87-.39-.87-1.1Z" style="fill: #231f20;"/>
    <path d="M361.73,178.26c0-1.62,1.06-2.56,2.25-2.56s2.25.93,2.25,2.56-1.06,2.54-2.25,2.54-2.25-.93-2.25-2.54ZM365.39,178.26c0-1.11-.57-1.87-1.4-1.87s-1.4.76-1.4,1.87.57,1.86,1.4,1.86,1.4-.75,1.4-1.86Z" style="fill: #231f20;"/>
    <path d="M367.51,175.83h.68l.07.56h.03c.44-.36.99-.68,1.55-.68,1.25,0,1.93.97,1.93,2.48,0,1.66-.99,2.62-2.1,2.62-.45,0-.9-.21-1.35-.56l.02.85v1.64h-.82v-6.91ZM370.92,178.19c0-1.07-.37-1.79-1.28-1.79-.41,0-.83.23-1.3.66v2.55c.44.37.86.5,1.18.5.8,0,1.4-.72,1.4-1.92Z" style="fill: #231f20;"/>
    <path d="M372.91,174.3c0-.32.25-.53.57-.53s.57.21.57.53-.25.53-.57.53-.57-.22-.57-.53ZM373.06,175.83h.82v4.86h-.82v-4.86Z" style="fill: #231f20;"/>
    <path d="M375.18,178.26c0-1.58.99-2.56,2.1-2.56.57,0,.94.21,1.36.56l-.04-.83v-1.87h.82v7.12h-.68l-.07-.57h-.03c-.38.38-.9.69-1.47.69-1.21,0-2-.92-2-2.54ZM378.61,179.45v-2.55c-.42-.37-.79-.5-1.18-.5-.78,0-1.39.75-1.39,1.86,0,1.17.48,1.86,1.33,1.86.45,0,.84-.22,1.25-.66Z" style="fill: #231f20;"/>
    <path d="M380.71,178.26c0-1.62,1.06-2.56,2.25-2.56s2.25.93,2.25,2.56-1.06,2.54-2.25,2.54-2.25-.93-2.25-2.54ZM384.37,178.26c0-1.11-.57-1.87-1.4-1.87s-1.4.76-1.4,1.87.57,1.86,1.4,1.86,1.4-.75,1.4-1.86Z" style="fill: #231f20;"/>
    <path d="M386.13,181.62c0-.42.27-.81.71-1.1v-.04c-.25-.15-.43-.42-.43-.8,0-.4.28-.72.53-.9v-.04c-.32-.25-.63-.72-.63-1.3,0-1.06.84-1.73,1.82-1.73.27,0,.51.05.69.12h1.69v.63h-1c.23.22.4.58.4,1,0,1.04-.79,1.68-1.78,1.68-.24,0-.5-.06-.72-.17-.18.15-.31.31-.31.57,0,.31.2.53.85.53h.95c1.13,0,1.7.35,1.7,1.16,0,.9-.96,1.68-2.46,1.68-1.19,0-2.01-.47-2.01-1.3ZM389.79,181.36c0-.45-.34-.6-.98-.6h-.84c-.18,0-.42-.02-.63-.07-.35.25-.5.54-.5.81,0,.52.53.85,1.41.85.93,0,1.54-.48,1.54-.99ZM389.17,177.44c0-.71-.46-1.13-1.03-1.13s-1.03.42-1.03,1.13.47,1.16,1.03,1.16,1.03-.45,1.03-1.16Z" style="fill: #231f20;"/>
    <path d="M391.53,175.83h.68l.07.88h.03c.34-.62.83-1,1.38-1,.22,0,.37.03.52.1l-.15.72c-.17-.05-.28-.08-.47-.08-.41,0-.9.3-1.23,1.12v3.12h-.82v-4.86Z" style="fill: #231f20;"/>
    <path d="M394.54,178.26c0-1.58,1.07-2.56,2.18-2.56,1.24,0,1.94.89,1.94,2.28,0,.17-.01.35-.04.47h-3.27c.06,1.03.69,1.7,1.61,1.7.47,0,.85-.15,1.21-.39l.29.54c-.43.28-.94.5-1.6.5-1.29,0-2.33-.95-2.33-2.54ZM397.94,177.86c0-.97-.44-1.5-1.2-1.5-.68,0-1.29.55-1.39,1.5h2.59Z" style="fill: #231f20;"/>
    <path d="M399.86,179.71v-6.14h.82v6.2c0,.25.11.35.23.35.05,0,.09,0,.18-.02l.11.63c-.12.04-.26.08-.47.08-.62,0-.87-.39-.87-1.1Z" style="fill: #231f20;"/>
  </g>
  <polyline points="94.71 44.85 81.82 52.88 68.92 44.85" style="fill: #2b3990; stroke: #2b3990; stroke-miterlimit: 10; stroke-width: 2.37px;"/>
  <polyline points="94.71 95.47 81.82 103.47 68.92 95.47" style="fill: #2b3990; stroke: #2b3990; stroke-miterlimit: 10; stroke-width: 2.36px;"/>
</svg>