<?xml version="1.0" encoding="UTF-8"?>
<svg id="Layer_1" data-name="Layer 1" xmlns="http://www.w3.org/2000/svg" xmlns:xlink="http://www.w3.org/1999/xlink" viewBox="0 0 32 32">
  <defs>
    <style>
      .cls-1 {
        fill: #231f20;
      }

      .cls-2 {
        fill: #fff;
      }

      .cls-3 {
        fill: url(#linear-gradient);
      }
    </style>
    <linearGradient id="linear-gradient" x1="16" y1="31.75" x2="16" y2=".76" gradientUnits="userSpaceOnUse">
      <stop offset="0" stop-color="#0095da"/>
      <stop offset="1" stop-color="#27aae1"/>
    </linearGradient>
  </defs>
  <g id="icon">
    <rect id="background" class="cls-3" x="0" width="32" height="32" rx="10.77" ry="10.77"/>
    <g id="icon-artwork">
      <g id="icon-artwork-back">
        <path class="cls-1" d="M26.38,15.71c-.24-.29-2.32-2.06-3.27-3.46-2.59-3.83-8.59-8.27-8.85-8.46l-1.86-1.37v6.31c-1.08.58-3.04,1.83-3.72,3.62-.18.47-.61.78-1.11,1.15-.88.65-2.37,1.73-1.5,4.09,1.09,2.98,4.45,4.51,4.59,4.58l.16.06s4.88,1.46,4.88,4.26v2.34h0s0,0,0,0c0,.64.52,1.16,1.16,1.16s1.16-.52,1.16-1.16c0,0,0,0,0,0h0v-2.34c0-4.35-5.61-6.21-6.48-6.48-.4-.2-2.61-1.35-3.29-3.22-.25-.69-.18-.77.69-1.4.66-.49,1.49-1.09,1.91-2.21.47-1.23,2.49-2.35,3.17-2.64l.7-.31v-3.1c1.94,1.58,4.92,4.19,6.44,6.43.92,1.37,2.79,3.15,3.11,3.46.65.62,1.4.46,1.72.17.76-.68.72-1.05.37-1.47Z"/>
      </g>
      <g id="icon-artwork-front">
        <path class="cls-2" d="M26.11,15.42c-.37-.5-2.45-2.13-3.44-3.59-2.59-3.83-8.59-8.27-8.85-8.46l-1.86-1.37v6.31c-1.08.58-3.04,1.83-3.72,3.62-.18.47-.61.78-1.11,1.15-.89.65-2.37,1.73-1.5,4.09,1.09,2.98,4.45,4.51,4.59,4.58l.16.06s4.88,1.46,4.88,4.26v2.34h0s0,0,0,0c0,.64.52,1.16,1.16,1.16s1.16-.52,1.16-1.16c0,0,0,0,0,0h0v-2.34c0-4.35-5.61-6.21-6.48-6.48-.4-.2-2.61-1.35-3.29-3.22-.25-.69-.18-.77.69-1.4.66-.49,1.49-1.09,1.91-2.21.47-1.23,2.49-2.35,3.17-2.64l.7-.31v-3.1c1.94,1.58,4.92,4.19,6.44,6.43,1.09,1.61,3.17,3.6,3.73,3.96s.79.43,1.5-.17.48-1.06.14-1.51Z"/>
      </g>
    </g>
  </g>
</svg>